<svg width="134" height="39" viewBox="0 0 134 39" fill="none" xmlns="http://www.w3.org/2000/svg">
<g clip-path="url(#clip0_340_3680)">
<path d="M13.0482 24.7547V1.07324H1.00098V24.7547V25.9097H13.0482H19.36V24.7547H13.0482Z" fill="black"/>
<path d="M32.5416 25.9097H47.1882L34.0792 1.07324L20.9727 25.9097H22.4544L23.7027 23.5833H31.4635L32.5416 25.9097ZM24.2884 22.489L27.8678 15.8179L30.9572 22.489H24.2884Z" fill="black"/>
<path d="M61.384 0.916992V9.9705H61.279L54.7852 0.916992L54.7572 0.921659V0.916992H50.5828H49.4557H49.4277V8.96948H49.4557V17.0196H50.5828V8.96948H50.7484L56.4209 16.98V17.0196H56.4489H61.384H62.147H62.4853H62.5133V0.916992H61.384Z" fill="black"/>
<path d="M70.4515 0.564697C66.8837 0.564697 63.9927 3.48142 63.9927 7.07949C63.9927 10.6776 66.8837 13.5943 70.4515 13.5943C74.0192 13.5943 76.9079 10.6776 76.9079 7.07949C76.9079 3.48142 74.0169 0.564697 70.4515 0.564697ZM70.4515 12.6633C70.3231 12.6633 70.1971 12.6516 70.0711 12.6446V1.51438C70.1971 1.50505 70.3231 1.49572 70.4515 1.49572C73.5082 1.49572 75.9862 3.99476 75.9862 7.07949C75.9862 10.1642 73.5082 12.6633 70.4515 12.6633Z" fill="black"/>
<path d="M119.905 0C112.462 0 106.428 6.08545 106.428 13.5943C106.428 21.1031 112.462 27.1885 119.905 27.1885C127.349 27.1885 133.378 21.1031 133.378 13.5943C133.378 6.08545 127.346 0 119.905 0ZM119.905 25.2448C119.637 25.2448 119.376 25.2215 119.112 25.2028V1.98337C119.376 1.9647 119.637 1.94137 119.905 1.94137C126.282 1.94137 131.456 7.15647 131.456 13.5919C131.456 20.0274 126.285 25.2425 119.905 25.2425V25.2448Z" fill="black"/>
<path d="M51.4209 32.1586L50.8375 32.6066C50.5155 32.1866 50.1282 31.8692 49.6778 31.6522C49.2275 31.4352 48.7305 31.3279 48.1915 31.3279C47.6011 31.3279 47.0528 31.4702 46.5511 31.7525C46.0471 32.0372 45.6574 32.4176 45.3821 32.8959C45.1044 33.3742 44.9667 33.9109 44.9667 34.5083C44.9667 35.4113 45.2771 36.165 45.8954 36.7693C46.5138 37.3737 47.2955 37.6747 48.2381 37.6747C49.2742 37.6747 50.1422 37.2687 50.8399 36.4566L51.4232 36.9C51.0545 37.369 50.5949 37.733 50.0418 37.9897C49.4888 38.2463 48.8728 38.3747 48.1915 38.3747C46.8964 38.3747 45.8744 37.943 45.1254 37.082C44.4977 36.354 44.1851 35.4743 44.1851 34.4453C44.1851 33.3602 44.5654 32.4479 45.3237 31.7082C46.0844 30.9685 47.0364 30.5999 48.1798 30.5999C48.8705 30.5999 49.4958 30.7375 50.0535 31.0105C50.6088 31.2835 51.0662 31.6662 51.4232 32.1609L51.4209 32.1586Z" fill="black"/>
<path d="M55.9312 30.7844L59.3846 38.1882H58.5843L57.4199 35.7522H54.2302L53.0775 38.1882H52.2515L55.7492 30.7844H55.9312ZM55.8379 32.3571L54.5685 35.0382H57.1002L55.8379 32.3571Z" fill="black"/>
<path d="M60.5371 38.1882V30.7844H60.6981L65.6262 36.4592V30.7844H66.3566V38.1882H66.1909L61.3025 32.5811V38.1882H60.5371Z" fill="black"/>
<path d="M67.4229 31.5101V30.7844H71.4783V31.5101H69.8286V38.1882H69.0749V31.5101H67.4252H67.4229Z" fill="black"/>
<path d="M72.4399 30.7844H73.1796V38.1882H72.4399V30.7844Z" fill="black"/>
<path d="M74.8804 38.1882V30.7844H75.0414L79.9695 36.4592V30.7844H80.6998V38.1882H80.5342L75.6481 32.5811V38.1882H74.8827H74.8804Z" fill="black"/>
<path d="M85.5279 30.7844L88.9813 38.1882H88.1809L87.0166 35.7522H83.8269L82.6742 38.1882H81.8481L85.3459 30.7844H85.5279ZM85.4346 32.3571L84.1652 35.0382H86.6969L85.4346 32.3571Z" fill="black"/>
<path d="M39.8914 33.885H0V35.0237H39.8914V33.885Z" fill="black"/>
<path d="M133.178 33.885H93.2861V35.0237H133.178V33.885Z" fill="black"/>
<path d="M95.4139 24.6707L102.995 9.67407C102.995 9.67407 103.284 9.00906 103.408 8.72905C103.697 8.08037 103.296 6.75268 103.291 6.75734C102.171 3.07994 97.7753 0.324219 92.5135 0.324219C87.2517 0.324219 82.6783 3.17794 81.6586 6.95335C82.0646 7.02568 82.438 7.14935 82.795 7.30802C83.6373 4.01562 87.6718 1.50958 92.5135 1.50958C93.2182 1.50958 93.9042 1.56324 94.5669 1.66591L81.1406 25.8421H105.559V24.673H95.4139V24.6707Z" fill="black"/>
</g>
<defs>
<clipPath id="clip0_340_3680">
<rect width="133.378" height="38.3747" fill="white"/>
</clipPath>
</defs>
</svg>
