<svg width="161" height="35" viewBox="0 0 161 35" fill="none" xmlns="http://www.w3.org/2000/svg">
<g clip-path="url(#clip0_340_3699)">
<path d="M125.234 14.8791C123.675 13.3203 121.486 12.2086 118.926 12.2086C113.991 12.2086 110.282 16.1788 110.282 21.1139C110.282 26.0491 114.14 30.0193 119.148 30.0193C121.961 30.0193 124.132 28.8846 125.656 27.3694L128.182 31.3144C125.88 33.2399 122.726 34.4708 119.036 34.4708C110.949 34.4708 105.271 28.5706 105.271 21.1139C105.271 13.6573 110.873 7.75708 118.963 7.75708C122.389 7.75708 125.378 8.89861 127.641 10.7393L125.232 14.8791H125.234Z" fill="black"/>
<path d="M154.595 34.136H143.569C140.936 34.136 138.467 32.7262 137.126 30.4592L134.765 26.4616C132.817 23.1607 132.817 19.0599 134.765 15.7591L139.297 8.08472H150.322C152.956 8.08472 155.425 9.49444 156.766 11.7638L159.127 15.7614C161.075 19.0622 161.075 23.163 159.127 26.4639L154.595 34.1383V34.136ZM141.823 12.5087L138.575 18.0101C137.445 19.9218 137.445 22.2989 138.575 24.2129L140.936 28.2105C141.484 29.1389 142.492 29.7142 143.569 29.7142H152.071L155.319 24.2129C156.45 22.3012 156.45 19.9241 155.319 18.0101L152.958 14.0124C152.411 13.0841 151.402 12.5087 150.325 12.5087H141.823Z" fill="black"/>
<path d="M0 34.0741L11.1105 8.14893H14.629L25.7395 34.0741H20.5178L18.0743 28.3343H7.66753L5.224 34.0741H0ZM9.55633 23.8897H16.1488L12.8526 16.2222L9.55633 23.8897Z" fill="black"/>
<path d="M44.4645 8.14893V12.5936H37.6131V34.0741H32.6137V12.5936H25.7622V8.14893H44.4645Z" fill="black"/>
<path d="M52.5034 8.14889H57.5028V34.0741H52.5034V8.14889ZM61.0237 0L56.579 5.92543H53.2461L55.8386 0H61.0237Z" fill="black"/>
<path d="M71.9417 23.5184V34.0741H66.9424V8.14893H76.6821C80.015 8.14893 81.9794 8.96496 83.4235 10.4824C84.721 11.8165 85.4613 13.8153 85.4613 15.8531C85.4613 17.8909 84.721 19.8898 83.4235 21.2238C82.0161 22.7046 80.015 23.5207 76.6821 23.5207H71.9417V23.5184ZM76.4597 19.0737C78.1629 19.0737 79.0156 18.6657 79.607 18.0376C80.1617 17.4439 80.4597 16.7035 80.4597 15.8531C80.4597 15.0027 80.164 14.2233 79.607 13.632C79.0133 13.0016 78.1629 12.5959 76.4597 12.5959H71.9417V19.0783H76.4597V19.0737Z" fill="black"/>
<path d="M92.771 8.14893H97.7704V34.0741H92.771V8.14893Z" fill="black"/>
</g>
<defs>
<clipPath id="clip0_340_3699">
<rect width="160.589" height="34.4683" fill="white"/>
</clipPath>
</defs>
</svg>
