<svg width="116" height="50" viewBox="0 0 116 50" fill="none" xmlns="http://www.w3.org/2000/svg">
<g clip-path="url(#clip0_340_3708)">
<path d="M0 16.742C0.0129831 16.6424 0.0367854 16.5451 0.0389492 16.4455C0.0714069 15.4242 0.0843899 14.4007 0.136322 13.3793C0.287791 10.4214 0.850391 7.55861 2.34777 4.96416C3.60929 2.78084 5.40961 1.19041 7.84177 0.426573C11.7605 -0.804654 15.993 0.699218 18.4057 4.13324C18.9531 4.91006 19.3945 5.74314 19.7299 6.63248C19.771 6.74067 19.8013 6.8229 19.6953 6.92243C18.4857 8.08875 16.3911 9.52987 16.3327 9.57314C16.3197 9.51039 15.7052 7.54779 15.7052 7.54779C15.2919 6.03959 14.2511 5.35365 12.8684 5.35148C11.6566 5.34932 10.4925 6.34685 10.367 7.31193C10.3107 7.74253 10.2133 8.1753 10.2112 8.60591C10.1917 12.8579 10.1939 17.1098 10.1766 21.3596C10.1722 22.3052 10.0922 23.2486 10.1008 24.1921C10.1095 25.036 10.328 25.8474 10.7327 26.5939C11.2953 27.6304 12.797 28.1606 13.8659 27.704C14.3441 27.5006 14.6903 27.1414 14.937 26.6913C15.4304 25.789 15.6035 25.4774 15.9627 24.5967L16.4431 23.3222C16.5166 23.3741 18.397 24.5556 19.6109 25.6007C19.6996 25.6786 19.784 25.7349 19.7321 25.8885C19.1933 27.4508 18.5052 28.9331 17.3778 30.1708C15.7961 31.9105 13.8378 32.9405 11.503 33.2434C10.962 33.3127 10.4211 33.3949 9.87579 33.4339C9.03189 33.4944 8.21179 33.3105 7.39386 33.1331C4.73666 32.5575 2.94066 30.9065 1.72891 28.5501C0.9456 27.0267 0.508503 25.3952 0.272644 23.7052C0.0584238 22.1754 0.0649153 20.6369 0.0605876 19.0984C0.0627515 18.6267 0.0238023 18.1528 0 17.6789C0 17.3673 0 17.0536 0 16.742Z" fill="black"/>
<path d="M68.2368 20.0979C71.0974 23.9128 73.9494 27.7146 76.8165 31.5338C76.7472 31.5403 76.6823 31.5511 76.6174 31.5511C74.1225 31.5511 71.6275 31.5511 69.1326 31.5555C68.966 31.5555 68.8816 31.4906 68.7972 31.3629C66.8281 28.3746 64.8569 25.3885 62.8856 22.4002C62.8402 22.331 62.7926 22.2639 62.7471 22.1968C62.7277 22.2012 62.7082 22.2055 62.6865 22.212V31.5382H52.616C52.6117 31.4624 52.603 31.3889 52.603 31.3131C52.6052 22.9975 52.603 14.684 52.6138 6.36831C52.6138 4.79087 52.6658 3.21343 52.6961 1.63382C52.7026 1.28977 52.7047 1.0128 53.0509 1.00198C54.4574 0.960864 62.8056 0.867819 63.8053 0.831033C65.0624 0.783429 66.3045 0.900276 67.5227 1.2162C67.8603 1.30492 68.1957 1.42609 68.5094 1.57756C69.6563 2.13367 70.6971 2.84341 71.4068 3.92317C72.1361 5.03106 72.5732 6.26228 72.7939 7.57574C73.1011 9.40851 73.1033 11.2521 72.9388 13.0892C72.8328 14.2728 72.6965 15.4694 72.1901 16.5773C71.8071 17.4126 71.3744 18.2154 70.6841 18.845C70.035 19.4379 69.256 19.7885 68.4229 20.0373C68.3666 20.0546 68.3082 20.0741 68.2368 20.0957V20.0979ZM62.6649 11.3343C62.6779 11.3343 62.6887 11.3343 62.7017 11.3343C62.7017 12.7473 62.7082 14.1625 62.6974 15.5755C62.6952 15.9217 62.8315 16.1727 63.1258 16.3133C63.4179 16.454 63.7295 16.56 64.0411 16.6509C64.7941 16.8716 65.4519 16.6336 66.0643 16.203C66.7676 15.7118 67.0424 14.9783 67.1441 14.1776C67.2285 13.5133 67.2631 12.8404 67.2739 12.1717C67.2934 10.8431 67.3042 9.51454 67.2696 8.18811C67.2566 7.66446 67.1376 7.13864 67.0056 6.62797C66.945 6.39428 66.7697 6.1714 66.5988 5.98964C66.06 5.42055 65.3697 5.24311 64.6015 5.22364C63.5889 5.19984 62.6627 6.07187 62.6627 7.08887C62.6627 8.50186 62.6627 9.91702 62.6627 11.33L62.6649 11.3343Z" fill="black"/>
<path d="M45.3388 13.7209C45.3388 13.7209 45.395 16.7048 45.3258 18.1936C45.2089 20.6582 45.0163 23.1206 44.2633 25.4965C43.7613 27.0783 43.1186 28.5908 42.041 29.8762C40.4809 31.7349 38.5053 32.8731 36.0905 33.2128C35.5041 33.295 34.9155 33.3838 34.3248 33.4335C33.5371 33.5006 32.7711 33.3297 32.003 33.1804C29.2614 32.6437 27.394 30.9905 26.1454 28.5692C25.3578 27.0415 24.9164 25.4013 24.6805 23.7027C24.4685 22.1729 24.4706 20.6344 24.4706 19.0959C24.4706 17.9469 24.4382 16.8001 24.4663 15.651C24.5161 13.5045 24.5767 11.358 25.1025 9.25689C25.5828 7.33323 26.232 5.47881 27.4567 3.89055C28.8611 2.06859 30.6268 0.742158 32.9161 0.240146C36.7678 -0.60159 40.548 0.900118 42.8179 4.14156C43.8846 5.66274 44.8519 8.79599 45.0531 9.86276C45.3604 11.4943 45.3561 13.7187 45.3388 13.7187V13.7209ZM40.271 15.9691C40.271 15.9691 40.2559 15.9691 40.2494 15.9691C40.2494 14.4068 40.2407 12.8445 40.2537 11.2801C40.2602 10.3799 40.2451 9.48409 40.1196 8.59259C40.0135 7.8374 39.8469 7.11468 39.4098 6.45904C38.9835 5.81854 38.408 5.47449 37.6636 5.36846C36.6098 5.21915 35.4045 5.8207 34.9588 6.7663C34.7273 7.26182 34.6061 7.79629 34.6061 8.35456C34.6039 11.9401 34.5996 15.5255 34.5909 19.111L34.5001 23.7308C34.4892 24.4687 34.6104 25.1828 34.8268 25.8925C35.0973 26.7797 35.6664 27.3596 36.5211 27.7015C37.5143 28.0975 38.5443 27.8335 39.1675 26.9615C39.5699 26.401 39.8469 25.7605 39.9205 25.0876C40.0784 23.6378 40.2039 22.1815 40.2559 20.7231C40.3121 19.1392 40.2689 17.5509 40.2689 15.9648L40.271 15.9691Z" fill="black"/>
<path d="M82.0789 31.5123V25.7067C82.648 25.7067 83.1868 25.7067 83.7235 25.7067C86.6403 25.7024 89.5593 25.7002 92.4762 25.6829C92.8159 25.6829 93.1621 25.6201 93.4889 25.5271C94.0753 25.3605 94.2224 24.9731 93.8979 24.4538C93.7421 24.205 93.5322 23.9864 93.3201 23.7809C90.4573 20.9938 87.6011 18.2003 84.721 15.4306C83.2885 14.0544 82.1806 12.4856 81.6397 10.5576C81.1377 8.76162 81.0987 6.97212 81.8777 5.23888C82.8168 3.15077 84.4137 1.86544 86.6749 1.40454C87.6919 1.19681 88.709 1.1081 89.7476 1.11459C92.8852 1.13406 96.0206 1.12324 99.1582 1.12541C99.2425 1.12541 99.3248 1.12541 99.4027 1.12541V6.931C98.8336 6.931 98.2969 6.931 97.7582 6.931C94.8326 6.93749 91.9071 6.93749 88.9816 6.95481C88.6354 6.95697 88.2805 7.02621 87.9473 7.12575C87.4063 7.2902 87.2613 7.65589 87.5578 8.13843C87.7331 8.42622 87.9776 8.68155 88.2221 8.91958C91.1454 11.7672 94.0753 14.6105 97.0008 17.4538C98.5609 18.9706 99.6342 20.7623 100.032 22.9197C100.452 25.1874 100.065 27.2755 98.5458 29.078C97.505 30.3135 96.1526 30.9951 94.5708 31.2764C93.6966 31.4322 92.8268 31.5231 91.9396 31.5188C88.7328 31.5036 85.5259 31.5101 82.3191 31.5079C82.2412 31.5079 82.1633 31.5079 82.0746 31.5079L82.0789 31.5123Z" fill="black"/>
<path d="M115.326 32.0661H107.798V1.46069H115.326V32.0661Z" fill="black"/>
<path d="M5.89638 46.3149H7.41324C7.12977 48.1152 5.68433 49.3616 3.77149 49.3616C1.64659 49.3616 0.088623 47.8036 0.088623 45.6787C0.088623 43.5538 1.64659 41.9958 3.77149 41.9958C5.68433 41.9958 7.12977 43.2422 7.41324 45.0425H5.89638C5.6562 44.0234 4.83394 43.3418 3.77149 43.3418C2.49698 43.3418 1.57518 44.3328 1.57518 45.6787C1.57518 47.0246 2.49698 48.0157 3.77149 48.0157C4.83394 48.0157 5.6562 47.3211 5.89638 46.3149Z" fill="black"/>
<path d="M15.5016 45.8176V42.1348H16.9189V45.8176C16.9189 47.8581 15.4735 49.3598 13.5195 49.3598C11.5656 49.3598 10.1201 47.8581 10.1201 45.8176V42.1348H11.5374V45.8176C11.5374 47.0921 12.3727 48.0139 13.5217 48.0139C14.6707 48.0139 15.5059 47.0921 15.5059 45.8176H15.5016Z" fill="black"/>
<path d="M25.4315 46.3149H26.9484C26.6649 48.1152 25.2195 49.3616 23.3066 49.3616C21.1817 49.3616 19.6238 47.8036 19.6238 45.6787C19.6238 43.5538 21.1817 41.9958 23.3066 41.9958C25.2195 41.9958 26.6649 43.2422 26.9484 45.0425H25.4315C25.1914 44.0234 24.3691 43.3418 23.3066 43.3418C22.0321 43.3418 21.1103 44.3328 21.1103 45.6787C21.1103 47.0246 22.0321 48.0157 23.3066 48.0157C24.3691 48.0157 25.1914 47.3211 25.4315 46.3149Z" fill="black"/>
<path d="M29.6531 49.2192V42.1348H31.0704V49.2192H29.6531Z" fill="black"/>
<path d="M35.5474 44.3311V49.2192H34.1301V42.1348H35.4046L39.7972 47.0229V42.1348H41.2146V49.2192H39.9401L35.5474 44.3311Z" fill="black"/>
<path d="M43.6379 49.2192L46.5418 42.1348H48.6667L51.5706 49.2192H50.0408L49.4608 47.8019H45.7196L45.1396 49.2192H43.6379ZM48.9372 46.5274L47.6627 43.4114H47.522L46.2475 46.5274H48.9394H48.9372Z" fill="black"/>
<path d="M65.6963 45.677C65.6963 47.7175 64.1383 49.2192 62.0134 49.2192H58.4712V42.1348H62.0134C64.1383 42.1348 65.6963 43.6213 65.6963 45.677ZM59.8885 47.9447H62.0134C63.2879 47.9447 64.2097 46.9948 64.2097 45.677C64.2097 44.3592 63.2879 43.4093 62.0134 43.4093H59.8885V47.9425V47.9447Z" fill="black"/>
<path d="M68.4031 49.2192V42.1348H69.8204V49.2192H68.4031Z" fill="black"/>
<path d="M80.8561 45.1101H80.9557L83.1649 42.1348H84.4394V49.2192H83.0221V44.2597H82.994C82.994 44.2597 82.8533 44.7141 82.598 45.0538L81.607 46.3846H80.1896L79.1986 45.0538C78.9433 44.7141 78.8026 44.2597 78.8026 44.2597H78.7745V49.2192H77.3572V42.1348H78.6317L80.8561 45.1101Z" fill="black"/>
<path d="M86.863 49.2192L89.7669 42.1348H91.8918L94.7957 49.2192H93.2659L92.6859 47.8019H88.9447L88.3647 49.2192H86.863ZM92.1623 46.5274L90.8878 43.4114H90.7471L89.4726 46.5274H92.1645H92.1623Z" fill="black"/>
<path d="M97.2192 42.1348H102.319C103.594 42.1348 104.444 42.9852 104.444 44.2597C104.444 45.3935 103.709 46.1855 102.588 46.3002C102.687 46.4127 102.787 46.5404 102.843 46.6399L104.444 49.2192H102.843L101.043 46.3153H98.6344V49.2192H97.217V42.1348H97.2192ZM102.319 45.0386C102.743 45.0386 103.027 44.7552 103.027 44.3311V44.119C103.027 43.6949 102.743 43.4114 102.319 43.4114H98.6365V45.0408H102.319V45.0386Z" fill="black"/>
<path d="M108.638 43.409V45.0384H112.747V46.3129H108.638V47.9422H114.164V49.2167H107.223V42.1323H114.164V43.4068H108.638V43.409Z" fill="black"/>
</g>
<defs>
<clipPath id="clip0_340_3708">
<rect width="115.326" height="49.3595" fill="white"/>
</clipPath>
</defs>
</svg>
