<svg width="173" height="32" viewBox="0 0 173 32" fill="none" xmlns="http://www.w3.org/2000/svg">
<g clip-path="url(#clip0_340_3729)">
<path d="M14.8376 0.0593262H5.54522C2.48644 0.0593262 0 2.54576 0 5.60454V20.3261H4.95398V5.60454C4.95398 5.27788 5.21855 5.01331 5.54522 5.01331H14.8376C15.1643 5.01331 15.4289 5.27788 15.4289 5.60454V20.3315H20.3829V5.60454C20.3829 2.54576 17.8964 0.0593262 14.8376 0.0593262Z" fill="black"/>
<path d="M14.8187 20.3315H5.55059C2.49451 20.3315 0.00537109 22.8207 0.00537109 25.8768V31.7999H4.95935V25.8768C4.95935 25.5501 5.22392 25.2855 5.55059 25.2855H14.8187C15.1454 25.2855 15.41 25.5501 15.41 25.8768V31.7999H20.3639V25.8768C20.3639 22.818 17.8775 20.3315 14.8187 20.3315Z" fill="black"/>
<path d="M71.7286 0.00537109H66.8259V31.8377H71.7286V0.00537109Z" fill="black"/>
<path d="M152.291 19.7269L152.278 26.2521V26.2575C152.278 29.3244 154.772 31.8216 157.842 31.8216H172.539V26.919H157.842C157.477 26.919 157.183 26.6247 157.183 26.2602L157.196 19.7377V19.7323C157.196 19.3679 157.493 19.0736 157.855 19.0736H172.539V14.1709H157.855C154.788 14.1709 152.294 16.6654 152.291 19.7323V19.7269Z" fill="black"/>
<path d="M157.842 0.0405273C154.775 0.0405273 152.278 2.53507 152.278 5.60464V14.1735H157.18V5.60464C157.18 5.24018 157.477 4.94591 157.839 4.94591H172.536V0.0405273H157.839H157.842Z" fill="black"/>
<path d="M141.805 0.01617L127.146 0.00537109V31.8377L141.805 31.8431C144.886 31.8431 147.394 29.3351 147.394 26.2547V5.60458C147.394 2.52421 144.886 0.01617 141.805 0.01617ZM142.44 26.2547C142.44 26.6057 142.153 26.8891 141.805 26.8891H132.097V4.97015H141.805C142.156 4.97015 142.44 5.25632 142.44 5.60458V26.2547Z" fill="black"/>
<path d="M117.227 0.00808498L117.251 26.2871C117.251 26.6138 116.987 26.8784 116.66 26.8784H107.389C107.063 26.8784 106.798 26.6138 106.798 26.2871V0.00538526H101.844V26.2844C101.844 29.3432 104.33 31.8296 107.389 31.8296H116.66C119.719 31.8296 122.205 29.3432 122.205 26.2817L122.178 0.00268555L117.224 0.00808498H117.227Z" fill="black"/>
<path d="M53.9862 4.75166C53.6461 2.08434 51.3621 0.0163574 48.6057 0.0163574H41.6809V4.91904H48.6057C48.8918 4.91904 49.124 5.15122 49.124 5.43739V31.8379H54.0267V5.43739C54.0267 5.26191 54.0186 5.08912 54.0024 4.91904H61.9261V0.0163574H53.9862V4.75166Z" fill="black"/>
<path d="M88.9691 4.75166C88.629 2.08434 86.345 0.0163574 83.5886 0.0163574H76.6638V4.91904H83.5886C83.8748 4.91904 84.1069 5.15122 84.1069 5.43739V31.8379H89.0096V5.43739C89.0096 5.26191 89.0015 5.08912 88.9853 4.91904H96.909V0.0163574H88.9691V4.75166Z" fill="black"/>
<path d="M31.1654 26.2979V0H26.2627V26.2979C26.2627 29.2811 28.6897 31.7082 31.6729 31.7082H41.7051V26.8055H31.6729C31.3949 26.8055 31.1681 26.5787 31.1681 26.3006L31.1654 26.2979Z" fill="black"/>
</g>
<defs>
<clipPath id="clip0_340_3729">
<rect width="172.539" height="31.8432" fill="white"/>
</clipPath>
</defs>
</svg>
