<svg width="247" height="58" viewBox="0 0 247 58" fill="none" xmlns="http://www.w3.org/2000/svg">
<g clip-path="url(#clip0_340_3741)">
<path fill-rule="evenodd" clip-rule="evenodd" d="M52.1841 22.9671C52.8782 22.3953 53.2649 22.0747 53.6516 21.7541C54.7885 22.4218 54.8447 22.749 53.9556 23.6083C53.0534 24.4742 52.1213 25.3038 51.2455 26.1962C50.7861 26.6622 50.4523 26.7085 50.0028 26.2061C48.8658 24.9402 47.3818 24.7618 45.8251 25.0625C43.8487 25.4426 43.0488 26.8935 42.7349 28.7047C41.35 28.9493 41.0559 28.6254 41.2509 27.3166C41.588 25.0625 42.91 23.519 44.751 22.3788C45.5706 21.8731 45.9177 21.2881 45.8747 20.3296C45.8053 18.7795 45.8681 17.2228 45.8053 15.6694C45.7921 15.3125 45.4946 14.6614 45.3459 14.668C44.6783 14.6911 44.4568 15.2365 44.5758 15.8215C44.7807 16.7998 44.2255 17.16 43.3694 17.4311C42.6489 16.0099 42.4275 14.516 43.105 13.0915C43.4058 12.4569 44.1825 11.9413 44.8633 11.624C45.4913 11.3332 45.8879 11.1249 45.835 10.3516C45.7359 8.90723 45.7822 7.44969 45.607 6.01528C45.5508 5.56248 45.0385 4.93782 44.6188 4.82544C44.1858 4.71307 43.4818 4.994 43.1315 5.34434C42.6787 5.79714 42.4407 6.47469 42.1499 7.07291C41.9053 7.57528 41.5682 8.02477 41.0096 7.7174C40.7617 7.58189 40.5965 6.99028 40.656 6.64986C40.9303 5.06341 41.2476 3.48358 42.3217 2.17476C44.2453 -0.175159 47.2959 0.234673 48.4527 3.044C48.8195 3.93307 49.0509 4.87502 49.3417 5.79384C49.431 5.80375 49.5202 5.81367 49.6095 5.82358C49.7053 5.47655 49.8639 5.12951 49.8805 4.77587C49.9168 3.86366 49.9234 2.95146 49.8838 2.04256C49.8606 1.43773 50.1383 1.13696 50.6935 1.12374C51.2587 1.11383 51.5429 1.42451 51.5165 2.02273C51.4867 2.64739 51.5099 3.27536 51.5099 4.14129C52.9806 3.05061 54.2994 2.1318 55.5421 1.12044C56.213 0.571792 56.5832 0.746962 56.9765 1.38154C57.4227 2.09213 57.9614 2.74985 58.3481 3.49019C59.4057 5.51951 59.3198 7.51909 57.9052 9.35673C57.1351 10.3582 56.2428 11.2671 55.3669 12.2619L55.3801 12.3743C57.459 14.3474 57.3434 17.1171 57.9879 19.6058C58.1895 20.3825 58.249 21.1956 58.4374 21.9756C58.6819 22.9869 59.2372 23.1687 59.9643 22.4614C60.3774 22.0615 60.6716 22.0681 61.0715 22.4449C61.521 22.8712 61.488 23.2183 61.0583 23.6314C60.1824 24.4742 59.3165 25.3335 58.477 26.2094C57.9812 26.7283 57.5681 26.5895 57.0823 26.1896C55.6379 25.0063 55.3107 23.3141 54.9703 21.6318C54.62 19.8934 54.3357 18.1384 53.9226 16.4131C53.7408 15.6529 53.3078 14.9556 52.9773 14.1954C51.9362 14.5226 51.5099 15.1109 51.5165 16.0231C51.5297 17.745 51.5165 19.4703 51.5991 21.189C51.6256 21.7277 51.9395 22.2499 52.1874 22.9605L52.1841 22.9671ZM51.4306 12.9659C52.5873 12.1264 53.4533 11.505 54.3093 10.8672C54.5506 10.6887 54.7687 10.4705 54.9769 10.2524C56.2163 8.94028 56.3915 7.1324 55.4264 5.6385C54.4415 4.11485 54.1606 4.05536 52.779 5.189C52.1775 5.68477 51.3975 6.03841 51.4206 7.03986C51.457 8.91384 51.4306 10.7878 51.4306 12.9626V12.9659ZM49.9499 7.73393C49.8375 7.71079 49.7218 7.68435 49.6061 7.65791C49.4938 7.94545 49.3021 8.22969 49.2789 8.52715C49.2327 9.19808 49.2657 9.87232 49.269 10.5466C49.269 13.8847 49.2756 17.2195 49.2823 20.5544C49.2856 21.374 49.2988 21.374 49.9466 21.4302V7.73393H49.9499Z" fill="black"/>
<path fill-rule="evenodd" clip-rule="evenodd" d="M4.66991 22.1143C3.88 21.5557 3.52966 20.9674 4.44186 20.1874C4.62364 20.0321 4.74924 19.7148 4.75585 19.4669C4.7889 17.9498 4.7889 16.4328 4.76245 14.9191C4.76245 14.7571 4.45178 14.4431 4.37576 14.4696C4.12127 14.5522 3.77093 14.7208 3.71144 14.929C3.60237 15.2992 3.64864 15.7255 3.685 16.1221C3.73788 16.7831 3.33466 17.117 2.79923 17.0905C2.49847 17.074 1.99609 16.6609 1.96965 16.3865C1.86389 15.3686 1.77135 14.3076 1.94652 13.3095C2.13491 12.2386 2.98432 11.6041 4.06839 11.4091C4.64017 11.3066 4.87813 11.0191 4.855 10.4473C4.83186 9.90856 4.94754 9.34999 4.84178 8.83109C4.56084 7.46609 4.97729 6.45473 6.16381 5.73753C6.39187 5.60202 6.59348 5.42024 6.98348 5.12609C5.55568 4.66668 4.40551 4.25354 3.2322 3.93956C2.44228 3.73134 1.61601 4.53117 1.77135 5.41693C1.88703 6.08126 2.18779 6.75219 2.56126 7.32067C2.89508 7.83296 3.01737 8.20974 2.50838 8.61957C1.96965 9.05915 1.66889 8.65592 1.34169 8.29567C-1.2462 5.45329 0.280751 2.29693 2.82567 0.839383C3.33466 0.548535 4.13449 0.608026 4.75915 0.723705C5.83991 0.918705 6.88102 1.34506 7.96178 1.55989C8.45094 1.65574 9.05246 1.60947 9.49535 1.40455C10.6587 0.862518 10.705 0.832772 11.5081 2.06227C10.586 2.77947 9.63747 3.47354 8.74509 4.23371C8.51704 4.42871 8.46085 4.82863 8.52365 5.18558C9.7928 4.01227 11.0124 2.77947 12.341 1.67557C14.182 0.145314 15.7982 0.251076 17.6887 1.7615C17.9927 2.00278 18.5976 1.86727 19.0636 1.90362C19.0966 1.81108 19.1264 1.72184 19.1594 1.6293C19.447 1.98625 19.7378 2.3432 20.0749 2.75634C18.8653 3.90651 17.7019 5.01702 16.5418 6.12092C15.7651 5.37066 15.071 4.59066 14.258 3.96269C13.868 3.66193 13.1409 3.40413 12.7773 3.576C12.3972 3.75447 12.0766 4.47168 12.07 4.95753C12.0237 8.33533 11.9742 11.7164 12.1229 15.0876C12.1989 16.7964 11.8519 18.1349 10.4208 19.1165C10.0969 19.338 9.78289 19.5726 9.28052 19.9329C11.1578 20.1213 12.6914 20.1081 14.1291 20.465C15.5668 20.822 16.9153 21.5491 18.4621 22.1771C18.971 21.6714 19.6783 21.3739 20.3228 22.6827C19.1264 23.9354 17.8837 25.2409 16.5715 26.6158C16.0857 26.2027 15.6593 25.8358 15.2264 25.4788C12.8368 23.5024 10.1134 22.805 7.11568 23.5817C5.09958 24.1039 3.77754 25.4425 3.48669 27.5743C3.34127 28.6451 2.57118 28.4303 1.8044 28.5922C1.74491 26.4902 2.34974 24.7253 3.70152 23.2082C4.02542 22.8447 4.32949 22.4646 4.64347 22.0911C5.85644 21.5094 7.0661 20.9277 8.32534 20.3196C8.13365 20.0321 7.96178 19.7676 7.74034 19.4305C6.6728 20.3593 5.67136 21.2351 4.66661 22.111L4.66991 22.1143ZM8.28238 18.6109C8.8806 18.092 8.99297 6.8844 8.28238 5.82346V18.6109Z" fill="black"/>
<path fill-rule="evenodd" clip-rule="evenodd" d="M181.149 0.542123C181.496 1.13704 181.797 1.61628 182.058 2.11535C182.735 3.39442 182.729 3.39772 184.008 2.74001C184.55 3.26882 184.761 3.98603 184.021 4.31984C181.714 5.35764 181.433 7.43985 181.073 9.52867C180.398 13.3923 179.718 17.256 179.027 21.1163C178.858 22.0649 178.964 22.8052 180.141 22.7193C180.203 23.8926 179.873 24.3619 178.7 24.1801C177.031 23.9223 175.98 25.0031 175.196 26.2723C174.704 27.0688 174.294 27.277 173.454 26.7548C172.78 26.3351 172.007 26.031 171.24 25.8129C168.87 25.1386 167.056 26.2789 166.53 28.7048C166.467 28.9957 166.411 29.2898 166.352 29.5774C165.165 29.5476 164.56 29.0353 164.63 27.9579C164.789 25.5484 165.952 23.7439 168.18 22.749C169.105 22.3359 169.551 21.9161 169.333 20.7858C169.042 19.2721 169.029 17.7088 168.854 16.1752C168.814 15.8017 168.619 15.4415 168.494 15.0779C168.365 15.0482 168.232 15.0184 168.1 14.992C167.892 15.4811 167.393 16.0727 167.525 16.4396C167.899 17.4873 167.307 17.6724 166.593 17.8839C165.433 16.5652 165.255 14.3838 166.233 13.0155C166.454 12.7049 166.811 12.3413 167.148 12.2917C168.305 12.1232 168.507 11.5183 168.282 10.4772C168.008 9.20477 167.882 7.89926 167.647 6.61688C167.509 5.8501 167.01 5.48984 166.213 5.47993C165.41 5.47001 164.98 5.83357 164.775 6.59705C164.603 7.23824 164.339 7.85629 164.104 8.5107C163.172 8.44129 162.591 8.0546 162.809 7.11926C163.133 5.73442 163.387 4.27357 164.025 3.03086C165.007 1.12051 167.211 0.875938 168.936 2.2178C170.45 3.39772 171.144 4.95773 171.3 6.8251C171.699 11.5844 172.083 16.3504 172.559 21.1031C172.605 21.5691 173.167 22.1244 173.63 22.3623C173.927 22.5144 174.727 22.2962 174.882 22.012C175.352 21.1626 175.761 20.2272 175.937 19.2754C176.925 13.8352 177.86 8.38511 178.756 2.9284C178.99 1.5039 180.309 1.40475 181.139 0.538818L181.149 0.542123Z" fill="black"/>
<path fill-rule="evenodd" clip-rule="evenodd" d="M92.1292 22.4018C92.5787 22.1242 92.863 21.9457 93.1472 21.7706C94.2346 22.7224 94.218 23.0463 93.1009 23.9552C92.3408 24.5733 91.5971 25.2045 90.8634 25.849C90.3048 26.3382 89.8652 26.3448 89.5116 25.6243C89.1282 24.8443 88.7283 24.0709 88.3052 23.238C87.4029 24.0577 86.4973 24.8145 85.6711 25.6474C85.1125 26.2093 84.5738 26.2853 83.8566 26.0143C82.4255 25.4723 81.5761 24.4345 81.12 22.8745C80.026 23.8891 78.9981 24.798 78.0264 25.7598C77.4645 26.3151 77.0183 26.3778 76.5656 25.6805C76.5127 25.5978 76.4367 25.5251 76.3706 25.4491C75.65 24.6317 74.859 24.5193 73.9975 25.112C72.7283 24.332 72.6655 23.9717 73.7992 23.1025C74.7147 22.3985 75.0584 21.5524 75.0485 20.4089C75.0055 15.5471 75.0419 10.682 75.0188 5.82018C75.0155 4.71297 74.8932 3.60576 74.8271 2.49856C74.794 1.92347 74.4966 1.12364 75.4088 1.08728C75.8252 1.07076 76.2681 1.6194 76.7936 1.97635C77.1043 1.58635 77.5604 0.918725 78.1123 0.346944C78.3305 0.118893 78.8163 -0.0661922 79.084 0.0197402C79.6062 0.184995 79.7748 0.693979 79.4476 1.16661C78.3404 2.7828 78.4561 4.60721 78.4627 6.42831C78.4792 11.224 78.4561 16.0197 78.4825 20.8121C78.4825 21.3111 78.6841 21.8069 78.7899 22.306C79.2228 22.1011 79.6558 21.8961 80.2111 21.6317C80.3829 21.7639 80.6639 21.9854 81.0539 22.2894C81.1563 21.8961 81.2522 21.5392 81.348 21.1822C81.7612 19.6388 82.8882 18.6109 83.9657 17.54C84.9869 16.5254 84.9307 16.5452 84.0582 15.4281C83.3079 14.4663 82.2867 13.6334 82.3131 12.2287C82.3329 11.0323 82.9708 10.1565 83.9657 10.0243C84.9638 9.89205 85.7835 10.5498 86.0908 11.7462C86.1701 12.0602 86.223 12.3841 86.3651 13.0649C87.5451 11.9412 88.5465 10.9926 89.624 9.97137C90.2453 10.6258 90.9063 11.3198 91.5938 12.0437C91.8615 11.8156 92.0697 11.6504 92.2647 11.4719C92.6547 11.1149 93.0018 11.0554 93.3686 11.5248C93.7289 11.9875 93.8974 12.47 93.3124 12.8071C91.9706 13.5739 91.7227 14.7505 91.7921 16.1618C91.8648 17.6788 91.7921 19.1992 91.8351 20.7162C91.8516 21.255 92.0169 21.7871 92.1292 22.4018ZM85.9487 17.7813C85.3802 18.5018 84.6795 19.11 84.3722 19.8734C84.154 20.4155 84.2862 21.2715 84.587 21.8036C84.8514 22.2729 85.8429 22.8811 86.0446 22.7422C86.9204 22.1374 88.1466 21.3706 88.2887 20.5047C88.6126 18.5382 88.3846 16.4791 88.3581 14.4564C88.3581 14.2548 88.1962 14.0532 88.0937 13.8152C87.3435 14.2052 86.6692 14.5555 85.9157 14.9455C86.699 15.9205 87.4327 16.8327 88.1598 17.7383C87.4944 18.5294 86.7573 18.5415 85.9487 17.7747V17.7813Z" fill="black"/>
<path fill-rule="evenodd" clip-rule="evenodd" d="M127.104 12.7741C129.239 12.7146 131.096 12.8071 132.881 11.8057C131.305 9.88212 129.788 8.00152 128.241 6.14406C127.286 5.0005 127.262 5.00711 128.373 3.97923C129.183 3.22897 130.012 2.50185 130.848 1.74829C131.529 2.29363 131.956 2.76295 131.258 3.54296C131.106 3.71152 131.09 4.21719 131.225 4.38906C133.38 7.01991 135.571 9.62102 137.799 12.2783C138.017 12.1131 138.179 11.8982 138.377 11.8619C138.725 11.7925 139.362 11.733 139.399 11.8387C139.534 12.2254 139.657 12.9261 139.462 13.0748C138.05 14.1325 138.272 15.6065 138.288 17.0476C138.305 18.3299 138.288 19.6123 138.295 20.8947C138.295 21.5028 138.11 22.1804 138.999 22.4448C139.161 22.491 139.253 23.0364 139.227 23.3338C139.214 23.4925 138.89 23.7139 138.678 23.7536C137.492 23.9783 136.256 24.0279 135.119 24.3948C134.064 24.7352 133.043 25.3037 132.134 25.9515C131.467 26.4274 130.994 26.5233 130.356 26.0143C129.755 25.5284 129.107 25.0988 128.449 24.6195C128.287 24.7517 128.155 24.95 127.986 24.9831C127.649 25.0492 127.044 25.1351 126.988 25.0161C126.839 24.679 126.747 23.9949 126.919 23.8825C128.518 22.8348 128.29 21.2417 128.287 19.7049C128.287 18.2539 128.33 16.803 128.267 15.352C128.254 15.0182 127.861 14.7109 127.699 14.3671C127.494 13.9242 127.345 13.4549 127.091 12.7807L127.104 12.7741ZM134.99 18.1779H135.023V14.7373C135.01 14.0598 134.742 13.5442 134.031 13.4252C133.324 13.3062 131.721 14.1424 131.708 14.6448C131.645 16.9319 131.586 19.2223 131.609 21.5127C131.615 22.3093 132.643 22.9802 133.532 22.9438C134.517 22.9075 134.957 22.4646 134.98 21.4103C135.006 20.3328 134.986 19.2521 134.986 18.1746L134.99 18.1779Z" fill="black"/>
<path fill-rule="evenodd" clip-rule="evenodd" d="M199.277 14.1523C200.348 13.2004 201.584 12.1626 202.741 11.0422C203.299 10.5001 203.679 10.5167 204.122 11.105C204.284 11.3198 204.473 11.5181 204.648 11.7197C205.051 12.1824 205.464 12.4105 206.006 11.8817C206.476 11.4256 206.899 11.5743 207.285 12.0535C207.692 12.5592 207.503 12.9228 207.044 13.2103C205.818 13.9804 205.464 15.0942 205.534 16.4956C205.616 18.1779 205.54 19.8701 205.563 21.559C205.57 21.9721 205.692 22.3885 205.712 22.5174C206.34 22.5935 206.882 22.5108 207.209 22.7323C207.731 23.0892 207.722 23.6114 207.173 24.0741C206.115 24.9632 205.084 25.882 203.964 26.8603C202.678 25.9812 202.166 24.7054 202.133 23.2578C202.073 20.693 202.119 18.125 202.11 15.5602C202.11 15.2099 202.03 14.8596 201.987 14.4927C200.348 14.9124 198.904 16.7005 198.9 18.1977C198.894 19.4801 198.871 20.7624 198.877 22.0448C198.877 22.3952 198.976 22.7455 199.049 23.238C199.522 22.9769 199.859 22.7885 200.196 22.6001C201.191 23.4297 201.22 23.737 200.321 24.5897C199.637 25.2408 198.92 25.8556 198.219 26.4902C197.796 26.8769 197.426 26.9033 197.023 26.4274C196.593 25.9151 196.104 25.4524 195.618 24.9434C195.275 25.1516 195.004 25.4259 194.706 25.4623C194.399 25.4986 193.926 25.4028 193.774 25.1913C193.625 24.9797 193.695 24.5038 193.83 24.2229C193.969 23.9419 194.395 23.8064 194.541 23.5255C194.885 22.8678 195.351 22.1737 195.384 21.4763C195.489 19.1661 195.427 16.8459 195.427 14.3307C194.633 14.7373 194.105 15.5536 193.606 14.6018C193.447 14.301 193.47 13.6763 193.678 13.4582C194.564 12.5361 195.529 11.6834 196.524 10.8769C196.716 10.7249 197.383 10.7877 197.492 10.9628C198.12 11.9478 198.646 13.0021 199.277 14.1523Z" fill="black"/>
<path fill-rule="evenodd" clip-rule="evenodd" d="M224.455 17.6227C225.48 17.6227 226.22 17.6393 226.96 17.6194C227.605 17.5996 227.883 17.8673 227.856 18.5217C227.81 19.5992 227.764 20.6832 227.797 21.7607C227.81 22.0912 228.114 22.4019 228.243 22.7357C228.395 23.1323 228.577 23.5421 228.587 23.9487C228.59 24.0809 228.097 24.3321 227.823 24.3453C225.982 24.4246 224.492 25.2641 223.084 26.3581C222.783 26.5894 222.118 26.7811 221.887 26.6159C220.274 25.4822 218.797 25.3071 217.498 26.9794C216.703 26.4616 216.545 25.8623 217.025 25.1815C218.215 23.486 219.408 21.7904 220.74 19.8933C219.772 19.8933 219.045 19.8933 218.318 19.8933C217.26 19.8933 217.105 19.7082 217.184 18.6275C217.24 17.8871 217.3 17.1468 217.303 16.4065C217.303 15.8215 217.551 15.1439 216.675 14.8266C216.51 14.7671 216.477 14.0764 216.549 13.7128C216.586 13.5244 216.972 13.2831 217.214 13.2699C219.061 13.1741 220.532 12.3214 221.904 11.158C222.135 10.963 222.667 10.9993 223.014 11.0886C223.751 11.2736 224.445 11.7165 225.179 11.7694C225.698 11.8058 226.389 11.5182 226.756 11.1381C227.341 10.5267 227.704 10.92 228.137 11.2009C228.712 11.5744 228.352 11.9314 228.091 12.2916C227.136 13.6335 226.18 14.982 225.235 16.3337C224.994 16.6808 224.792 17.0543 224.452 17.6194L224.455 17.6227ZM220.635 14.2185C220.635 14.9952 220.615 15.8248 220.641 16.6543C220.671 17.6525 221.408 18.1317 222.168 17.4971C223.041 16.7667 223.682 15.762 224.452 14.8464C223.084 14.6217 221.976 14.4399 220.638 14.2185H220.635ZM220.492 22.8811C221.824 23.0001 222.968 23.1026 224.161 23.2116V19.8999C221.838 19.7942 221.662 21.9028 220.492 22.8811Z" fill="black"/>
<path fill-rule="evenodd" clip-rule="evenodd" d="M104.087 26.4705C103.717 26.1565 103.39 25.8756 102.977 25.5286C104.361 23.4893 105.723 21.4798 107.234 19.2555C106.179 19.2555 105.383 19.2621 104.583 19.2555C104.018 19.2489 103.747 19.0208 103.77 18.3896C103.816 17.0774 103.783 15.762 103.565 14.5424C103.32 14.1888 102.901 13.8517 102.864 13.4749C102.788 12.7279 103.509 12.7081 104.004 12.6354C105.518 12.4139 106.85 11.8124 107.941 10.7581C108.43 10.2855 108.853 10.1764 109.438 10.5466C110.786 11.4059 112.109 11.5447 113.431 10.421C113.602 10.2756 114.184 10.4111 114.415 10.6061C114.581 10.7449 114.614 11.2902 114.475 11.5051C113.328 13.2832 112.125 15.025 110.829 16.9452C111.728 16.9452 112.459 16.9585 113.189 16.9386C113.85 16.9221 114.184 17.1535 114.158 17.8839C114.118 19.0307 114.115 20.1809 114.171 21.3278C114.184 21.6054 114.518 21.8599 114.673 22.1441C114.845 22.4548 115.123 22.7985 115.09 23.0993C115.063 23.3406 114.653 23.7108 114.392 23.7306C112.505 23.876 110.899 24.5866 109.491 25.8525C109.236 26.0805 108.675 25.978 108.258 26.0177L108.086 25.9186C106.126 24.7882 105.703 24.8378 104.087 26.4804V26.4705ZM110.704 22.6069C110.704 21.8434 110.744 20.9841 110.681 20.1313C110.658 19.8207 110.453 19.348 110.221 19.272C109.907 19.1663 109.332 19.2357 109.144 19.4604C108.374 20.3726 107.713 21.3741 107.072 22.2598C108.324 22.3788 109.464 22.4879 110.704 22.6069ZM110.724 14.2648C109.504 14.0566 108.387 13.8682 107.204 13.6666C107.204 14.4334 107.161 15.2101 107.224 15.9768C107.25 16.3107 107.445 16.8593 107.657 16.9056C108.047 16.9948 108.665 16.9386 108.906 16.6808C109.6 15.9306 110.149 15.0514 110.724 14.2648Z" fill="black"/>
<path fill-rule="evenodd" clip-rule="evenodd" d="M90.8403 56.5996C87.4394 56.5996 84.1012 56.593 80.7598 56.6062C79.9335 56.6095 79.9633 56.0576 79.9633 55.5023C79.9699 52.7987 79.9831 50.0985 79.993 47.3982C79.9996 44.9987 80.0327 42.6025 80.0029 40.203C79.993 39.4528 80.2343 39.1983 80.9878 39.2049C84.0285 39.2346 87.0692 39.228 90.1066 39.2016C90.7874 39.195 91.0981 39.3735 91.075 40.1072C91.0518 40.8211 90.999 41.383 90.0669 41.373C88.0409 41.3499 86.0116 41.4127 83.9889 41.3499C83.0667 41.3202 82.8023 41.687 82.842 42.5232C82.8817 43.333 82.8817 44.146 82.842 44.9558C82.8089 45.6498 83.0436 45.9076 83.7674 45.8911C85.886 45.8514 88.0079 45.8911 90.1264 45.8713C90.8436 45.8647 91.0816 46.2282 91.0816 46.8694C91.0816 47.5271 91.1312 48.2344 90.1892 48.2443C88.3979 48.2575 86.6098 48.2377 84.8184 48.2344C84.4218 48.2344 84.0186 48.2741 83.6253 48.2443C82.9676 48.1947 82.799 48.5947 82.7957 49.1169C82.7825 50.6009 82.7957 52.0881 82.7957 53.5754C82.7957 54.362 83.308 54.5108 83.9492 54.5042C85.6712 54.4843 87.3964 54.4645 89.1184 54.4612C91.0618 54.4546 91.1113 54.5207 90.8403 56.6062V56.5996Z" fill="black"/>
<path fill-rule="evenodd" clip-rule="evenodd" d="M62.7504 25.2806C61.5903 24.2164 61.5771 23.8958 62.6413 23.0365C63.3849 22.4349 63.7155 21.7078 63.6857 20.7559C63.6262 18.8026 63.6097 16.846 63.5667 14.8894C63.5667 14.6977 63.4775 14.506 63.418 14.2846C63.1668 14.2614 62.8694 14.3209 62.7173 14.2019C62.4 13.9508 61.9803 13.6236 61.9373 13.2864C61.9076 13.0452 62.3802 12.5758 62.7041 12.4866C63.3089 12.3213 64.0294 12.5064 64.5946 12.285C65.9497 11.7463 67.2817 11.1216 68.5409 10.3912C69.1523 10.0375 69.4531 9.91854 69.9158 10.563C70.9734 12.0404 72.0906 13.4781 73.2341 14.8927C73.7266 15.5008 73.6241 15.8446 73.016 16.2643C71.1883 17.5236 69.3804 18.8159 67.5791 20.1148C66.7 20.7526 66.6438 21.9722 67.5295 22.5671C67.8534 22.782 68.4979 22.815 68.845 22.6365C69.615 22.2399 70.2959 21.6681 71.0032 21.1492C71.4593 20.8154 71.8559 20.7725 72.1996 21.2881C72.5202 21.7673 72.431 22.1606 71.9584 22.4977C70.3422 23.6479 68.7491 24.841 67.1032 25.9482C66.8388 26.1267 66.3 26.0176 65.9365 25.8954C65.6027 25.783 65.3316 25.4789 65.0375 25.2542C64.2839 24.6758 63.537 24.0247 62.7504 25.2839V25.2806ZM67.1098 18.3201C67.8468 17.8078 68.6004 17.3319 69.2911 16.7733C69.4663 16.6312 69.6051 16.1453 69.5027 15.9966C68.8648 15.091 68.1542 14.235 67.4667 13.3624C67.3478 13.4087 67.2288 13.4517 67.1098 13.498V18.3135V18.3201Z" fill="black"/>
<path fill-rule="evenodd" clip-rule="evenodd" d="M239.662 21.5394C240.604 22.8449 240.601 22.8812 239.325 23.7571C237.937 24.7056 236.529 25.6278 235.157 26.5995C234.605 26.9928 234.136 27.0027 233.614 26.5862C233.326 26.3582 232.969 26.2095 232.692 25.9682C231.958 25.3369 231.247 25.1221 230.504 26.0905C230.137 25.5947 229.826 25.1717 229.416 24.6164C231.869 23.5489 231.545 21.4204 231.528 19.401C231.518 18.2541 231.525 17.1072 231.538 15.9604C231.545 15.4382 231.472 15.0911 230.814 14.9821C230.48 14.9259 230.014 14.4698 229.972 14.1459C229.909 13.6534 230.193 13.27 230.89 13.2799C233.353 13.313 235.455 12.3314 237.451 10.6755C238.135 11.5646 238.813 12.4206 239.464 13.2965C240.045 14.0798 240.571 14.9061 241.176 15.6695C241.678 16.3041 241.553 16.6908 240.905 17.1238C239.17 18.2772 237.474 19.4968 235.749 20.6701C234.965 21.2023 234.559 21.8335 234.936 22.8019C235.303 23.7439 236.102 24.0182 236.945 23.4464C237.861 22.8217 238.76 22.1806 239.662 21.546V21.5394ZM237.973 17.1733C237.068 16.0529 236.297 15.1011 235.531 14.1492C235.395 14.2087 235.266 14.2715 235.134 14.331C234.671 15.8645 234.916 17.4278 235.005 19.2093C236.063 18.4822 236.935 17.8839 237.976 17.1733H237.973Z" fill="black"/>
<path fill-rule="evenodd" clip-rule="evenodd" d="M27.475 9.63745C28.926 11.5015 30.2976 13.2433 31.6427 15.0049C32.0691 15.5635 31.5866 15.8444 31.1966 16.1187C29.4052 17.378 27.6072 18.624 25.8324 19.8965C25.0127 20.4848 24.8938 21.7572 25.5845 22.3554C26.0869 22.7917 26.6355 22.9272 27.2305 22.4711C27.8981 21.9588 28.612 21.4994 29.2532 20.9607C29.825 20.4815 30.0827 20.8979 30.4 21.2482C30.7702 21.6515 30.7768 22.0282 30.3141 22.3554C28.6318 23.5288 26.9594 24.7219 25.2441 25.8456C25.026 25.9877 24.5335 25.8655 24.246 25.7134C23.7138 25.4358 23.2412 25.0392 22.7388 24.7021C22.2695 24.3881 21.8233 24.1204 21.354 24.7582C21.2615 24.8805 20.7062 24.8739 20.617 24.7483C20.3856 24.4211 20.2699 24.0014 20.1708 23.6048C20.1476 23.5023 20.3228 23.2908 20.4583 23.2115C21.8432 22.3918 21.8597 21.0598 21.8299 19.6816C21.8002 18.2307 21.7969 16.7798 21.8399 15.3288C21.863 14.5686 21.6647 14.0993 20.8252 14.063C20.2137 14.0365 19.9526 13.6234 20.1344 13.1012C20.2336 12.8103 20.6302 12.4269 20.9012 12.4203C23.3999 12.3608 25.5548 11.5048 27.4783 9.63745H27.475ZM25.1615 18.2604C25.6936 17.9134 26.0241 17.7085 26.3447 17.4837C28.3344 16.0923 28.103 16.4724 26.8603 14.6777C26.6521 14.377 26.4438 14.063 26.1827 13.8085C25.991 13.6234 25.7134 13.5242 25.4721 13.3854C25.3697 13.6168 25.1813 13.8448 25.1747 14.0795C25.1449 15.385 25.1615 16.6905 25.1615 18.2604Z" fill="black"/>
<path fill-rule="evenodd" clip-rule="evenodd" d="M145.579 26.6092C144.902 26.1663 144.251 25.7598 143.619 25.3169C143.087 24.9435 142.608 24.4609 142.02 25.2707C141.937 25.383 141.385 25.3566 141.322 25.2442C141.131 24.8906 141.012 24.4675 140.979 24.0643C140.965 23.8891 141.19 23.6148 141.375 23.509C142.585 22.8348 142.575 21.7144 142.552 20.5477C142.522 19.0306 142.539 17.5103 142.568 15.9966C142.588 15.0579 142.687 14.1193 141.283 14.4597C140.84 13.0319 140.979 12.8468 142.311 12.8105C144.297 12.7576 146.045 12.0238 147.566 10.7811C148.24 10.2292 148.64 10.3449 149.112 10.9993C150.289 12.6353 151.509 14.2416 152.788 15.9668C151.426 16.9055 150.111 17.8111 148.798 18.7266C148.081 19.2256 147.367 19.7313 146.657 20.2403C145.946 20.7493 145.708 21.8003 146.125 22.544C146.525 23.2612 147.242 23.4099 147.929 22.9207C148.643 22.4118 149.364 21.916 150.058 21.3872C150.514 21.0401 150.824 21.1162 151.132 21.5789C151.426 22.0218 151.585 22.3886 151.033 22.7687C149.212 24.0312 147.404 25.3169 145.573 26.6059L145.579 26.6092ZM145.966 18.8026C146.878 18.1548 147.539 17.659 148.233 17.2029C148.772 16.8493 148.726 16.4395 148.395 16.0131C147.923 15.4017 147.437 14.8001 146.918 14.2283C146.762 14.0565 146.488 13.9871 146.267 13.8714C146.168 14.1028 145.986 14.3341 145.979 14.5721C145.949 15.8809 145.966 17.1897 145.966 18.8059V18.8026Z" fill="black"/>
<path fill-rule="evenodd" clip-rule="evenodd" d="M183.902 15.0018C183.343 14.7738 182.781 14.711 182.527 14.397C182.038 13.7988 182.563 13.032 183.432 13.0221C185.227 12.999 186.866 12.49 188.357 11.4918C188.8 11.1944 189.339 10.6028 189.682 10.6986C190.135 10.8176 190.456 11.472 190.803 11.9215C191.662 13.0419 192.492 14.1921 193.361 15.3059C193.867 15.9504 193.943 16.3735 193.123 16.9056C191.378 18.0392 189.709 19.2985 188.013 20.5114C187.296 21.0237 187.098 21.8401 187.481 22.6465C187.822 23.3604 188.469 23.5852 189.134 23.1456C189.864 22.663 190.525 22.078 191.269 21.6186C191.487 21.4831 192.095 21.5393 192.158 21.6715C192.32 22.0285 192.29 22.478 192.307 22.8911C192.31 22.9539 192.171 23.0332 192.092 23.0927C190.608 24.1867 189.104 25.2575 187.64 26.3813C187.085 26.8076 186.645 26.8043 186.12 26.3747C185.677 26.0111 185.207 25.6707 184.712 25.3964C184.444 25.2476 184.054 25.1419 183.776 25.2212C182.686 25.5319 182.692 25.5616 182.127 24.5139L182.196 24.342C183.71 23.3208 184.064 21.883 183.928 20.1347C183.796 18.4259 183.898 16.7007 183.898 14.9985L183.902 15.0018ZM187.494 19.001C188.314 18.3367 189.002 17.8244 189.623 17.2394C189.772 17.0973 189.811 16.661 189.709 16.4594C189.375 15.8083 188.985 15.1803 188.555 14.592C188.354 14.321 188.003 14.159 187.498 13.779V19.001H187.494Z" fill="black"/>
<path fill-rule="evenodd" clip-rule="evenodd" d="M139.462 51.738H136.004C134.18 51.738 132.359 51.7843 130.538 51.7248C129.576 51.6951 129.546 52.2008 129.708 52.8651C130.039 54.2169 131.47 55.2844 132.868 55.41C134.583 55.5587 135.942 54.9308 137.115 53.7442C137.654 53.1989 138.972 53.3873 139.23 54.0979C139.323 54.3491 139.101 54.8019 138.893 55.063C137.997 56.1834 136.765 56.8081 135.406 57.1187C133.169 57.631 131.04 57.3997 129.08 56.0446C126.968 54.5837 126.516 52.4288 126.853 50.0888C127.18 47.8182 129.136 45.8748 131.331 45.6468C132.779 45.498 134.325 45.4352 135.714 45.7823C138.381 46.4466 139.756 48.7502 139.458 51.738H139.462ZM136.761 49.8475C136.444 47.6166 134.501 47.0085 131.936 47.4018C130.64 47.6001 129.698 48.6941 129.788 49.8475H136.761Z" fill="black"/>
<path fill-rule="evenodd" clip-rule="evenodd" d="M185.587 51.9593C184.305 51.9593 183.023 51.9494 181.74 51.9626C180.59 51.9758 180.316 52.4418 180.785 53.4928C181.899 55.9981 185.822 56.55 187.851 54.2233C188.261 53.7539 188.717 53.3639 189.316 53.7374C190.446 54.4414 190.707 54.5637 189.639 55.6544C188.549 56.7682 187.18 57.3532 185.601 57.4523C183.809 57.5647 182.058 57.5647 180.451 56.5732C178.012 55.0661 177.533 52.8979 177.956 50.4918C178.475 47.5569 180.355 45.9705 183.072 45.8746C184.355 45.8283 185.7 45.825 186.919 46.1588C189.583 46.8959 190.373 48.9483 190.601 51.2255C190.684 52.0518 190.063 52.0617 189.534 52.075C188.222 52.1047 186.903 52.0849 185.591 52.0849V51.9527L185.587 51.9593ZM187.815 50.1018C187.531 48.3799 185.667 47.2594 183.776 47.5305C181.856 47.8048 180.633 48.8789 180.798 50.1018H187.815Z" fill="black"/>
<path fill-rule="evenodd" clip-rule="evenodd" d="M154.348 51.5594C154.126 48.727 156.483 46.5522 158.879 45.9143C161.364 45.25 163.731 45.5276 165.985 46.9918C168.989 48.9418 169.181 52.9046 166.957 55.1686C163.777 58.4043 157.901 58.2027 155.379 54.7092C154.751 53.84 154.506 52.6931 154.083 51.6718C154.172 51.6355 154.258 51.5991 154.344 51.5594H154.348ZM161.335 47.6727C161.311 47.59 161.288 47.5107 161.265 47.4281C160.403 47.7288 159.451 47.8908 158.697 48.3634C157.253 49.2723 156.106 51.3281 157.471 53.4202C158.727 55.3438 161.708 56.0279 163.827 54.7786C166.015 53.4863 166.448 50.7761 164.699 48.9517C163.807 48.0197 162.696 47.4743 161.335 47.676V47.6727Z" fill="black"/>
<path fill-rule="evenodd" clip-rule="evenodd" d="M97.1895 46.3671C98.733 45.987 100.161 45.4483 101.622 45.3425C102.626 45.2665 103.714 45.6995 104.699 46.0795C105.77 46.4927 106.45 47.395 106.48 48.5584C106.543 51.1826 106.5 53.8102 106.5 56.5501H103.948C103.948 55.2875 103.978 54.0481 103.939 52.8153C103.902 51.6784 103.869 50.5315 103.691 49.4111C103.41 47.6561 102.005 46.8232 100.293 47.276C97.5795 47.9899 97.1796 48.4856 97.1168 51.3181C97.0838 52.6996 97.0606 54.0845 97.0838 55.466C97.1003 56.4311 96.6938 56.8013 95.7452 56.6525C95.4246 56.603 95.0908 56.6459 94.6215 56.6459C94.6215 56.094 94.6215 55.6643 94.6215 55.238C94.6116 52.5046 94.5851 49.7746 94.605 47.0413C94.605 46.529 94.3967 45.8284 95.2561 45.6862C96.6442 45.4582 96.8392 45.5375 97.1829 46.3704L97.1895 46.3671Z" fill="black"/>
<path fill-rule="evenodd" clip-rule="evenodd" d="M99.6185 11.9083C99.9986 11.6405 100.213 11.3761 100.438 11.3629C100.775 11.3431 101.212 11.4092 101.43 11.6207C101.582 11.7661 101.559 12.3941 101.4 12.5098C100.032 13.5145 99.8135 14.8729 99.9325 16.4461C100.038 17.8541 99.9358 19.2753 99.9656 20.6932C99.9755 21.2154 100.101 21.7376 100.197 22.4151C100.65 22.1045 100.964 21.8863 101.274 21.6748C102.448 22.7423 102.461 22.8118 101.387 23.833C100.653 24.5304 99.8829 25.1881 99.1558 25.8888C98.6964 26.335 98.3163 26.335 97.8734 25.8624C96.9513 24.8807 96.5316 23.7008 96.5184 22.3821C96.4919 19.9529 96.525 17.5269 96.4952 15.101C96.4886 14.6746 96.3002 14.2549 96.1713 13.7294C95.8243 13.931 95.6392 14.007 95.4905 14.1293C95.1434 14.4201 94.8724 14.9324 94.3634 14.3044C93.9404 13.7855 93.6396 13.3592 94.3502 12.7973C95.1699 12.1495 95.9334 11.4323 96.6836 10.7052C97.3876 10.0244 98.009 9.99791 98.6369 10.7779C98.9311 11.1448 99.255 11.4918 99.6152 11.905L99.6185 11.9083Z" fill="black"/>
<path fill-rule="evenodd" clip-rule="evenodd" d="M215.756 23.562C214.434 24.7452 213.208 25.8491 211.982 26.9497C210.6 26.1763 210.055 24.9534 210.035 23.4959C209.995 20.9014 210.035 18.3036 210.009 15.7091C210.005 15.2893 209.804 14.8663 209.668 14.3375C209.202 14.6151 208.928 14.8861 208.627 14.9324C208.333 14.9754 207.887 14.8828 207.725 14.6746C207.563 14.4697 207.53 13.9111 207.685 13.7525C208.647 12.7643 209.655 11.8157 210.713 10.9299C210.908 10.7713 211.489 10.8407 211.727 11.0192C212.256 11.4191 212.679 11.9578 213.175 12.4767C213.499 12.2652 213.76 11.9776 214.054 11.938C214.348 11.8983 214.778 12.0239 214.956 12.2354C215.118 12.4337 215.032 12.8436 215.042 13.1642L214.907 13.3063C213.449 14.1788 213.367 15.567 213.433 17.0609C213.499 18.6077 213.443 20.161 213.462 21.7111C213.466 22.0945 213.562 22.4812 213.628 22.9803C214.09 22.6894 214.428 22.4812 214.861 22.2102C215.141 22.6366 215.429 23.0662 215.76 23.562H215.756Z" fill="black"/>
<path fill-rule="evenodd" clip-rule="evenodd" d="M152.368 54.1935C152.831 56.0344 152.527 56.7549 150.94 57.0656C148.435 57.5581 145.936 57.7068 143.715 56.0245C141.911 54.6562 141.141 52.7954 141.504 50.6306C141.904 48.2476 143.319 46.41 145.735 45.9374C147.466 45.6002 149.324 45.8448 151.119 45.9308C151.525 45.9506 152.047 46.2877 152.275 46.638C152.497 46.9752 152.447 47.5172 152.404 47.9634C152.398 48.0295 151.79 48.0989 151.466 48.0691C149.757 47.9138 148.101 47.3189 146.339 48.1386C144.753 48.8756 144.105 50.3992 144.257 51.8997C144.429 53.6184 145.665 54.7884 147.367 55.142C149.145 55.5122 150.715 54.8975 152.365 54.1968L152.368 54.1935Z" fill="black"/>
<path fill-rule="evenodd" clip-rule="evenodd" d="M174.446 56.8344H171.802V49.5963C171.802 48.4549 171.222 47.8699 170.063 47.8413C169.902 47.8347 169.74 47.8182 169.594 47.8115C169.336 46.3705 169.693 46.0367 171.828 45.7789C171.828 44.8006 171.878 43.7992 171.815 42.8043C171.756 41.9351 172.179 41.7566 172.906 41.8095C173.607 41.8591 174.496 41.5583 174.456 42.7911C174.433 43.429 174.542 44.0801 174.463 44.7081C174.337 45.7062 174.836 46.0367 175.705 46.0995C176.003 46.1226 176.3 46.1788 176.651 46.2284V47.5405L176.498 47.6595C175.132 47.8115 174.449 48.5971 174.449 50.016V56.8344H174.446Z" fill="black"/>
<path fill-rule="evenodd" clip-rule="evenodd" d="M108.46 45.9738C110.836 45.3392 110.895 46.0498 110.882 42.9662C110.876 41.3764 111.044 41.2178 112.611 41.5218C112.898 41.578 113.295 41.8887 113.351 42.1465C113.5 42.8273 113.579 43.5478 113.533 44.2419C113.44 45.5805 113.569 45.7821 114.878 45.8317C115.076 45.8383 115.278 45.8647 115.466 45.8812C115.942 47.3785 115.84 47.4875 113.626 47.7354C113.569 48.251 113.473 48.7996 113.454 49.3516C113.381 51.4041 113.292 53.4598 113.285 55.5156C113.285 56.5402 112.72 56.603 111.923 56.6327C111.041 56.6625 110.727 56.3187 110.747 55.4627C110.803 53.1723 110.813 50.8785 110.856 48.5881C110.866 48.0163 110.786 47.7123 110.069 47.6065C108.47 47.3718 108.4 47.2231 108.46 45.9705V45.9738Z" fill="black"/>
<path fill-rule="evenodd" clip-rule="evenodd" d="M125.762 45.6962C125.501 47.4347 125.474 47.4611 123.878 47.405C121.849 47.3322 120.557 48.5089 120.51 50.5283C120.474 52.1478 120.51 53.7673 120.48 55.3835C120.457 56.6361 120.117 56.9203 118.904 56.9005C118.144 56.8906 117.82 56.5997 117.83 55.8098C117.86 53.0137 117.823 50.2143 117.863 47.4149C117.869 46.8398 117.708 46.0928 118.56 45.845C119.618 45.5376 119.869 45.6995 120.388 47.1372C121.898 45.6731 123.624 45.0154 125.765 45.6962H125.762Z" fill="black"/>
<path fill-rule="evenodd" clip-rule="evenodd" d="M97.9397 8.80459C97.5398 8.2956 97.2225 7.85933 96.8689 7.45281C96.5251 7.0595 96.1682 6.77857 95.56 7.08925C95.3717 7.18509 94.8461 6.94713 94.6974 6.71577C94.5553 6.49433 94.5718 5.96882 94.7404 5.78373C95.4906 4.97068 96.3268 4.23365 97.1233 3.46356C97.5761 3.02398 97.9992 3.06034 98.4223 3.50322C98.6305 3.72136 98.8684 3.91636 99.0601 4.15102C99.503 4.70297 99.9723 4.95416 100.518 4.30966C101.565 5.33424 101.579 5.47306 100.587 6.41831C99.8104 7.15535 98.9973 7.85272 97.9397 8.80459Z" fill="black"/>
<path fill-rule="evenodd" clip-rule="evenodd" d="M213.162 5.28801C213.72 5.28801 214.216 5.14258 214.523 5.32106C215.062 5.63174 215.155 6.17047 214.626 6.65301C213.806 7.40657 213.003 8.17996 212.137 8.87073C211.952 9.01615 211.47 8.95005 211.222 8.80793C210.855 8.5964 210.61 8.16013 210.243 7.9453C209.929 7.76683 209.5 7.79988 209.139 7.6842C208.802 7.57844 208.373 7.47598 208.197 7.22479C208.069 7.03971 208.178 6.51089 208.363 6.31589C209.067 5.59208 209.87 4.96411 210.59 4.25682C211.146 3.71148 211.608 3.73461 212.127 4.28987C212.494 4.68317 212.901 5.03682 213.162 5.28801Z" fill="black"/>
<path fill-rule="evenodd" clip-rule="evenodd" d="M157.157 44.2321C158.525 42.9828 158.588 40.8543 160.588 40.2825C162.035 39.8661 162.928 40.2164 163.747 41.479C164.346 42.4011 164.937 43.3265 165.529 44.2487C164.521 44.9659 164.147 44.9361 163.314 44.0768C162.71 43.4521 162.128 42.8076 161.513 42.1433C160.115 42.8803 159.613 45.1609 157.16 44.2354L157.157 44.2321Z" fill="black"/>
<path fill-rule="evenodd" clip-rule="evenodd" d="M197.985 40.2988C197.363 41.3994 196.775 42.4306 196.19 43.4684C195.747 44.255 195.324 45.0548 194.861 45.8282C194.594 46.2777 194.267 46.6313 193.629 46.3768C192.978 46.119 192.67 45.6497 192.902 45.0383C193.572 43.2899 194.296 41.558 195.093 39.8625C195.199 39.6378 195.863 39.5353 196.226 39.6047C196.768 39.7039 197.271 40.0046 197.985 40.2988Z" fill="black"/>
<path fill-rule="evenodd" clip-rule="evenodd" d="M49.3977 45.7324C48.5351 45.4911 47.6823 45.2532 46.6875 44.9722C47.7749 42.9462 48.7598 40.9863 49.8769 39.1057C50.3198 38.362 51.1262 38.8082 51.7013 39.066C51.8534 39.1354 51.8699 39.8361 51.741 40.16C51.0172 41.9811 50.2273 43.7758 49.3977 45.7324Z" fill="black"/>
<path fill-rule="evenodd" clip-rule="evenodd" d="M202.949 40.3155C201.782 42.3647 200.705 44.3114 199.538 46.1986C199.423 46.387 198.732 46.301 198.335 46.2118C197.75 46.0829 197.641 45.6136 197.846 45.1079C198.391 43.7528 198.966 42.4109 199.535 41.0658C199.575 40.9765 199.67 40.9137 199.71 40.8245C200.341 39.4132 200.447 39.357 201.865 39.8131C202.176 39.9123 202.463 40.0875 202.949 40.3155Z" fill="black"/>
<path fill-rule="evenodd" clip-rule="evenodd" d="M41.6638 44.9327C42.7512 42.9563 43.7725 41.0955 44.807 39.2414C45.2036 38.5275 45.7192 38.6101 46.4265 38.8811C47.3453 39.2314 46.8264 39.7735 46.6743 40.1635C46.0431 41.8028 45.3325 43.4124 44.6582 45.0352C44.4467 45.5475 44.1162 45.7623 43.5576 45.5607C42.966 45.3459 42.3645 45.1641 41.6671 44.9327H41.6638Z" fill="black"/>
<path fill-rule="evenodd" clip-rule="evenodd" d="M243.235 9.91849C241.728 9.91188 240.26 8.4312 240.264 6.92408C240.267 5.39713 241.705 3.9528 243.235 3.92636C244.778 3.89992 246.292 5.43018 246.256 6.97696C246.219 8.50392 244.755 9.92841 243.232 9.91849H243.235ZM240.826 6.92078C240.826 8.25273 241.933 9.36654 243.261 9.36654C244.59 9.36654 245.694 8.26595 245.694 6.92078C245.694 5.5756 244.64 4.50145 243.261 4.50145C241.89 4.50145 240.829 5.55247 240.829 6.92408L240.826 6.92078Z" fill="black"/>
<path fill-rule="evenodd" clip-rule="evenodd" d="M242.984 7.58175C242.851 7.95523 242.719 8.33201 242.587 8.70549C242.481 8.68235 242.376 8.65921 242.27 8.63608V5.13599C242.769 5.17895 243.38 5.06988 243.757 5.31777C244.084 5.5326 244.421 6.33243 244.273 6.56379C243.836 7.24133 244.015 7.71065 244.415 8.24938C244.474 8.3254 244.421 8.48735 244.421 8.60964C244.306 8.7121 244.19 8.81455 244.071 8.91701C243.813 8.36506 243.559 7.81642 243.301 7.26116C243.195 7.36692 243.089 7.47599 242.984 7.58175Z" fill="black"/>
<path d="M59.6304 39.0859V54.2067H64.8128V56.7054H56.9731V39.0859H59.6337H59.6304Z" fill="black"/>
<path d="M71.1353 40.1107L66.9808 43.8752L65.5762 43.0092L68.7127 38.8547L71.132 40.1107H71.1353Z" fill="black"/>
</g>
<defs>
<clipPath id="clip0_340_3741">
<rect width="246.259" height="57.5053" fill="white"/>
</clipPath>
</defs>
</svg>
