<svg width="238" height="33" viewBox="0 0 238 33" fill="none" xmlns="http://www.w3.org/2000/svg">
<g clip-path="url(#clip0_340_3879)">
<path d="M77.8195 9.25986V29.499C77.8195 30.9345 77.9585 32.37 81.2012 32.37V32.9714H69.3908V32.37C72.6336 32.37 72.7726 30.9345 72.7726 29.499V20.1425H71.0137C65.9637 20.1425 63.3254 22.0404 60.4544 23.6633V29.499C60.4544 30.9345 60.5935 32.37 63.8815 32.37V32.9714H52.0711V32.37C55.3138 32.37 55.4528 30.9345 55.4528 29.499V27.045C55.4075 27.045 55.3592 27.0903 55.3138 27.1387C53.2769 28.6195 51.237 30.1487 48.8767 31.2608C46.4681 32.373 44.0141 32.9744 41.2822 32.9744H41.2368C30.9072 32.9744 27.2505 25.1924 27.2505 19.3567V19.2177C27.2505 13.4274 30.9103 5.64844 41.2368 5.64844C43.6001 5.64844 47.5349 6.24984 49.5265 7.36198V10.6047H49.2031C48.1393 8.38043 45.4527 6.57623 41.2368 6.57623C34.7514 6.57623 32.2521 12.1792 32.2521 19.2207V19.3598C32.2521 26.3983 34.706 32.0496 41.1462 32.0496C47.0755 32.0496 50.826 29.363 54.7638 26.3983C54.9965 26.2139 55.2262 26.0265 55.4589 25.8875V9.25986C55.4589 7.82436 55.3199 6.38885 52.0771 6.38885V5.78745H63.8876V6.38885C60.5995 6.38885 60.4605 7.82436 60.4605 9.25986V22.5995C63.1925 20.9313 66.5742 19.2177 71.0197 19.2177H72.7786V9.25986C72.7786 7.82436 72.6396 6.38885 69.3969 6.38885V5.78745H81.2073V6.38885C77.9646 6.38885 77.8255 7.82436 77.8255 9.25986H77.8195Z" fill="black"/>
<path d="M107.022 26.102L104.773 32.9682H82.3555V32.4635C82.703 32.4635 83.0536 32.4635 83.3256 32.4242C83.4434 32.4242 83.5583 32.385 83.6761 32.385C83.794 32.385 83.9088 32.3457 84.0237 32.3457C84.063 32.3064 84.1023 32.3064 84.2171 32.2671C84.2957 32.2671 84.4105 32.2278 84.5676 32.1885C85.7704 31.7624 85.846 30.9464 85.9639 30.0549V8.72786C85.846 7.79705 85.8097 7.02037 84.5676 6.59425L84.2171 6.47639C84.1778 6.4371 84.0992 6.4371 84.0237 6.4371C83.9058 6.39781 83.791 6.39781 83.6761 6.35853C83.5583 6.35853 83.4434 6.35852 83.3256 6.31924C83.0536 6.31924 82.706 6.27995 82.3555 6.27995V5.77526H103.066L105.314 12.6778H104.77C103.256 8.2957 100.582 6.54892 96.8193 6.54892H90.1888V18.4953L90.4215 18.1478C91.2737 17.1777 92.6699 16.673 94.6101 16.673H97.1306C98.4482 16.673 99.923 16.401 99.923 14.4608V13.53H100.428V21.6353H99.923V20.5866C99.923 18.2989 98.3334 17.4467 97.052 17.4467H94.6101C91.313 17.4467 90.3036 18.8822 90.1888 21.2485V32.1855H98.5268C102.289 32.1855 104.964 30.4417 106.478 26.0959H107.022V26.102ZM93.0205 3.80182H92.2831L94.5708 0H97.0913L93.0175 3.80182H93.0205Z" fill="black"/>
<path d="M116.33 5.77841V6.28311C113.656 6.28311 113.033 6.94193 113.227 7.9906C113.731 9.69809 115.439 14.195 117.028 18.2688C117.959 20.6351 118.969 23.2341 120.053 26.0266L126.648 8.72799C127.074 7.37107 127.267 6.28311 123.737 6.28311V5.77841H131.764V6.28311C128.857 6.28311 128.08 7.13534 127.576 8.53156L118.228 32.9653L108.92 8.6464C108.3 7.13232 107.757 6.28008 104.885 6.28008V5.77539H116.327L116.33 5.77841Z" fill="black"/>
<path d="M157.404 26.1021L155.155 32.9684H132.737V32.4637C133.085 32.4637 133.435 32.4637 133.707 32.4244C133.825 32.4244 133.94 32.3851 134.058 32.3851C134.176 32.3851 134.29 32.3458 134.405 32.3458C134.445 32.3065 134.484 32.3065 134.599 32.2672C134.677 32.2672 134.792 32.2279 134.949 32.1887C136.152 31.7625 136.228 30.9466 136.345 30.055V8.72799C136.228 7.79718 136.191 7.0205 134.949 6.59438L134.599 6.47652C134.559 6.43723 134.481 6.43723 134.405 6.43723C134.287 6.39795 134.173 6.39795 134.058 6.35866C133.94 6.35866 133.825 6.35866 133.707 6.31937C133.435 6.31937 133.088 6.28008 132.737 6.28008V5.77539H153.448L155.696 12.6779H155.152C153.638 8.29583 150.963 6.54905 147.201 6.54905H140.57V18.4955L140.803 18.1479C141.655 17.1778 143.052 16.6731 144.992 16.6731H147.512C148.83 16.6731 150.305 16.4011 150.305 14.4609V13.5301H150.809V21.6354H150.305V20.5868C150.305 18.299 148.715 17.4468 147.434 17.4468H144.992C141.695 17.4468 140.685 18.8823 140.57 21.2486V32.1856H148.908C152.671 32.1856 155.345 30.4419 156.86 26.0961H157.404V26.1021Z" fill="black"/>
<path d="M180.363 30.5627C181.176 31.5328 182.146 32.4636 184.164 32.4636V32.9683H178.93C177.223 32.9683 176.449 32.4636 175.633 31.4179L169.933 24.3976H165.433V30.061C165.551 31.3031 165.705 32.4666 169.042 32.4666V32.9713H157.6V32.4666C160.937 32.4666 161.091 31.3031 161.209 30.061V8.7279C161.091 7.44955 160.937 6.28301 157.6 6.28301V5.77832H173.463C175.944 5.77832 178.311 6.74842 180.057 8.49218C181.801 10.3145 182.771 12.6022 182.771 15.0864C182.771 17.5706 181.801 19.8583 180.057 21.6807C178.661 23.0376 177.032 23.8929 175.21 24.2404L180.369 30.5627H180.363ZM165.43 23.6209H171.674C175.823 23.6209 178.577 20.9463 178.577 15.0894C178.577 9.23259 175.823 6.55803 171.674 6.55803H165.43V23.6239V23.6209Z" fill="black"/>
<path d="M209.798 26.1021L207.55 32.9684H185.132V32.4637C185.479 32.4637 185.83 32.4637 186.102 32.4244C186.22 32.4244 186.335 32.3851 186.452 32.3851C186.57 32.3851 186.685 32.3458 186.8 32.3458C186.839 32.3065 186.879 32.3065 186.993 32.2672C187.072 32.2672 187.187 32.2279 187.344 32.1887C188.547 31.7625 188.622 30.9466 188.74 30.055V8.72799C188.622 7.79718 188.586 7.0205 187.344 6.59438L186.993 6.47652C186.954 6.43723 186.876 6.43723 186.8 6.43723C186.682 6.39795 186.567 6.39795 186.452 6.35866C186.335 6.35866 186.22 6.35866 186.102 6.31937C185.83 6.31937 185.482 6.28008 185.132 6.28008V5.77539H205.842L208.091 12.6779H207.547C206.033 8.29583 203.358 6.54905 199.596 6.54905H192.965V18.4955L193.198 18.1479C194.05 17.1778 195.446 16.6731 197.386 16.6731H199.907C201.225 16.6731 202.699 16.4011 202.699 14.4609V13.5301H203.204V21.6354H202.699V20.5868C202.699 18.299 201.11 17.4468 199.828 17.4468H197.386C194.089 17.4468 193.08 18.8823 192.965 21.2486V32.1856H201.303C205.066 32.1856 207.74 30.4419 209.254 26.0961H209.798V26.1021Z" fill="black"/>
<path d="M9.94879 6.50366L9.65263 6.79681L18.3533 15.434L7.97233 8.60403L7.74265 8.94855L18.0964 15.6123L6.04725 10.3992L5.88103 10.78L17.3016 15.7211L3.8955 12.2547L3.79275 12.6567L16.5854 15.9236L2.02482 14.2856L2.07619 14.6996L15.9175 16.256L0 16.2439V16.658L15.8872 16.6731L1.86767 18.302L1.91602 18.713L16.5944 17.0085L3.79275 20.2815L3.8955 20.6834L17.2593 17.2684L5.88103 22.1914L6.04725 22.5722L18.175 17.3258L7.74567 24.0198L7.96931 24.3704L18.3472 17.7066L9.65565 26.1716L9.94577 26.4708L20.1968 16.4857L9.94879 6.50366Z" fill="black"/>
<path d="M227.094 26.4708L227.39 26.1776L218.689 17.5404L229.07 24.3704L229.3 24.0228L218.946 17.3621L230.995 22.5753L231.161 22.1945L219.741 17.2533L233.147 20.7197L233.25 20.3177L220.457 17.0478L235.015 18.6888L234.966 18.2748L221.125 16.7154L237.042 16.7305V16.3134L221.155 16.3014L235.175 14.6724L235.126 14.2614L220.448 15.9659L233.25 12.6929L233.147 12.291L219.783 15.706L231.161 10.783L230.995 10.4022L218.867 15.6486L229.297 8.9546L229.073 8.60403L218.695 15.2678L227.387 6.80285L227.097 6.50366L216.846 16.4857L227.094 26.4708Z" fill="black"/>
</g>
<defs>
<clipPath id="clip0_340_3879">
<rect width="237.042" height="32.9743" fill="white"/>
</clipPath>
</defs>
</svg>
