<svg width="174" height="55" viewBox="0 0 174 55" fill="none" xmlns="http://www.w3.org/2000/svg">
<g clip-path="url(#clip0_340_3890)">
<path d="M1.07201 26.5897V30.0194C1.07201 32.0021 1.6079 33.5562 2.35814 35.3782C3.64426 38.0576 6.64522 39.3438 9.43182 39.3438C10.6644 39.3438 11.7897 39.183 12.7007 38.9686C11.5218 39.8797 9.75335 40.4155 7.28828 40.4155C4.82321 40.4155 2.19737 39.5045 1.17919 37.0931C0.428952 35.3782 0.000244141 34.0385 0.000244141 32.1629V26.8041L0.268187 26.6433C0.268187 26.6433 0.643306 26.6433 1.07201 26.5897ZM1.50072 2.63901H1.6079L1.50072 9.06962L1.6079 16.84L1.50072 19.3586C1.50072 20.3232 2.41173 20.8591 3.16196 20.8591L5.84139 20.8055V21.3414L5.35909 21.7701L1.01843 21.9309C0.750483 21.9309 0.428952 21.7701 0.428952 21.5022L0.536129 18.9835L0.428952 11.2132L0.589717 3.28207L1.50072 2.63901ZM7.34187 14.05C7.93134 13.0854 9.64617 12.0672 10.9323 11.9601C13.7189 11.9065 15.4337 12.8175 16.9878 15.5505C18.2739 18.3371 17.5773 25.7859 17.5773 28.3548C17.5773 33.5529 16.8806 38.2653 9.43182 38.2653C6.91316 38.2653 4.34091 37.3543 3.32273 34.9428C2.57249 33.228 2.14378 31.8883 2.14378 30.0127V24.6538L2.41173 24.4931C2.41173 24.4931 3.85861 24.3859 4.44809 24.3859H7.55622L7.71699 24.4931V31.7811C7.93134 32.4242 8.0921 33.7639 9.43182 33.7639C11.4146 33.4959 11.7361 33.0136 12.272 31.6739V20.5309C12.272 18.1194 11.2002 16.8333 9.86052 16.8333C8.68158 16.8333 7.98493 17.6907 7.98493 18.6017V19.1911L7.50263 19.6199L3.16196 19.7806C2.89402 19.7806 2.57249 19.6199 2.57249 19.3519L2.67967 16.8333L2.57249 9.06293L2.73326 1.13183L3.64426 0.488769L16.2342 0.381592C17.3596 0.381592 16.8237 0.863888 16.8237 1.98925V4.9902C16.8237 5.15097 16.5557 5.57967 16.395 5.57967H7.71364C7.55287 5.57967 7.28493 5.84762 7.28493 6.00838L7.33852 14.0467L7.34187 14.05ZM14.6835 6.65479V7.13709C14.6835 7.29786 14.4155 7.72656 14.2548 7.72656H8.36005V6.65479H14.6835ZM9.0567 19.5127V18.6017C9.0567 18.2266 9.37823 17.905 9.86052 17.905C10.6108 17.905 11.2002 18.816 11.2002 20.5309V31.406C10.9323 31.9419 10.6644 32.2634 10.1285 32.4777V22.6711C10.1285 21.1706 9.69976 20.0988 9.0567 19.5093V19.5127Z" fill="black"/>
<path d="M30.0031 39.4511C30.5926 39.4511 31.1285 39.3976 31.6643 39.2904C30.6998 40.0406 29.4672 40.5229 27.8596 40.5229H26.6806C25.8768 40.5229 24.805 40.255 24.2156 39.6119C22.8758 38.433 21.8577 37.0933 21.3754 35.2712C20.7859 32.4311 20.6251 29.8588 20.4644 26.8579V26.4291C20.4644 24.6071 20.6251 16.1435 20.6251 14.3751C20.7859 11.4813 21.0538 7.7837 22.7151 5.21146C21.9648 7.51576 21.8041 10.088 21.6969 12.2315C21.6969 13.089 21.6969 15.6076 21.6433 18.1799C21.5897 20.7521 21.5361 23.378 21.5361 24.289V24.7713C21.6969 27.933 21.9112 30.666 22.4471 33.399C22.983 35.4354 24.1084 36.9358 25.6624 38.2755L25.5553 38.222C26.3591 39.0794 27.7524 39.4545 28.8242 39.4545H30.0031V39.4511ZM28.8242 38.3794C28.0203 38.3794 26.9486 38.1114 26.3591 37.4684C25.0194 36.2894 24.0012 34.9497 23.5189 33.1277C22.9294 30.2875 22.7687 27.7153 22.6079 24.7143V24.2856C22.6079 22.4636 22.7687 13.9966 22.7687 12.2315C23.0366 8.31959 23.3581 2.90715 27.2701 0.820552C27.7524 0.499021 28.1811 0.17749 28.8242 0.17749H30.4318C31.1821 0.17749 32.2538 0.17749 33.1648 0.338256C35.5763 0.981317 36.7553 3.82151 37.3983 5.91146C37.5591 6.1794 37.6663 7.0904 37.6663 7.25117V26.8076L37.3983 31.0411C37.0768 31.6306 37.0768 32.3808 36.7553 32.9703C35.2548 36.0248 33.7543 38.3827 30.0031 38.3827H28.8242V38.3794ZM30.271 33.5564C31.6643 33.5564 32.0931 32.1095 32.0931 31.0378C32.0931 30.3947 32.2538 27.5545 32.2538 26.965C32.2538 25.3038 32.4146 17.3191 32.4146 15.554V6.92629C32.4146 6.01528 31.6643 4.9971 30.5926 4.9971H30.4318C30.1639 4.9971 29.4136 5.31863 29.4136 5.31863C29.2529 5.31863 28.6634 6.01529 28.5026 6.17605C28.5026 6.17605 28.3419 6.49758 28.3419 6.65835C28.3419 7.56935 28.1811 11.3205 28.1811 12.2315V31.9488C28.3419 32.9669 29.4136 33.5564 30.271 33.5564ZM29.4136 7.46217V6.76552L29.5208 6.65835C29.628 6.55117 29.628 6.3904 29.5744 6.3904C29.5744 6.3904 30.3246 6.06887 30.4318 6.06887C31.0213 6.06887 31.3428 6.49758 31.3428 6.92629V15.554C31.3428 16.4114 31.2892 19.1445 31.2356 21.3952C31.1821 23.8067 31.1821 26.1646 31.1821 26.9684C31.1821 27.2363 31.1821 28.0401 31.1285 28.8976C31.0749 29.755 31.0213 30.7196 31.0213 31.0411C31.0213 31.6306 30.8605 32.488 30.271 32.488H29.9495C30.0031 31.3626 30.1103 29.5942 30.1103 29.1119C30.1103 27.4507 30.271 19.4693 30.271 17.7009V9.07318C30.271 8.4837 29.9495 7.84064 29.4136 7.46552V7.46217Z" fill="black"/>
<path d="M52.5035 38.3792L53.093 38.9687H55.7724C55.7724 39.5046 55.7188 40.0941 55.2901 40.0941H50.7351C50.5743 40.0941 50.4136 39.6118 50.4136 39.451C50.4136 37.0395 51.0566 19.3051 50.9495 16.0898C50.9495 15.2324 51.003 14.375 51.003 13.6247C51.003 11.9099 51.1638 4.30033 51.1638 2.5855L51.3246 2.47832H51.5925C51.5925 6.2831 51.5925 10.1951 51.7533 13.9429C51.8605 21.0166 52.182 37.6257 52.182 37.6257L52.5035 38.3759V38.3792ZM52.8251 13.8927C52.6643 9.49841 52.6643 5.3721 52.6643 0.981195C52.6643 0.391722 52.8251 0.123779 53.2538 0.123779H53.5217C56.8978 0.284545 64.9327 0.391722 64.9327 0.391722L65.2006 0.713253V3.98215C65.2006 4.08933 65.0935 4.6788 65.0935 4.78598C64.3968 4.78598 61.3959 4.94674 60.6992 4.94674H58.3413C58.0198 4.94674 57.9126 5.21468 57.9126 5.48263C57.9126 5.80416 58.0198 7.19746 58.0198 7.4654V16.4147C58.1806 16.5754 58.3413 17.0042 58.6093 17.0042H63.1107L63.3786 17.2721L63.5394 20.541C63.5394 20.8089 63.1107 21.0769 62.8428 21.0769C61.5566 21.0769 60.2705 20.9697 59.1451 20.9697H58.3413C58.1806 21.0769 58.0198 21.2376 58.0198 21.3984V21.5056C58.0198 21.7735 58.1806 23.3276 58.1806 23.5955V37.9003H53.5184L53.2504 37.6324C53.2504 37.6324 52.9289 20.9697 52.8217 13.896L52.8251 13.8927ZM59.0413 7.03334V6.44387C58.9877 6.2831 58.9877 6.17593 58.9877 6.01516H60.7026C60.9705 6.01516 62.1495 6.01516 62.9533 5.96157C63.1676 5.96157 63.4892 5.90798 63.8107 5.90798V6.7654L63.5427 7.03334H59.0413ZM59.2557 23.3209C59.2021 23.1065 59.1485 22.8386 59.1485 22.4635C59.0949 22.3027 59.0949 22.1955 59.0949 22.0348H59.1485C59.6844 22.0348 60.1667 22.0884 60.7561 22.0884C60.9705 22.1419 61.2384 22.1419 61.56 22.1419V23.3209H59.2557Z" fill="black"/>
<path d="M68.0408 2.15676H68.2016C68.2016 4.88977 68.2552 8.80173 68.2552 13.5678C68.3088 20.963 68.3088 29.9625 68.3088 37.5185C68.4696 38.5366 69.3806 38.8582 70.1308 38.8582C70.238 38.8582 70.3452 38.8046 70.4523 38.8046H70.6667C70.7739 38.8046 71.3633 38.8582 72.06 38.9118C72.2743 38.9118 72.4887 38.9653 72.703 38.9653V39.8764C72.703 40.1443 71.5241 39.9835 71.5777 40.0371C71.3097 40.0371 68.7911 39.8764 68.5231 39.8764C68.3624 39.8764 68.2016 39.9299 67.9873 39.9299C67.6657 39.9299 67.2906 39.8228 67.237 39.5012C67.237 26.5898 67.1298 9.81991 67.1298 3.28212C67.0227 2.31752 67.2906 2.15676 68.0408 2.15676ZM74.8466 37.7328C74.8466 38.0008 73.6676 37.84 73.7212 37.8936C73.4533 37.8936 70.9346 37.7328 70.6667 37.7328C70.5059 37.7328 70.3452 37.7864 70.1308 37.7864C69.8093 37.7864 69.4341 37.6792 69.3806 37.3577C69.3806 24.4462 69.2734 7.67302 69.2734 1.13858C69.1662 0.173984 69.4341 0.0132182 70.1844 0.0132182C74.1499 -0.0403703 80.0983 0.0132182 81.17 0.709868C83.9566 2.58547 84.2246 6.06872 84.2246 9.12326C84.2246 11.0524 84.1174 15.1788 82.7241 16.84C82.2954 17.3759 80.9021 18.2333 80.9021 18.5548C80.9021 19.4122 81.2236 18.9835 81.9203 19.4122C82.7241 19.841 83.6887 20.6448 83.9566 22.4668C83.9566 22.574 84.2246 26.2716 84.2246 26.3788C84.2246 30.2907 84.2246 33.9347 84.6533 35.7567C84.7605 36.3462 85.082 36.9357 85.082 37.5787C85.0284 38.061 84.3853 37.9003 84.0638 37.9003H79.4552C78.8657 36.3998 78.9193 34.417 78.9193 32.863C78.9193 28.8974 78.6514 24.0242 78.6514 23.006C78.6514 20.5945 75.9719 20.3802 75.2753 20.3802C74.8466 20.3802 74.6858 20.541 74.6858 20.9161C74.6858 21.0768 74.8466 21.7735 74.8466 21.8807V37.7395V37.7328ZM75.704 16.7295C76.9901 16.7295 78.2227 16.3008 78.6514 14.9075C78.6514 12.1745 78.7585 10.8347 78.7585 6.76202C78.3834 5.20795 76.9901 4.77924 75.3825 4.77924C74.6322 4.77924 74.8466 6.76202 74.8466 7.08355C74.8466 8.42326 75.0073 15.0682 75.0073 16.4615C75.1145 16.7295 75.3825 16.7295 75.704 16.7295ZM75.9184 7.67302V6.76202C75.8648 6.49407 75.7576 5.95819 75.4896 5.85101C76.4542 5.85101 77.3652 6.11896 77.6868 6.81561C77.6868 9.06632 77.6868 10.406 77.6332 11.6922C77.6332 12.6568 77.5796 13.5142 77.5796 14.6931C77.3652 15.1754 76.9901 15.4434 76.5078 15.6041C76.5078 13.7285 76.615 12.1745 76.615 8.90556C76.4542 8.36967 76.2399 7.99455 75.9184 7.67302ZM75.9184 23.5319V21.8706C75.9184 21.817 75.9184 21.6563 75.8648 21.4955C76.615 21.6027 77.5796 21.9242 77.5796 22.996C77.5796 23.2639 77.5796 24.3357 77.6332 25.1931C77.6868 27.2295 77.8475 30.2304 77.8475 32.8563V33.2314C77.8475 34.839 77.8475 36.7146 78.705 38.9653H82.8313C82.8849 39.1797 82.9384 39.4476 82.9384 39.7156C82.8849 40.1979 82.2418 40.0371 81.9203 40.0371H77.3117C76.7222 38.5366 76.7758 36.5539 76.7758 34.9998C76.7758 31.0343 76.5078 26.1577 76.5078 25.1429C76.5078 24.4462 76.2399 23.9103 75.9184 23.5352V23.5319Z" fill="black"/>
<path d="M88.6692 38.4329L89.5266 39.2903H92.4204V40.0941L92.0988 40.3621H87.8118L87.5438 40.0941L87.3831 38.4865V32.163C87.3831 22.3564 87.5438 13.0353 87.5438 3.22862C87.5438 3.06785 87.8118 2.63914 87.9725 2.63914L88.6156 2.69273C88.6156 7.0334 88.562 11.3205 88.5084 15.5506C88.4548 20.32 88.4548 25.143 88.4548 30.0162V36.4468L88.6692 38.4295V38.4329ZM89.5266 36.3429V30.0195C89.5266 20.2162 89.6874 10.8918 89.6874 1.08508C89.6874 0.924313 89.9553 0.495605 90.1161 0.495605L94.4031 0.656371C94.6711 0.656371 94.8319 0.924313 94.9926 1.19226V14.6396C94.9926 19.3554 94.6711 24.1248 94.6711 28.8908C94.6711 31.6238 94.5639 37.9473 94.5639 37.9473L94.2424 38.2152H89.9553L89.6874 37.9473L89.5266 36.3396V36.3429Z" fill="black"/>
<path d="M97.8831 2.42467L98.151 2.2639H98.9548V35.8605C98.9548 36.8251 98.9548 39.1294 101.152 39.1294C101.902 39.1294 103.939 38.8079 105.118 38.3256C105.225 39.183 108.869 38.7543 109.726 39.0222C109.619 39.7189 109.405 40.3084 108.922 40.3084C108.279 40.3084 107.636 40.2012 106.886 40.2012C106.618 40.094 106.189 39.8261 106.189 39.9333C106.189 39.8797 105.868 39.9868 105.653 40.0404C103.349 40.2548 103.885 39.3438 102.974 39.3438C102.706 39.7725 99.9194 40.2012 99.0084 40.2012C97.8831 40.2012 97.8831 38.6471 97.8831 38.0041V2.42467ZM100.027 0.281127L100.295 0.120361C103.671 0.120361 109.083 0.17395 111.173 0.441892L111.495 0.709835V4.62179C111.387 4.67538 111.334 4.94332 111.173 5.0505H105.118C104.582 6.49739 104.796 8.3194 104.796 9.12323C104.796 10.8916 104.742 15.929 105.385 15.929H109.137C109.458 15.929 109.833 15.929 109.833 16.3041V19.9481C109.833 20.1089 109.726 20.2696 109.565 20.3768C108.279 20.3768 106.993 20.2696 105.761 20.2696C105.493 20.2696 104.957 20.3768 104.957 20.8055V32.1629C104.957 32.4309 104.957 33.2883 105.493 33.449C106.082 33.449 109.512 33.5562 111.602 33.5562L111.923 33.6634V34.628C111.923 35.0031 112.191 38.1648 111.066 38.1648C110.423 38.1648 109.78 38.0577 109.029 38.0577C108.762 37.9505 108.333 37.6825 108.333 37.7897C108.333 37.7361 108.011 37.8433 107.797 37.8969C105.493 38.1112 106.029 37.2002 105.118 37.2002C104.85 37.6289 102.063 38.0577 101.152 38.0577C100.027 38.0577 100.027 36.5036 100.027 35.8605V0.284476V0.281127ZM105.814 7.19404C105.814 6.81892 105.868 6.49739 105.921 6.12227H109.351V6.76533C109.244 6.81892 109.19 7.08686 109.029 7.19404H105.814ZM106.029 22.517V21.338C106.511 21.338 106.993 21.3916 107.529 21.3916C107.583 21.3916 107.636 21.4452 107.69 21.4452V22.0883C107.69 22.2491 107.583 22.4098 107.422 22.517H106.029Z" fill="black"/>
<path d="M115.028 37.3612L115.35 38.1114L115.993 38.7545H118.94C118.94 39.2368 118.351 39.8263 117.922 39.8263H114.278L114.117 39.6655L113.956 39.2368V36.9861C114.278 25.8966 114.278 14.5894 114.439 3.49998C114.439 3.17844 114.546 2.32103 115.028 2.32103H115.51C115.457 5.75069 115.403 9.18035 115.403 12.5564C115.35 20.0052 115.242 27.4507 115.028 34.8459V37.3645V37.3612ZM116.1 34.8425C116.421 23.7497 116.421 12.4459 116.582 1.35644C116.582 1.03491 116.689 0.17749 117.172 0.17749C118.779 0.17749 119.905 0.284667 121.512 0.284667C121.673 0.284667 122.423 3.23203 122.53 3.55356L123.87 9.07318C124.888 13.1995 126.067 17.4866 127.246 21.5559C127.407 21.8239 127.675 23.0028 127.675 23.2708C127.675 23.4315 127.836 24.021 127.836 24.1818C127.836 24.4497 127.996 24.7712 128.264 24.7712C128.425 24.7712 128.586 24.7713 128.586 24.6105V20.6449C128.586 20.0555 128.747 14.8038 128.747 14.2143V0.766963L129.015 0.445433H133.087C133.516 0.445433 133.677 0.766963 133.838 1.03491V2.37462C133.838 5.58993 133.677 8.64447 133.677 11.8598C133.516 19.6301 133.248 37.6861 133.248 37.6861L132.98 37.954H126.818C126.818 37.954 126.496 37.6861 126.389 37.5253C126.228 37.3645 126.067 36.9358 126.067 36.7751C125.317 33.6669 124.62 30.666 123.709 27.7186L123.602 27.3971C123.281 26.8076 121.941 20.4842 121.512 20.4842H121.352L121.244 20.6449C121.084 25.9502 121.084 31.3593 121.084 36.611C121.084 37.0932 120.494 37.6827 120.065 37.6827H116.421L116.261 37.522L116.1 37.0933V34.8425ZM122.102 31.7344C122.102 29.966 122.102 28.1976 122.155 26.3756C122.37 27.1258 122.53 27.7689 122.638 27.876C123.441 30.5019 124.138 33.2885 124.781 36.0215L124.728 35.9143C124.728 36.0751 124.942 36.6645 124.996 36.8253C125.049 37.2004 125.21 37.7363 125.478 38.1114C125.585 38.2722 126.442 38.9153 126.442 38.9153L131.105 38.9688V39.8263L130.837 40.0942H124.674C124.674 40.0942 124.352 39.8263 124.245 39.6655C124.085 39.5047 123.924 39.076 123.924 38.9153C123.334 36.5038 122.745 34.0923 122.102 31.7344ZM126.871 2.58562H127.675V14.211C127.675 14.5325 127.621 15.9258 127.568 17.3727C127.514 17.855 127.514 18.2837 127.514 18.7124C127.193 17.6406 126.871 16.5689 126.603 15.4971V2.90715L126.871 2.58562Z" fill="black"/>
<path d="M139.354 39.0758H140.318C141.39 39.0758 142.033 39.1294 142.944 38.9686L144.177 39.183L144.445 38.915C144.606 38.915 144.873 38.8614 145.463 38.8614C146.106 38.8078 146.642 38.8078 146.856 38.8078C147.231 38.8078 147.714 38.7542 148.196 38.6471C147.821 38.915 147.446 39.183 146.963 39.4509C146.374 39.7188 145.409 39.8796 144.713 39.8796C144.284 39.8796 142.248 39.9868 141.873 39.9868L141.712 40.1476L140.854 39.9868C139.89 40.1476 139.193 40.1476 138.175 40.1476H137.746C137.371 40.1476 137.21 39.9868 137.21 39.6117C136.514 32.6452 136.835 25.1997 136.782 17.6973C136.782 17.2686 136.621 14.9107 136.621 14.482V2.69256C136.782 2.53179 137.05 2.42461 137.21 2.42461H137.693V12.3385C137.693 12.5528 137.693 13.3567 137.746 14.0533C137.8 14.75 137.853 15.3394 137.853 15.5538V35.0031C137.853 35.0566 137.907 35.3782 137.907 35.5925C137.961 35.9677 137.961 36.2892 137.961 36.4499V36.6643C137.961 37.3074 137.8 38.2184 138.711 38.8614L139.354 39.0758ZM139.032 36.4499C139.032 36.1284 138.925 35.1102 138.925 35.0031V15.5538C138.925 15.1251 138.764 12.7672 138.764 12.3385V0.552366C138.925 0.391601 139.193 0.284424 139.354 0.284424H146.856C147.714 0.284424 148.839 0.391601 149.643 0.820309C150.072 0.981074 150.393 1.40978 150.661 1.67772C152.215 3.39256 152.697 5.64327 152.697 7.89399C152.697 9.34088 152.644 27.0217 152.644 30.9337C152.644 33.0772 152.429 35.5959 149.107 37.3107C148.517 37.5787 147.553 37.7394 146.856 37.7394C146.428 37.7394 144.391 37.8466 144.016 37.8466L143.855 38.0074L142.998 37.8466C142.033 38.0074 141.337 38.0074 140.318 38.0074H139.354C138.925 37.6858 139.032 36.882 139.032 36.4533V36.4499ZM142.944 31.5198C142.944 31.359 142.837 31.359 142.676 31.359C142.355 31.359 142.248 31.5198 142.248 31.6806C142.248 31.9485 142.248 32.1093 142.516 32.1093C142.837 32.1093 142.944 31.7878 142.944 31.5198ZM144.713 33.6098C146.32 33.6098 147.392 33.0203 147.714 31.4662C147.821 30.3409 147.821 12.6064 147.821 11.4811C147.821 9.76624 147.821 8.64088 147.714 6.76528C147.553 5.37198 146.16 4.83609 144.873 4.83609C144.552 4.83609 144.016 4.67533 143.855 5.2648C143.855 6.92605 143.695 31.0911 143.695 32.7523V32.9131C143.695 33.449 144.284 33.6098 144.713 33.6098ZM144.927 7.67628V5.90786C145.784 5.96145 146.535 6.2294 146.642 6.81887C146.749 8.69447 146.749 9.76624 146.749 11.4811C146.749 12.6064 146.749 30.2337 146.642 31.359V31.2519C146.481 31.8949 146.106 32.27 145.624 32.4308C145.677 28.3581 145.677 14.6428 145.677 13.6246C145.677 11.9098 145.677 10.7844 145.57 8.90882C145.517 8.37293 145.249 7.99782 144.927 7.67628Z" fill="black"/>
<path d="M156.442 4.88991C156.388 4.9435 156.388 4.99709 156.388 5.05068C156.388 5.10426 156.334 5.26503 156.334 5.47938C156.281 5.64015 156.281 5.74733 156.281 5.80092C156.013 7.08704 156.013 8.53393 156.013 9.92723C156.013 15.9291 160.782 20.8023 164.266 24.5535C165.552 25.9468 165.927 27.6617 165.927 29.698C165.927 30.609 165.82 31.8416 165.23 32.2703H164.855V31.8416C164.855 29.7516 164.48 27.876 163.247 26.322V23.5354L162.015 23.4282H160.622C157.781 20.2129 154.941 16.4081 154.941 12.0708C154.941 10.7311 154.941 9.49852 155.209 8.15881C155.209 8.05163 155.316 7.35498 155.316 7.2478C155.531 6.44398 155.906 5.64015 156.442 4.88991ZM166.623 38.9119L167.106 38.8047C166.356 39.4478 165.391 39.8229 164.319 39.9837H160.782C160.032 39.9837 159.121 39.5014 158.317 39.2334C155.745 38.1617 155.477 35.4822 155.209 32.91C155.209 32.5349 155.102 31.0344 155.102 30.7664V26.7473L155.209 26.6401H156.227L156.174 28.6229C156.174 28.7301 156.227 29.2124 156.227 29.6411C156.281 30.1234 156.281 30.6593 156.281 30.8736C156.549 33.7674 156.87 36.7684 160.086 38.1081C160.3 38.1081 160.514 38.2688 160.782 38.376C161.425 38.5904 162.068 38.9119 162.926 38.9119H166.623ZM162.926 37.8401C162.176 37.8401 161.265 37.3578 160.461 37.0899C157.889 36.0181 157.621 33.3387 157.353 30.7664C157.353 30.3913 157.245 28.8909 157.245 28.6229V24.6038L157.353 24.4966H162.015L162.176 24.6038V29.9626C162.176 30.2306 162.283 31.4631 162.283 31.731L162.926 32.642C163.355 33.1779 164.373 33.3387 165.069 33.3387H165.337C166.891 32.91 166.999 31.0344 166.999 29.6947C166.999 27.3904 166.57 25.4076 165.069 23.7999C161.693 20.1559 157.085 15.4401 157.085 9.92388C157.085 8.58417 157.085 7.35163 157.353 6.01192C157.353 5.90474 157.46 5.20809 157.46 5.10092C157.996 3.22532 159.282 1.4569 160.997 0.653072C162.015 0.277953 162.926 0.117188 163.998 0.117188C165.177 0.117188 166.195 0.117188 167.213 0.545895C167.374 0.545895 168.017 0.921015 168.124 1.08178C168.445 1.34972 169.196 2.15355 169.303 2.26073C170.75 4.02915 170.643 7.24445 170.643 9.38799V11.1028C170.643 11.21 170.535 11.5315 170.535 11.6387C170.535 11.7995 170.375 11.9602 170.375 11.9602H166.195C166.034 11.9602 165.927 11.5315 165.927 11.5315C165.927 9.92388 165.927 8.20905 165.82 6.60139C165.552 5.47603 165.337 4.99374 164.212 4.99374C161.961 4.99374 162.176 6.81575 162.176 8.69134C162.176 10.7277 162.551 12.1746 163.998 13.8358C166.731 16.7296 170.107 20.4272 171.5 24.4966C171.661 24.8717 172.089 26.1042 172.089 26.1042V31.731C172.089 31.731 171.929 32.1062 171.929 32.2669C171.125 35.2143 169.41 37.465 166.463 37.8401H162.926ZM163.247 7.61957C163.247 6.76216 163.408 6.06551 164.212 6.06551C164.534 6.06551 164.587 6.17269 164.748 6.70857C164.855 8.31622 164.855 9.97747 164.855 11.5851C164.855 11.5851 165.23 13.032 166.195 13.032H168.499V13.2464C168.499 13.3535 168.392 13.6751 168.392 13.7823C168.392 13.943 168.231 14.1038 168.231 14.1038H165.712L164.801 13.0856V13.1392C164.319 12.6569 163.998 12.1746 163.783 11.6387C163.783 10.6741 163.73 9.70953 163.676 8.74493C163.515 8.26264 163.408 7.88752 163.247 7.61957Z" fill="black"/>
<path d="M53.7225 48.5476C53.7225 49.6864 53.0392 50.4869 51.5455 50.4869H49.6732V53.7826H48.8459V46.5615H51.5254C52.845 46.5615 53.7192 47.1979 53.7192 48.5476H53.7225ZM52.9053 48.5275C52.9053 47.8242 52.4598 47.3319 51.3579 47.3319H49.6766V49.7165H51.3579C52.3191 49.7165 52.9053 49.3381 52.9053 48.5309V48.5275Z" fill="black"/>
<path d="M54.9417 53.7794V46.5583H55.7857V53.7794H54.9417Z" fill="black"/>
<path d="M56.9277 52.9821L60.9 47.3586H57.0249V46.5615H61.8411L61.8512 47.3586L57.8789 52.9821H62.2497V53.7792H56.9311V52.9821H56.9277Z" fill="black"/>
<path d="M63 52.9821L66.9722 47.3586H63.0971V46.5615H67.9134L67.9234 47.3586L63.9512 52.9821H68.322V53.7792H63.0033V52.9821H63Z" fill="black"/>
<path d="M74.6589 53.7794L73.8216 51.5957H70.6867L69.8426 53.7794H68.9316L71.7919 46.5583H72.713L75.5733 53.7794H74.6623H74.6589ZM73.5101 50.7684L72.2575 47.5765L71.0048 50.7684H73.5135H73.5101Z" fill="black"/>
<path d="M77.3584 52.8013V53.7793L76.8828 54.7573H76.3335L76.7053 53.7793H76.3335V52.8013H77.3584Z" fill="black"/>
<path d="M86.2039 48.5476C86.2039 49.6864 85.5207 50.4869 84.0269 50.4869H82.1547V53.7826H81.3274V46.5615H84.0068C85.3264 46.5615 86.2006 47.1979 86.2006 48.5476H86.2039ZM85.3867 48.5275C85.3867 47.8242 84.9413 47.3319 83.8394 47.3319H82.158V49.7165H83.8394C84.8006 49.7165 85.3867 49.3381 85.3867 48.5309V48.5275Z" fill="black"/>
<path d="M91.6396 53.7794L90.8023 51.5957H87.6674L86.8234 53.7794H85.9124L88.7726 46.5583H89.6937L92.554 53.7794H91.643H91.6396ZM90.4908 50.7684L89.2382 47.5765L87.9856 50.7684H90.4942H90.4908Z" fill="black"/>
<path d="M92.8389 51.4449H93.6929C94.0078 52.7745 94.9355 53.1262 96.1547 53.1262C97.1527 53.1262 97.7991 52.7645 97.7991 51.9874C97.7991 51.1401 97.059 50.8956 96.5633 50.7616C96.0877 50.6276 95.4982 50.5338 94.7882 50.286C93.9039 49.9812 93.2676 49.5726 93.2676 48.5477C93.2676 46.9501 94.6642 46.4109 95.813 46.4109C97.4575 46.4109 98.3417 47.4257 98.3685 48.8224H97.5312C97.4274 47.5028 96.4561 47.2281 95.6992 47.2281C95.2236 47.2281 94.1116 47.352 94.1116 48.4138C94.1116 48.9731 94.4063 49.241 95.0226 49.4688C95.535 49.6496 95.8097 49.6965 96.3422 49.8104C96.9317 49.9544 98.5661 50.2559 98.5661 51.8702C98.5661 53.3037 97.7221 53.93 95.9838 53.93C93.847 53.93 92.9427 52.7712 92.8389 51.4415V51.4449Z" fill="black"/>
<path d="M101.363 47.3586H99.1389V46.5615H104.401L104.411 47.3586H102.197V53.7792H101.359V47.3586H101.363Z" fill="black"/>
<path d="M109.883 53.7794L109.046 51.5957H105.911L105.067 53.7794H104.156L107.016 46.5583H107.937L110.798 53.7794H109.887H109.883ZM108.734 50.7684L107.482 47.5765L106.229 50.7684H108.738H108.734Z" fill="black"/>
<path d="M112.586 52.8013V53.7793L112.111 54.7573H111.561L111.933 53.7793H111.561V52.8013H112.586Z" fill="black"/>
<path d="M120.186 46.5615H121.278L123.224 52.7644L124.744 46.5615H125.685L123.672 53.7826H122.761L120.738 47.4357L118.705 53.7826H117.794L115.781 46.5615H116.733L118.253 52.7644L120.192 46.5615H120.186Z" fill="black"/>
<path d="M126.593 53.7794V46.5583H127.437V53.7794H126.593Z" fill="black"/>
<path d="M133.603 46.5615H134.44V53.7826H133.546L129.955 48.1022V53.7826H129.118V46.5615H129.955L133.603 52.5098V46.5615Z" fill="black"/>
<path d="M136.343 46.5617H141.112V47.3588H137.17V49.5526H140.714V50.3799H137.17V52.9823H141.273V53.7794H136.343V46.5583V46.5617Z" fill="black"/>
<path d="M147.536 53.7794C146.062 53.7794 145.057 52.7445 145.057 51.3579C145.057 50.2359 145.724 49.3818 146.662 49.0201L145.637 47.5363V46.5583H149.79V47.2985H146.37L147.395 48.7789C147.767 48.6952 148.336 48.6349 148.839 48.6349H149.237V49.3583H148.839C148.534 49.3583 148.125 49.3851 147.804 49.4253L149.334 51.7162C149.448 51.3545 149.525 50.7583 149.515 50.2426H150.296C150.306 51.0966 150.125 52.011 149.85 52.5134L150.684 53.776H149.887L149.442 53.1196C149.023 53.5081 148.303 53.776 147.543 53.776L147.536 53.7794ZM149.01 52.4765L147.054 49.6263C146.35 49.8842 145.798 50.4904 145.798 51.3445C145.798 52.3124 146.511 53.0627 147.536 53.0627C148.135 53.0627 148.695 52.8349 149.01 52.4732V52.4765Z" fill="black"/>
<path d="M159.345 48.4908C159.345 49.1941 158.843 49.7535 158.327 49.9176C159 50.0013 159.724 50.698 159.724 51.7329C159.724 52.9587 159.02 53.786 157.443 53.786H154.469V46.5649H156.947C158.324 46.5649 159.342 47.1913 159.342 48.4941L159.345 48.4908ZM158.528 48.4807C158.528 47.8075 158.073 47.3319 156.971 47.3319H155.299V49.5358H156.783C157.865 49.5358 158.531 49.2042 158.531 48.4807H158.528ZM158.907 51.6625C158.907 50.8755 158.29 50.3496 157.064 50.3496H155.296V53.009H157.158C158.176 53.009 158.907 52.5802 158.907 51.6592V51.6625Z" fill="black"/>
<path d="M166.208 53.7794L165.371 51.5957H162.236L161.392 53.7794H160.481L163.341 46.5583H164.262L167.123 53.7794H166.212H166.208ZM165.059 50.7684L163.807 47.5765L162.554 50.7684H165.063H165.059Z" fill="black"/>
<path d="M172.907 48.4507C172.907 49.5526 172.002 50.2761 170.495 50.2459C170.334 50.2459 170.107 50.2359 169.936 50.2359L173.175 53.7794H172.12L168.861 50.2158V53.7794H168.033V46.5583H170.512C172.012 46.5583 172.907 47.1478 172.907 48.4473V48.4507ZM172.079 48.4206C172.079 47.7741 171.634 47.3287 170.532 47.3287H168.861V49.5024H170.696C171.399 49.5024 172.083 49.1507 172.083 48.4206H172.079Z" fill="black"/>
</g>
<defs>
<clipPath id="clip0_340_3890">
<rect width="173.175" height="54.7574" fill="white"/>
</clipPath>
</defs>
</svg>
