<svg width="109" height="53" viewBox="0 0 109 53" fill="none" xmlns="http://www.w3.org/2000/svg">
<g clip-path="url(#clip0_340_3847)">
<path d="M3.74387 52.1848H0.064209L10.7874 30.459C10.5099 30.0426 9.92 29.5916 9.05256 29.1405C8.18513 28.6894 7.62997 28.3425 7.45648 28.1343H13.0792L25.539 52.1848H21.757L17.314 43.4046H5.16646L3.67447 46.4927C2.39067 48.9562 2.42536 50.8663 3.74387 52.1848ZM5.40934 42.8841H17.0694L11.0997 31.0506L5.4076 42.8841H5.40934Z" fill="black"/>
<path d="M45.8959 34.5205L31.0697 51.7009H36.0939C37.3239 51.7009 38.5175 51.3505 39.6782 50.6825C40.8371 50.0146 41.8572 49.1021 42.735 47.9414C43.6128 46.7826 44.3519 45.6219 45.0181 44.3936C45.686 43.2001 46.2481 41.8989 46.7738 40.4937H46.8085L43.5417 52.0878H27.0639L41.819 34.9074H36.9006C35.7764 34.9074 34.6522 35.1884 33.5281 35.7505C32.3692 36.3473 31.3855 37.0846 30.5059 37.9989C29.6281 38.9115 28.889 39.8257 28.2575 40.74C27.5896 41.6543 27.0986 42.5321 26.7118 43.41H26.6406L29.3817 34.5222H45.8942L45.8959 34.5205Z" fill="black"/>
<path d="M59.7697 50.5056C58.6455 51.4545 57.556 52.0166 56.4665 52.1918C55.377 52.4018 54.3586 52.3671 53.4096 52.1207C52.4607 51.8744 51.6887 51.3487 51.0901 50.5402C50.4933 49.7318 50.2123 48.7828 50.2123 47.6239V36.5572H47.9292L53.0592 30.2683V34.5187H60.3318L58.5744 36.5572H53.0592L52.9534 48.6423C52.9187 50.1534 53.5502 51.0659 54.8513 51.3834C56.2219 51.7356 57.7676 51.2776 59.4886 50.0493C60.5781 49.2408 61.5618 48.1878 62.3702 46.8866H62.686C61.8775 48.363 60.8939 49.5566 59.7697 50.5056Z" fill="black"/>
<path d="M67.3562 46.7459C67.4273 50.0126 68.13 51.8048 69.4641 52.0858C67.6026 52.0858 66.3014 51.9106 65.6352 51.5237C64.9326 51.1368 64.5457 50.2937 64.4763 48.9943V26.3334L67.3579 23.7693C67.1827 31.4287 67.1827 39.0864 67.3579 46.7459H67.3562Z" fill="black"/>
<path d="M78.3882 34.099C79.6182 34.0643 80.8118 34.2396 81.9724 34.5917C83.1313 34.9786 84.1861 35.4696 85.1698 36.0664C86.1188 36.6632 86.8908 37.4369 87.4893 38.3148C88.0514 39.2273 88.3325 40.1763 88.3325 41.16C88.3325 43.1984 88.3325 44.8847 88.3672 46.2535V46.7462C88.3672 50.013 89.0698 51.7704 90.475 52.0862C88.5788 52.0862 87.2777 51.9109 86.6097 51.5241C85.9071 51.1372 85.5202 50.294 85.4509 48.9946V46.2535L85.5203 44.0051C85.5203 44.0051 85.5202 44.0398 85.4856 44.111C83.9398 47.3083 82.113 49.6261 79.9704 51.0678C78.671 51.9456 77.3698 52.3672 76.0704 52.3672C73.9973 52.3672 72.4862 51.6993 71.6083 50.3305C70.7305 49.0311 70.7305 47.6605 71.5736 46.1841C72.6978 44.2168 74.9809 42.8809 78.3899 42.1783C78.4611 42.1436 78.5652 42.1436 78.671 42.1072C78.7768 42.0725 78.9867 42.0361 79.3042 41.9667C79.62 41.8973 79.9374 41.8261 80.2532 41.7203C80.5689 41.6509 80.9211 41.5451 81.3774 41.4046C81.799 41.2988 82.1858 41.1582 82.571 41.0541C82.9232 40.9483 83.3083 40.8078 83.6952 40.6326C84.082 40.492 84.3978 40.3515 84.6441 40.211C84.8905 40.0705 85.1351 39.9299 85.3121 39.7547C85.489 39.5795 85.5584 39.439 85.5584 39.2984C85.5931 37.26 84.8905 36.0317 83.3794 35.5737C81.8683 35.1521 79.8316 35.4332 77.2657 36.3821L72.0663 38.3148L74.948 34.767C75.9663 34.3454 77.127 34.1337 78.3917 34.099H78.3882ZM78.3535 49.8742C80.0398 49.3468 81.6567 48.1185 83.166 46.2553C84.6771 44.3938 85.4856 42.7075 85.5203 41.1964L85.5549 40.1433L85.4491 40.2145C85.378 40.2839 85.2028 40.3897 84.9564 40.5649C84.6754 40.7401 84.3249 40.9153 83.9034 41.0923C83.4471 41.3022 82.8139 41.5486 81.936 41.7949C81.0582 42.0413 80.0381 42.3223 78.9139 42.5669C78.8792 42.5669 78.7386 42.6016 78.4576 42.6728C78.1419 42.7439 77.8608 42.8133 77.5798 42.8827C77.264 42.9538 76.9118 43.0579 76.4903 43.1984C76.0687 43.3737 75.6818 43.5142 75.3661 43.6894C75.0503 43.8646 74.7328 44.111 74.4171 44.392C74.1013 44.7078 73.855 45.0252 73.7145 45.341C73.5739 45.6567 73.5046 46.0436 73.5393 46.4999C73.5739 46.9562 73.7145 47.4489 73.9955 47.9763C75.2255 49.7684 76.6655 50.3999 78.3518 49.8725L78.3535 49.8742Z" fill="black"/>
<path d="M91.8423 52.0858V34.5203H94.7933L94.7586 37.8929C95.7076 36.7687 96.7953 35.8908 98.0965 35.2229C99.3612 34.555 100.591 34.2045 101.821 34.1334C103.051 34.064 104.175 34.2045 105.265 34.555C106.318 34.9419 107.161 35.5734 107.829 36.5223C108.497 37.4713 108.813 38.6302 108.847 39.966V52.0858H106.002V40.5975C106.002 39.0518 105.615 37.787 104.878 36.8381C104.141 35.8891 103.192 35.327 102.102 35.1518C101.013 34.9766 99.7828 35.1518 98.4487 35.6792C97.1145 36.2413 95.8845 37.1556 94.7603 38.3838L94.6909 52.0858H91.8457H91.8423Z" fill="black"/>
<path d="M74.136 30.7523V30.2839H87.2794V30.7523H74.136Z" fill="black"/>
<path d="M23.4207 24.7565C24.0387 24.7565 24.5397 24.2555 24.5397 23.6375C24.5397 23.0195 24.0387 22.5186 23.4207 22.5186C22.8027 22.5186 22.3018 23.0195 22.3018 23.6375C22.3018 24.2555 22.8027 24.7565 23.4207 24.7565Z" fill="black"/>
<path d="M46.8433 23.0476H31.3926V23.7936H46.8433V23.0476Z" fill="black"/>
<path d="M45.5808 15.8319L30.6487 20.6836L30.8792 21.3931L45.8113 16.5413L45.5808 15.8319Z" fill="black"/>
<path d="M42.1493 9.35337L29.269 18.7114L29.7075 19.3149L42.5878 9.95689L42.1493 9.35337Z" fill="black"/>
<path d="M36.8852 4.25068L27.4282 17.2671L28.0317 17.7056L37.4887 4.68916L36.8852 4.25068Z" fill="black"/>
<path d="M30.3019 1.02929L25.2974 16.4316L26.0068 16.6622L31.0114 1.25981L30.3019 1.02929Z" fill="black"/>
<path d="M23.7938 0H23.0479V16.2297H23.7938V0Z" fill="black"/>
<path d="M16.5381 1.03046L15.8286 1.26099L20.8331 16.6633L21.5426 16.4328L16.5381 1.03046Z" fill="black"/>
<path d="M9.95752 4.2539L9.354 4.69238L18.811 17.7088L19.4145 17.2703L9.95752 4.2539Z" fill="black"/>
<path d="M4.69113 9.3532L4.25366 9.95532L17.1339 19.3134L17.5714 18.7113L4.69113 9.3532Z" fill="black"/>
<path d="M1.26275 15.8291L1.03223 16.5386L15.9643 21.3903L16.1949 20.6808L1.26275 15.8291Z" fill="black"/>
<path d="M15.4507 23.0476H0V23.7936H15.4507V23.0476Z" fill="black"/>
<path d="M43.0258 19.9332L31.1121 21.8223L31.2289 22.5591L43.1426 20.67L43.0258 19.9332Z" fill="black"/>
<path d="M40.9842 14.0516L30.0261 19.635L30.3648 20.2997L41.3228 14.7163L40.9842 14.0516Z" fill="black"/>
<path d="M37.2261 9.09116L28.3945 17.9197L28.9219 18.4473L37.7535 9.61875L37.2261 9.09116Z" fill="black"/>
<path d="M32.1221 5.52605L26.3887 16.7737L27.0533 17.1125L32.7867 5.86484L32.1221 5.52605Z" fill="black"/>
<path d="M26.1681 3.71577L24.1802 16.2532L24.917 16.37L26.9049 3.8326L26.1681 3.71577Z" fill="black"/>
<path d="M20.6785 3.71509L19.9417 3.83179L21.9274 16.3695L22.6642 16.2528L20.6785 3.71509Z" fill="black"/>
<path d="M14.7208 5.52314L14.0562 5.86182L19.7876 17.1105L20.4523 16.7718L14.7208 5.52314Z" fill="black"/>
<path d="M9.61685 9.0892L9.08936 9.6167L17.9194 18.4468L18.4469 17.9193L9.61685 9.0892Z" fill="black"/>
<path d="M5.85479 14.0533L5.51611 14.718L16.4757 20.3022L16.8144 19.6375L5.85479 14.0533Z" fill="black"/>
<path d="M3.81641 19.9387L3.69971 20.6755L15.6154 22.5628L15.7321 21.826L3.81641 19.9387Z" fill="black"/>
</g>
<defs>
<clipPath id="clip0_340_3847">
<rect width="108.847" height="52.367" fill="white"/>
</clipPath>
</defs>
</svg>
