<svg width="126" height="126" viewBox="0 0 126 126" fill="none" xmlns="http://www.w3.org/2000/svg">
<rect x="2.42257e-06" y="4.32491e-06" width="126" height="126" rx="35.1045" fill="black"/>
<path d="M69.6833 22.365C70.4073 22.365 71.1016 22.6526 71.6136 23.1646C72.1256 23.6765 72.4132 24.3709 72.4132 25.0949C72.4132 25.8189 72.1256 26.5133 71.6136 27.0252C71.1016 27.5372 70.4073 27.8248 69.6833 27.8248C68.9593 27.8248 68.2649 27.5372 67.7529 27.0252C67.241 26.5133 66.9534 25.8189 66.9534 25.0949C66.9534 24.3709 67.241 23.6765 67.7529 23.1646C68.2649 22.6526 68.9593 22.365 69.6833 22.365Z" fill="#E3FF17"/>
<path d="M63.3134 28.7347C64.0374 28.7347 64.7318 29.0224 65.2437 29.5343C65.7557 30.0463 66.0433 30.7406 66.0433 31.4646C66.0433 32.1887 65.7557 32.883 65.2437 33.395C64.7318 33.9069 64.0374 34.1945 63.3134 34.1945C62.5894 34.1945 61.895 33.9069 61.3831 33.395C60.8711 32.883 60.5835 32.1887 60.5835 31.4646C60.5835 30.7406 60.8711 30.0463 61.3831 29.5343C61.895 29.0224 62.5894 28.7347 63.3134 28.7347Z" fill="#E3FF17"/>
<path d="M69.6833 28.7347C70.4073 28.7347 71.1016 29.0224 71.6136 29.5343C72.1256 30.0463 72.4132 30.7406 72.4132 31.4646C72.4132 32.1887 72.1256 32.883 71.6136 33.395C71.1016 33.9069 70.4073 34.1945 69.6833 34.1945C68.9593 34.1945 68.2649 33.9069 67.7529 33.395C67.241 32.883 66.9534 32.1887 66.9534 31.4646C66.9534 30.7406 67.241 30.0463 67.7529 29.5343C68.2649 29.0224 68.9593 28.7347 69.6833 28.7347Z" fill="#E3FF17"/>
<path d="M56.9435 35.3936C57.5909 35.3936 58.2117 35.6507 58.6695 36.1085C59.1272 36.5662 59.3844 37.1871 59.3844 37.8344C59.3844 38.4818 59.1272 39.1026 58.6695 39.5604C58.2117 40.0181 57.5909 40.2753 56.9435 40.2753C56.2962 40.2753 55.6753 40.0181 55.2176 39.5604C54.7598 39.1026 54.5027 38.4818 54.5027 37.8344C54.5027 37.1871 54.7598 36.5662 55.2176 36.1085C55.6753 35.6507 56.2962 35.3936 56.9435 35.3936Z" fill="#E3FF17"/>
<path d="M63.3134 35.1045C64.0374 35.1045 64.7318 35.3921 65.2437 35.9041C65.7557 36.416 66.0433 37.1104 66.0433 37.8344C66.0433 38.5584 65.7557 39.2528 65.2437 39.7647C64.7318 40.2767 64.0374 40.5643 63.3134 40.5643C62.5894 40.5643 61.895 40.2767 61.3831 39.7647C60.8711 39.2528 60.5835 38.5584 60.5835 37.8344C60.5835 37.1104 60.8711 36.416 61.3831 35.9041C61.895 35.3921 62.5894 35.1045 63.3134 35.1045Z" fill="#E3FF17"/>
<path d="M69.6833 35.1045C70.4073 35.1045 71.1016 35.3921 71.6136 35.9041C72.1256 36.416 72.4132 37.1104 72.4132 37.8344C72.4132 38.5584 72.1256 39.2528 71.6136 39.7647C71.1016 40.2767 70.4073 40.5643 69.6833 40.5643C68.9593 40.5643 68.2649 40.2767 67.7529 39.7647C67.241 39.2528 66.9534 38.5584 66.9534 37.8344C66.9534 37.1104 67.241 36.416 67.7529 35.9041C68.2649 35.3921 68.9593 35.1045 69.6833 35.1045Z" fill="#E3FF17"/>
<path d="M56.9435 41.4742C57.6675 41.4742 58.3619 41.7619 58.8739 42.2738C59.3858 42.7858 59.6734 43.4801 59.6734 44.2041C59.6734 44.9282 59.3858 45.6225 58.8739 46.1345C58.3619 46.6464 57.6675 46.934 56.9435 46.934C56.2195 46.934 55.5252 46.6464 55.0132 46.1345C54.5012 45.6225 54.2136 44.9282 54.2136 44.2041C54.2136 43.4801 54.5012 42.7858 55.0132 42.2738C55.5252 41.7619 56.2195 41.4742 56.9435 41.4742Z" fill="#E3FF17"/>
<path d="M63.3134 41.4742C64.0374 41.4742 64.7318 41.7619 65.2437 42.2738C65.7557 42.7858 66.0433 43.4801 66.0433 44.2041C66.0433 44.9282 65.7557 45.6225 65.2437 46.1345C64.7318 46.6464 64.0374 46.934 63.3134 46.934C62.5894 46.934 61.895 46.6464 61.3831 46.1345C60.8711 45.6225 60.5835 44.9282 60.5835 44.2041C60.5835 43.4801 60.8711 42.7858 61.3831 42.2738C61.895 41.7619 62.5894 41.4742 63.3134 41.4742Z" fill="#E3FF17"/>
<path d="M69.6833 41.4742C70.4073 41.4742 71.1016 41.7619 71.6136 42.2738C72.1256 42.7858 72.4132 43.4801 72.4132 44.2041C72.4132 44.9282 72.1256 45.6225 71.6136 46.1345C71.1016 46.6464 70.4073 46.934 69.6833 46.934C68.9593 46.934 68.2649 46.6464 67.7529 46.1345C67.241 45.6225 66.9534 44.9282 66.9534 44.2041C66.9534 43.4801 67.241 42.7858 67.7529 42.2738C68.2649 41.7619 68.9593 41.4742 69.6833 41.4742Z" fill="#E3FF17"/>
<path d="M50.5739 47.844C51.2979 47.844 51.9923 48.1316 52.5042 48.6436C53.0162 49.1555 53.3038 49.8499 53.3038 50.5739C53.3038 51.2979 53.0162 51.9923 52.5042 52.5042C51.9923 53.0162 51.2979 53.3038 50.5739 53.3038C49.8499 53.3038 49.1555 53.0162 48.6436 52.5042C48.1316 51.9923 47.844 51.2979 47.844 50.5739C47.844 49.8499 48.1316 49.1555 48.6436 48.6436C49.1555 48.1316 49.8499 47.844 50.5739 47.844Z" fill="#E3FF17"/>
<path d="M56.9435 47.844C57.6675 47.844 58.3619 48.1316 58.8739 48.6436C59.3858 49.1555 59.6734 49.8499 59.6734 50.5739C59.6734 51.2979 59.3858 51.9923 58.8739 52.5042C58.3619 53.0162 57.6675 53.3038 56.9435 53.3038C56.2195 53.3038 55.5252 53.0162 55.0132 52.5042C54.5012 51.9923 54.2136 51.2979 54.2136 50.5739C54.2136 49.8499 54.5012 49.1555 55.0132 48.6436C55.5252 48.1316 56.2195 47.844 56.9435 47.844Z" fill="#E3FF17"/>
<path d="M63.3134 47.844C64.0374 47.844 64.7318 48.1316 65.2437 48.6436C65.7557 49.1555 66.0433 49.8499 66.0433 50.5739C66.0433 51.2979 65.7557 51.9923 65.2437 52.5042C64.7318 53.0162 64.0374 53.3038 63.3134 53.3038C62.5894 53.3038 61.895 53.0162 61.3831 52.5042C60.8711 51.9923 60.5835 51.2979 60.5835 50.5739C60.5835 49.8499 60.8711 49.1555 61.3831 48.6436C61.895 48.1316 62.5894 47.844 63.3134 47.844Z" fill="#E3FF17"/>
<path d="M69.6833 47.844C70.4073 47.844 71.1016 48.1316 71.6136 48.6436C72.1256 49.1555 72.4132 49.8499 72.4132 50.5739C72.4132 51.2979 72.1256 51.9923 71.6136 52.5042C71.1016 53.0162 70.4073 53.3038 69.6833 53.3038C68.9593 53.3038 68.2649 53.0162 67.7529 52.5042C67.241 51.9923 66.9534 51.2979 66.9534 50.5739C66.9534 49.8499 67.241 49.1555 67.7529 48.6436C68.2649 48.1316 68.9593 47.844 69.6833 47.844Z" fill="#E3FF17"/>
<path d="M44.204 54.2137C44.928 54.2137 45.6224 54.5014 46.1344 55.0133C46.6463 55.5253 46.9339 56.2196 46.9339 56.9436C46.9339 57.6677 46.6463 58.362 46.1344 58.874C45.6224 59.3859 44.928 59.6735 44.204 59.6735C43.48 59.6735 42.7856 59.3859 42.2737 58.874C41.7617 58.362 41.4741 57.6677 41.4741 56.9436C41.4741 56.2196 41.7617 55.5253 42.2737 55.0133C42.7856 54.5014 43.48 54.2137 44.204 54.2137Z" fill="#E3FF17"/>
<path d="M50.5739 54.2137C51.2979 54.2137 51.9923 54.5014 52.5042 55.0133C53.0162 55.5253 53.3038 56.2196 53.3038 56.9436C53.3038 57.6677 53.0162 58.362 52.5042 58.874C51.9923 59.3859 51.2979 59.6735 50.5739 59.6735C49.8499 59.6735 49.1555 59.3859 48.6436 58.874C48.1316 58.362 47.844 57.6677 47.844 56.9436C47.844 56.2196 48.1316 55.5253 48.6436 55.0133C49.1555 54.5014 49.8499 54.2137 50.5739 54.2137Z" fill="#E3FF17"/>
<path d="M56.9435 54.2137C57.6675 54.2137 58.3619 54.5014 58.8739 55.0133C59.3858 55.5253 59.6734 56.2196 59.6734 56.9436C59.6734 57.6677 59.3858 58.362 58.8739 58.874C58.3619 59.3859 57.6675 59.6735 56.9435 59.6735C56.2195 59.6735 55.5252 59.3859 55.0132 58.874C54.5012 58.362 54.2136 57.6677 54.2136 56.9436C54.2136 56.2196 54.5012 55.5253 55.0132 55.0133C55.5252 54.5014 56.2195 54.2137 56.9435 54.2137Z" fill="#E3FF17"/>
<path d="M63.3134 54.2137C64.0374 54.2137 64.7318 54.5014 65.2437 55.0133C65.7557 55.5253 66.0433 56.2196 66.0433 56.9436C66.0433 57.6677 65.7557 58.362 65.2437 58.874C64.7318 59.3859 64.0374 59.6735 63.3134 59.6735C62.5894 59.6735 61.895 59.3859 61.3831 58.874C60.8711 58.362 60.5835 57.6677 60.5835 56.9436C60.5835 56.2196 60.8711 55.5253 61.3831 55.0133C61.895 54.5014 62.5894 54.2137 63.3134 54.2137Z" fill="#E3FF17"/>
<path d="M69.6833 54.2137C70.4073 54.2137 71.1016 54.5014 71.6136 55.0133C72.1256 55.5253 72.4132 56.2196 72.4132 56.9436C72.4132 57.6677 72.1256 58.362 71.6136 58.874C71.1016 59.3859 70.4073 59.6735 69.6833 59.6735C68.9593 59.6735 68.2649 59.3859 67.7529 58.874C67.241 58.362 66.9534 57.6677 66.9534 56.9436C66.9534 56.2196 67.241 55.5253 67.7529 55.0133C68.2649 54.5014 68.9593 54.2137 69.6833 54.2137Z" fill="#E3FF17"/>
<path d="M76.0529 54.2137C76.7769 54.2137 77.4713 54.5014 77.9832 55.0133C78.4952 55.5253 78.7828 56.2196 78.7828 56.9436C78.7828 57.6677 78.4952 58.362 77.9832 58.874C77.4713 59.3859 76.7769 59.6735 76.0529 59.6735C75.3289 59.6735 74.6345 59.3859 74.1226 58.874C73.6106 58.362 73.323 57.6677 73.323 56.9436C73.323 56.2196 73.6106 55.5253 74.1226 55.0133C74.6345 54.5014 75.3289 54.2137 76.0529 54.2137Z" fill="#E3FF17"/>
<path d="M82.4228 54.2137C83.1468 54.2137 83.8411 54.5014 84.3531 55.0133C84.8651 55.5253 85.1527 56.2196 85.1527 56.9436C85.1527 57.6677 84.8651 58.362 84.3531 58.874C83.8411 59.3859 83.1468 59.6735 82.4228 59.6735C81.6988 59.6735 81.0044 59.3859 80.4924 58.874C79.9805 58.362 79.6929 57.6677 79.6929 56.9436C79.6929 56.2196 79.9805 55.5253 80.4924 55.0133C81.0044 54.5014 81.6988 54.2137 82.4228 54.2137Z" fill="#E3FF17"/>
<path d="M88.7924 54.2137C89.5164 54.2137 90.2108 54.5014 90.7227 55.0133C91.2347 55.5253 91.5223 56.2196 91.5223 56.9436C91.5223 57.6677 91.2347 58.362 90.7227 58.874C90.2108 59.3859 89.5164 59.6735 88.7924 59.6735C88.0684 59.6735 87.374 59.3859 86.8621 58.874C86.3501 58.362 86.0625 57.6677 86.0625 56.9436C86.0625 56.2196 86.3501 55.5253 86.8621 55.0133C87.374 54.5014 88.0684 54.2137 88.7924 54.2137Z" fill="#E3FF17"/>
<path d="M37.8344 60.5835C38.5584 60.5835 39.2528 60.8711 39.7647 61.3831C40.2767 61.895 40.5643 62.5894 40.5643 63.3134C40.5643 64.0374 40.2767 64.7318 39.7647 65.2437C39.2528 65.7557 38.5584 66.0433 37.8344 66.0433C37.1104 66.0433 36.416 65.7557 35.9041 65.2437C35.3921 64.7318 35.1045 64.0374 35.1045 63.3134C35.1045 62.5894 35.3921 61.895 35.9041 61.3831C36.416 60.8711 37.1104 60.5835 37.8344 60.5835Z" fill="#E3FF17"/>
<path d="M44.204 60.5835C44.928 60.5835 45.6224 60.8711 46.1344 61.3831C46.6463 61.895 46.9339 62.5894 46.9339 63.3134C46.9339 64.0374 46.6463 64.7318 46.1344 65.2437C45.6224 65.7557 44.928 66.0433 44.204 66.0433C43.48 66.0433 42.7856 65.7557 42.2737 65.2437C41.7617 64.7318 41.4741 64.0374 41.4741 63.3134C41.4741 62.5894 41.7617 61.895 42.2737 61.3831C42.7856 60.8711 43.48 60.5835 44.204 60.5835Z" fill="#E3FF17"/>
<path d="M50.5739 60.5835C51.2979 60.5835 51.9923 60.8711 52.5042 61.3831C53.0162 61.895 53.3038 62.5894 53.3038 63.3134C53.3038 64.0374 53.0162 64.7318 52.5042 65.2437C51.9923 65.7557 51.2979 66.0433 50.5739 66.0433C49.8499 66.0433 49.1555 65.7557 48.6436 65.2437C48.1316 64.7318 47.844 64.0374 47.844 63.3134C47.844 62.5894 48.1316 61.895 48.6436 61.3831C49.1555 60.8711 49.8499 60.5835 50.5739 60.5835Z" fill="#E3FF17"/>
<path d="M56.9435 60.5835C57.6675 60.5835 58.3619 60.8711 58.8739 61.3831C59.3858 61.895 59.6734 62.5894 59.6734 63.3134C59.6734 64.0374 59.3858 64.7318 58.8739 65.2437C58.3619 65.7557 57.6675 66.0433 56.9435 66.0433C56.2195 66.0433 55.5252 65.7557 55.0132 65.2437C54.5012 64.7318 54.2136 64.0374 54.2136 63.3134C54.2136 62.5894 54.5012 61.895 55.0132 61.3831C55.5252 60.8711 56.2195 60.5835 56.9435 60.5835Z" fill="#E3FF17"/>
<path d="M63.3134 60.5835C64.0374 60.5835 64.7318 60.8711 65.2437 61.3831C65.7557 61.895 66.0433 62.5894 66.0433 63.3134C66.0433 64.0374 65.7557 64.7318 65.2437 65.2437C64.7318 65.7557 64.0374 66.0433 63.3134 66.0433C62.5894 66.0433 61.895 65.7557 61.3831 65.2437C60.8711 64.7318 60.5835 64.0374 60.5835 63.3134C60.5835 62.5894 60.8711 61.895 61.3831 61.3831C61.895 60.8711 62.5894 60.5835 63.3134 60.5835Z" fill="#E3FF17"/>
<path d="M69.6833 60.5835C70.4073 60.5835 71.1016 60.8711 71.6136 61.3831C72.1256 61.895 72.4132 62.5894 72.4132 63.3134C72.4132 64.0374 72.1256 64.7318 71.6136 65.2437C71.1016 65.7557 70.4073 66.0433 69.6833 66.0433C68.9593 66.0433 68.2649 65.7557 67.7529 65.2437C67.241 64.7318 66.9534 64.0374 66.9534 63.3134C66.9534 62.5894 67.241 61.895 67.7529 61.3831C68.2649 60.8711 68.9593 60.5835 69.6833 60.5835Z" fill="#E3FF17"/>
<path d="M76.0529 60.5835C76.7769 60.5835 77.4713 60.8711 77.9832 61.3831C78.4952 61.895 78.7828 62.5894 78.7828 63.3134C78.7828 64.0374 78.4952 64.7318 77.9832 65.2437C77.4713 65.7557 76.7769 66.0433 76.0529 66.0433C75.3289 66.0433 74.6345 65.7557 74.1226 65.2437C73.6106 64.7318 73.323 64.0374 73.323 63.3134C73.323 62.5894 73.6106 61.895 74.1226 61.3831C74.6345 60.8711 75.3289 60.5835 76.0529 60.5835Z" fill="#E3FF17"/>
<path d="M82.4228 60.5835C83.1468 60.5835 83.8411 60.8711 84.3531 61.3831C84.8651 61.895 85.1527 62.5894 85.1527 63.3134C85.1527 64.0374 84.8651 64.7318 84.3531 65.2437C83.8411 65.7557 83.1468 66.0433 82.4228 66.0433C81.6988 66.0433 81.0044 65.7557 80.4924 65.2437C79.9805 64.7318 79.6929 64.0374 79.6929 63.3134C79.6929 62.5894 79.9805 61.895 80.4924 61.3831C81.0044 60.8711 81.6988 60.5835 82.4228 60.5835Z" fill="#E3FF17"/>
<path d="M88.7924 60.5835C89.5164 60.5835 90.2108 60.8711 90.7227 61.3831C91.2347 61.895 91.5223 62.5894 91.5223 63.3134C91.5223 64.0374 91.2347 64.7318 90.7227 65.2437C90.2108 65.7557 89.5164 66.0433 88.7924 66.0433C88.0684 66.0433 87.374 65.7557 86.8621 65.2437C86.3501 64.7318 86.0625 64.0374 86.0625 63.3134C86.0625 62.5894 86.3501 61.895 86.8621 61.3831C87.374 60.8711 88.0684 60.5835 88.7924 60.5835Z" fill="#E3FF17"/>
<path d="M37.8344 66.9533C38.5584 66.9533 39.2528 67.2409 39.7647 67.7528C40.2767 68.2648 40.5643 68.9591 40.5643 69.6832C40.5643 70.4072 40.2767 71.1015 39.7647 71.6135C39.2528 72.1254 38.5584 72.413 37.8344 72.413C37.1104 72.413 36.416 72.1254 35.9041 71.6135C35.3921 71.1015 35.1045 70.4072 35.1045 69.6832C35.1045 68.9591 35.3921 68.2648 35.9041 67.7528C36.416 67.2409 37.1104 66.9533 37.8344 66.9533Z" fill="#E3FF17"/>
<path d="M44.204 66.9533C44.928 66.9533 45.6224 67.2409 46.1344 67.7528C46.6463 68.2648 46.9339 68.9591 46.9339 69.6832C46.9339 70.4072 46.6463 71.1015 46.1344 71.6135C45.6224 72.1254 44.928 72.413 44.204 72.413C43.48 72.413 42.7856 72.1254 42.2737 71.6135C41.7617 71.1015 41.4741 70.4072 41.4741 69.6832C41.4741 68.9591 41.7617 68.2648 42.2737 67.7528C42.7856 67.2409 43.48 66.9533 44.204 66.9533Z" fill="#E3FF17"/>
<path d="M50.5739 66.9533C51.2979 66.9533 51.9923 67.2409 52.5042 67.7528C53.0162 68.2648 53.3038 68.9591 53.3038 69.6832C53.3038 70.4072 53.0162 71.1015 52.5042 71.6135C51.9923 72.1254 51.2979 72.413 50.5739 72.413C49.8499 72.413 49.1555 72.1254 48.6436 71.6135C48.1316 71.1015 47.844 70.4072 47.844 69.6832C47.844 68.9591 48.1316 68.2648 48.6436 67.7528C49.1555 67.2409 49.8499 66.9533 50.5739 66.9533Z" fill="#E3FF17"/>
<path d="M56.9435 66.9533C57.6675 66.9533 58.3619 67.2409 58.8739 67.7528C59.3858 68.2648 59.6734 68.9591 59.6734 69.6832C59.6734 70.4072 59.3858 71.1015 58.8739 71.6135C58.3619 72.1254 57.6675 72.413 56.9435 72.413C56.2195 72.413 55.5252 72.1254 55.0132 71.6135C54.5012 71.1015 54.2136 70.4072 54.2136 69.6832C54.2136 68.9591 54.5012 68.2648 55.0132 67.7528C55.5252 67.2409 56.2195 66.9533 56.9435 66.9533Z" fill="#E3FF17"/>
<path d="M63.3134 66.9533C64.0374 66.9533 64.7318 67.2409 65.2437 67.7528C65.7557 68.2648 66.0433 68.9591 66.0433 69.6832C66.0433 70.4072 65.7557 71.1015 65.2437 71.6135C64.7318 72.1254 64.0374 72.413 63.3134 72.413C62.5894 72.413 61.895 72.1254 61.3831 71.6135C60.8711 71.1015 60.5835 70.4072 60.5835 69.6832C60.5835 68.9591 60.8711 68.2648 61.3831 67.7528C61.895 67.2409 62.5894 66.9533 63.3134 66.9533Z" fill="#E3FF17"/>
<path d="M69.6833 66.9533C70.4073 66.9533 71.1016 67.2409 71.6136 67.7528C72.1256 68.2648 72.4132 68.9591 72.4132 69.6832C72.4132 70.4072 72.1256 71.1015 71.6136 71.6135C71.1016 72.1254 70.4073 72.413 69.6833 72.413C68.9593 72.413 68.2649 72.1254 67.7529 71.6135C67.241 71.1015 66.9534 70.4072 66.9534 69.6832C66.9534 68.9591 67.241 68.2648 67.7529 67.7528C68.2649 67.2409 68.9593 66.9533 69.6833 66.9533Z" fill="#E3FF17"/>
<path d="M76.0529 66.9533C76.7769 66.9533 77.4713 67.2409 77.9832 67.7528C78.4952 68.2648 78.7828 68.9591 78.7828 69.6832C78.7828 70.4072 78.4952 71.1015 77.9832 71.6135C77.4713 72.1254 76.7769 72.413 76.0529 72.413C75.3289 72.413 74.6345 72.1254 74.1226 71.6135C73.6106 71.1015 73.323 70.4072 73.323 69.6832C73.323 68.9591 73.6106 68.2648 74.1226 67.7528C74.6345 67.2409 75.3289 66.9533 76.0529 66.9533Z" fill="#E3FF17"/>
<path d="M82.4228 66.9533C83.1468 66.9533 83.8411 67.2409 84.3531 67.7528C84.8651 68.2648 85.1527 68.9591 85.1527 69.6832C85.1527 70.4072 84.8651 71.1015 84.3531 71.6135C83.8411 72.1254 83.1468 72.413 82.4228 72.413C81.6988 72.413 81.0044 72.1254 80.4924 71.6135C79.9805 71.1015 79.6929 70.4072 79.6929 69.6832C79.6929 68.9591 79.9805 68.2648 80.4924 67.7528C81.0044 67.2409 81.6988 66.9533 82.4228 66.9533Z" fill="#E3FF17"/>
<path d="M56.9435 73.323C57.6675 73.323 58.3619 73.6106 58.8739 74.1226C59.3858 74.6345 59.6734 75.3289 59.6734 76.0529C59.6734 76.7769 59.3858 77.4713 58.8739 77.9832C58.3619 78.4952 57.6675 78.7828 56.9435 78.7828C56.2195 78.7828 55.5252 78.4952 55.0132 77.9832C54.5012 77.4713 54.2136 76.7769 54.2136 76.0529C54.2136 75.3289 54.5012 74.6345 55.0132 74.1226C55.5252 73.6106 56.2195 73.323 56.9435 73.323Z" fill="#E3FF17"/>
<path d="M63.3134 73.323C64.0374 73.323 64.7318 73.6106 65.2437 74.1226C65.7557 74.6345 66.0433 75.3289 66.0433 76.0529C66.0433 76.7769 65.7557 77.4713 65.2437 77.9832C64.7318 78.4952 64.0374 78.7828 63.3134 78.7828C62.5894 78.7828 61.895 78.4952 61.3831 77.9832C60.8711 77.4713 60.5835 76.7769 60.5835 76.0529C60.5835 75.3289 60.8711 74.6345 61.3831 74.1226C61.895 73.6106 62.5894 73.323 63.3134 73.323Z" fill="#E3FF17"/>
<path d="M69.6833 73.323C70.4073 73.323 71.1016 73.6106 71.6136 74.1226C72.1256 74.6345 72.4132 75.3289 72.4132 76.0529C72.4132 76.7769 72.1256 77.4713 71.6136 77.9832C71.1016 78.4952 70.4073 78.7828 69.6833 78.7828C68.9593 78.7828 68.2649 78.4952 67.7529 77.9832C67.241 77.4713 66.9534 76.7769 66.9534 76.0529C66.9534 75.3289 67.241 74.6345 67.7529 74.1226C68.2649 73.6106 68.9593 73.323 69.6833 73.323Z" fill="#E3FF17"/>
<path d="M76.0529 73.323C76.7769 73.323 77.4713 73.6106 77.9832 74.1226C78.4952 74.6345 78.7828 75.3289 78.7828 76.0529C78.7828 76.7769 78.4952 77.4713 77.9832 77.9832C77.4713 78.4952 76.7769 78.7828 76.0529 78.7828C75.3289 78.7828 74.6345 78.4952 74.1226 77.9832C73.6106 77.4713 73.323 76.7769 73.323 76.0529C73.323 75.3289 73.6106 74.6345 74.1226 74.1226C74.6345 73.6106 75.3289 73.323 76.0529 73.323Z" fill="#E3FF17"/>
<path d="M56.9435 79.6929C57.6675 79.6929 58.3619 79.9805 58.8739 80.4924C59.3858 81.0044 59.6734 81.6988 59.6734 82.4228C59.6734 83.1468 59.3858 83.8412 58.8739 84.3531C58.3619 84.8651 57.6675 85.1527 56.9435 85.1527C56.2195 85.1527 55.5252 84.8651 55.0132 84.3531C54.5012 83.8412 54.2136 83.1468 54.2136 82.4228C54.2136 81.6988 54.5012 81.0044 55.0132 80.4924C55.5252 79.9805 56.2195 79.6929 56.9435 79.6929Z" fill="#E3FF17"/>
<path d="M63.3134 79.6929C64.0374 79.6929 64.7318 79.9805 65.2437 80.4924C65.7557 81.0044 66.0433 81.6988 66.0433 82.4228C66.0433 83.1468 65.7557 83.8412 65.2437 84.3531C64.7318 84.8651 64.0374 85.1527 63.3134 85.1527C62.5894 85.1527 61.895 84.8651 61.3831 84.3531C60.8711 83.8412 60.5835 83.1468 60.5835 82.4228C60.5835 81.6988 60.8711 81.0044 61.3831 80.4924C61.895 79.9805 62.5894 79.6929 63.3134 79.6929Z" fill="#E3FF17"/>
<path d="M69.6833 79.6929C70.4073 79.6929 71.1016 79.9805 71.6136 80.4924C72.1256 81.0044 72.4132 81.6988 72.4132 82.4228C72.4132 83.1468 72.1256 83.8412 71.6136 84.3531C71.1016 84.8651 70.4073 85.1527 69.6833 85.1527C68.9593 85.1527 68.2649 84.8651 67.7529 84.3531C67.241 83.8412 66.9534 83.1468 66.9534 82.4228C66.9534 81.6988 67.241 81.0044 67.7529 80.4924C68.2649 79.9805 68.9593 79.6929 69.6833 79.6929Z" fill="#E3FF17"/>
<path d="M56.9435 86.0626C57.6675 86.0626 58.3619 86.3502 58.8739 86.8622C59.3858 87.3741 59.6734 88.0685 59.6734 88.7925C59.6734 89.5165 59.3858 90.2109 58.8739 90.7229C58.3619 91.2348 57.6675 91.5224 56.9435 91.5224C56.2195 91.5224 55.5252 91.2348 55.0132 90.7229C54.5012 90.2109 54.2136 89.5165 54.2136 88.7925C54.2136 88.0685 54.5012 87.3741 55.0132 86.8622C55.5252 86.3502 56.2195 86.0626 56.9435 86.0626Z" fill="#E3FF17"/>
<path d="M63.3134 86.0626C64.0374 86.0626 64.7318 86.3502 65.2437 86.8622C65.7557 87.3741 66.0433 88.0685 66.0433 88.7925C66.0433 89.5165 65.7557 90.2109 65.2437 90.7229C64.7318 91.2348 64.0374 91.5224 63.3134 91.5224C62.5894 91.5224 61.895 91.2348 61.3831 90.7229C60.8711 90.2109 60.5835 89.5165 60.5835 88.7925C60.5835 88.0685 60.8711 87.3741 61.3831 86.8622C61.895 86.3502 62.5894 86.0626 63.3134 86.0626Z" fill="#E3FF17"/>
<path d="M56.9435 92.4324C57.6675 92.4324 58.3619 92.72 58.8739 93.2319C59.3858 93.7439 59.6734 94.4383 59.6734 95.1623C59.6734 95.8863 59.3858 96.5807 58.8739 97.0926C58.3619 97.6046 57.6675 97.8922 56.9435 97.8922C56.2195 97.8922 55.5252 97.6046 55.0132 97.0926C54.5012 96.5807 54.2136 95.8863 54.2136 95.1623C54.2136 94.4383 54.5012 93.7439 55.0132 93.2319C55.5252 92.72 56.2195 92.4324 56.9435 92.4324Z" fill="#E3FF17"/>
<path d="M56.9435 98.8021C57.6675 98.8021 58.3619 99.0897 58.8739 99.6017C59.3858 100.114 59.6734 100.808 59.6734 101.532C59.6734 102.256 59.3858 102.95 58.8739 103.462C58.3619 103.974 57.6675 104.262 56.9435 104.262C56.2195 104.262 55.5252 103.974 55.0132 103.462C54.5012 102.95 54.2136 102.256 54.2136 101.532C54.2136 100.808 54.5012 100.114 55.0132 99.6017C55.5252 99.0897 56.2195 98.8021 56.9435 98.8021Z" fill="#E3FF17"/>
</svg>
