<svg width="126" height="126" viewBox="0 0 126 126" fill="none" xmlns="http://www.w3.org/2000/svg">
<rect x="2.42257e-06" y="4.32491e-06" width="126" height="126" rx="35.1045" fill="black"/>
<path d="M30.1434 30.1144C30.8286 30.1144 31.4858 30.3866 31.9704 30.8712C32.455 31.3557 32.7272 32.0129 32.7272 32.6982C32.7272 33.3835 32.455 34.0407 31.9704 34.5252C31.4858 35.0098 30.8286 35.282 30.1434 35.282C29.4581 35.282 28.8009 35.0098 28.3164 34.5252C27.8318 34.0407 27.5596 33.3835 27.5596 32.6982C27.5596 32.0129 27.8318 31.3557 28.3164 30.8712C28.8009 30.3866 29.4581 30.1144 30.1434 30.1144Z" fill="#E3FF17"/>
<path d="M36.1722 30.1144C36.8575 30.1144 37.5147 30.3866 37.9992 30.8712C38.4838 31.3557 38.756 32.0129 38.756 32.6982C38.756 33.3835 38.4838 34.0407 37.9992 34.5252C37.5147 35.0098 36.8575 35.282 36.1722 35.282C35.4869 35.282 34.8297 35.0098 34.3452 34.5252C33.8606 34.0407 33.5884 33.3835 33.5884 32.6982C33.5884 32.0129 33.8606 31.3557 34.3452 30.8712C34.8297 30.3866 35.4869 30.1144 36.1722 30.1144Z" fill="#E3FF17"/>
<path d="M30.1434 36.1433C30.8286 36.1433 31.4858 36.4155 31.9704 36.9001C32.455 37.3847 32.7272 38.0419 32.7272 38.7271C32.7272 39.4124 32.455 40.0696 31.9704 40.5541C31.4858 41.0387 30.8286 41.3109 30.1434 41.3109C29.4581 41.3109 28.8009 41.0387 28.3164 40.5541C27.8318 40.0696 27.5596 39.4124 27.5596 38.7271C27.5596 38.0419 27.8318 37.3847 28.3164 36.9001C28.8009 36.4155 29.4581 36.1433 30.1434 36.1433Z" fill="#E3FF17"/>
<path d="M36.1722 36.1433C36.8575 36.1433 37.5147 36.4155 37.9992 36.9001C38.4838 37.3847 38.756 38.0419 38.756 38.7271C38.756 39.4124 38.4838 40.0696 37.9992 40.5541C37.5147 41.0387 36.8575 41.3109 36.1722 41.3109C35.4869 41.3109 34.8297 41.0387 34.3452 40.5541C33.8606 40.0696 33.5884 39.4124 33.5884 38.7271C33.5884 38.0419 33.8606 37.3847 34.3452 36.9001C34.8297 36.4155 35.4869 36.1433 36.1722 36.1433Z" fill="#E3FF17"/>
<path d="M42.201 36.1433C42.8863 36.1433 43.5435 36.4155 44.028 36.9001C44.5126 37.3847 44.7848 38.0419 44.7848 38.7271C44.7848 39.4124 44.5126 40.0696 44.028 40.5541C43.5435 41.0387 42.8863 41.3109 42.201 41.3109C41.5157 41.3109 40.8585 41.0387 40.374 40.5541C39.8894 40.0696 39.6172 39.4124 39.6172 38.7271C39.6172 38.0419 39.8894 37.3847 40.374 36.9001C40.8585 36.4155 41.5157 36.1433 42.201 36.1433Z" fill="#E3FF17"/>
<path d="M48.23 36.1433C48.9153 36.1433 49.5725 36.4155 50.0571 36.9001C50.5416 37.3847 50.8138 38.0419 50.8138 38.7271C50.8138 39.4124 50.5416 40.0696 50.0571 40.5541C49.5725 41.0387 48.9153 41.3109 48.23 41.3109C47.5448 41.3109 46.8876 41.0387 46.403 40.5541C45.9185 40.0696 45.6462 39.4124 45.6462 38.7271C45.6462 38.0419 45.9185 37.3847 46.403 36.9001C46.8876 36.4155 47.5448 36.1433 48.23 36.1433Z" fill="#E3FF17"/>
<path d="M30.1434 42.1721C30.8286 42.1721 31.4858 42.4443 31.9704 42.9289C32.455 43.4135 32.7272 44.0707 32.7272 44.7559C32.7272 45.4412 32.455 46.0984 31.9704 46.583C31.4858 47.0675 30.8286 47.3397 30.1434 47.3397C29.4581 47.3397 28.8009 47.0675 28.3164 46.583C27.8318 46.0984 27.5596 45.4412 27.5596 44.7559C27.5596 44.0707 27.8318 43.4135 28.3164 42.9289C28.8009 42.4443 29.4581 42.1721 30.1434 42.1721Z" fill="#E3FF17"/>
<path d="M36.1722 42.1721C36.8575 42.1721 37.5147 42.4443 37.9992 42.9289C38.4838 43.4135 38.756 44.0707 38.756 44.7559C38.756 45.4412 38.4838 46.0984 37.9992 46.583C37.5147 47.0675 36.8575 47.3397 36.1722 47.3397C35.4869 47.3397 34.8297 47.0675 34.3452 46.583C33.8606 46.0984 33.5884 45.4412 33.5884 44.7559C33.5884 44.0707 33.8606 43.4135 34.3452 42.9289C34.8297 42.4443 35.4869 42.1721 36.1722 42.1721Z" fill="#E3FF17"/>
<path d="M42.201 42.1721C42.8863 42.1721 43.5435 42.4443 44.028 42.9289C44.5126 43.4135 44.7848 44.0707 44.7848 44.7559C44.7848 45.4412 44.5126 46.0984 44.028 46.583C43.5435 47.0675 42.8863 47.3397 42.201 47.3397C41.5157 47.3397 40.8585 47.0675 40.374 46.583C39.8894 46.0984 39.6172 45.4412 39.6172 44.7559C39.6172 44.0707 39.8894 43.4135 40.374 42.9289C40.8585 42.4443 41.5157 42.1721 42.201 42.1721Z" fill="#E3FF17"/>
<path d="M48.23 42.1721C48.9153 42.1721 49.5725 42.4443 50.0571 42.9289C50.5416 43.4135 50.8138 44.0707 50.8138 44.7559C50.8138 45.4412 50.5416 46.0984 50.0571 46.583C49.5725 47.0675 48.9153 47.3397 48.23 47.3397C47.5448 47.3397 46.8876 47.0675 46.403 46.583C45.9185 46.0984 45.6462 45.4412 45.6462 44.7559C45.6462 44.0707 45.9185 43.4135 46.403 42.9289C46.8876 42.4443 47.5448 42.1721 48.23 42.1721Z" fill="#E3FF17"/>
<path d="M54.2591 42.1721C54.9444 42.1721 55.6016 42.4443 56.0861 42.9289C56.5707 43.4135 56.8429 44.0707 56.8429 44.7559C56.8429 45.4412 56.5707 46.0984 56.0861 46.583C55.6016 47.0675 54.9444 47.3397 54.2591 47.3397C53.5738 47.3397 52.9166 47.0675 52.4321 46.583C51.9475 46.0984 51.6753 45.4412 51.6753 44.7559C51.6753 44.0707 51.9475 43.4135 52.4321 42.9289C52.9166 42.4443 53.5738 42.1721 54.2591 42.1721Z" fill="#E3FF17"/>
<path d="M60.2877 42.1721C60.9729 42.1721 61.6301 42.4443 62.1147 42.9289C62.5992 43.4135 62.8715 44.0707 62.8715 44.7559C62.8715 45.4412 62.5992 46.0984 62.1147 46.583C61.6301 47.0675 60.9729 47.3397 60.2877 47.3397C59.6024 47.3397 58.9452 47.0675 58.4606 46.583C57.9761 46.0984 57.7039 45.4412 57.7039 44.7559C57.7039 44.0707 57.9761 43.4135 58.4606 42.9289C58.9452 42.4443 59.6024 42.1721 60.2877 42.1721Z" fill="#E3FF17"/>
<path d="M66.3167 42.1721C67.002 42.1721 67.6592 42.4443 68.1437 42.9289C68.6283 43.4135 68.9005 44.0707 68.9005 44.7559C68.9005 45.4412 68.6283 46.0984 68.1437 46.583C67.6592 47.0675 67.002 47.3397 66.3167 47.3397C65.6314 47.3397 64.9742 47.0675 64.4897 46.583C64.0051 46.0984 63.7329 45.4412 63.7329 44.7559C63.7329 44.0707 64.0051 43.4135 64.4897 42.9289C64.9742 42.4443 65.6314 42.1721 66.3167 42.1721Z" fill="#E3FF17"/>
<path d="M72.3455 42.1721C73.0308 42.1721 73.688 42.4443 74.1726 42.9289C74.6571 43.4135 74.9293 44.0707 74.9293 44.7559C74.9293 45.4412 74.6571 46.0984 74.1726 46.583C73.688 47.0675 73.0308 47.3397 72.3455 47.3397C71.6603 47.3397 71.0031 47.0675 70.5185 46.583C70.0339 46.0984 69.7617 45.4412 69.7617 44.7559C69.7617 44.0707 70.0339 43.4135 70.5185 42.9289C71.0031 42.4443 71.6603 42.1721 72.3455 42.1721Z" fill="#E3FF17"/>
<path d="M78.3746 42.1721C79.0598 42.1721 79.717 42.4443 80.2016 42.9289C80.6862 43.4135 80.9584 44.0707 80.9584 44.7559C80.9584 45.4412 80.6862 46.0984 80.2016 46.583C79.717 47.0675 79.0598 47.3397 78.3746 47.3397C77.6893 47.3397 77.0321 47.0675 76.5476 46.583C76.063 46.0984 75.7908 45.4412 75.7908 44.7559C75.7908 44.0707 76.063 43.4135 76.5476 42.9289C77.0321 42.4443 77.6893 42.1721 78.3746 42.1721Z" fill="#E3FF17"/>
<path d="M84.4031 42.1721C85.0884 42.1721 85.7456 42.4443 86.2302 42.9289C86.7147 43.4135 86.9869 44.0707 86.9869 44.7559C86.9869 45.4412 86.7147 46.0984 86.2302 46.583C85.7456 47.0675 85.0884 47.3397 84.4031 47.3397C83.7179 47.3397 83.0607 47.0675 82.5761 46.583C82.0916 46.0984 81.8193 45.4412 81.8193 44.7559C81.8193 44.0707 82.0916 43.4135 82.5761 42.9289C83.0607 42.4443 83.7179 42.1721 84.4031 42.1721Z" fill="#E3FF17"/>
<path d="M90.4322 44.7127C90.4437 44.7127 90.4547 44.7172 90.4628 44.7253C90.471 44.7335 90.4755 44.7445 90.4755 44.756C90.4755 44.7674 90.471 44.7785 90.4628 44.7866C90.4547 44.7947 90.4437 44.7993 90.4322 44.7993C90.4207 44.7993 90.4097 44.7947 90.4016 44.7866C90.3935 44.7785 90.3889 44.7674 90.3889 44.756C90.3889 44.7445 90.3935 44.7335 90.4016 44.7253C90.4097 44.7172 90.4207 44.7127 90.4322 44.7127Z" fill="#E3FF17"/>
<path d="M30.1434 48.2011C30.8286 48.2011 31.4858 48.4733 31.9704 48.9578C32.455 49.4424 32.7272 50.0996 32.7272 50.7849C32.7272 51.4701 32.455 52.1273 31.9704 52.6119C31.4858 53.0964 30.8286 53.3687 30.1434 53.3687C29.4581 53.3687 28.8009 53.0964 28.3164 52.6119C27.8318 52.1273 27.5596 51.4701 27.5596 50.7849C27.5596 50.0996 27.8318 49.4424 28.3164 48.9578C28.8009 48.4733 29.4581 48.2011 30.1434 48.2011Z" fill="#E3FF17"/>
<path d="M36.1722 48.2011C36.8575 48.2011 37.5147 48.4733 37.9992 48.9578C38.4838 49.4424 38.756 50.0996 38.756 50.7849C38.756 51.4701 38.4838 52.1273 37.9992 52.6119C37.5147 53.0964 36.8575 53.3687 36.1722 53.3687C35.4869 53.3687 34.8297 53.0964 34.3452 52.6119C33.8606 52.1273 33.5884 51.4701 33.5884 50.7849C33.5884 50.0996 33.8606 49.4424 34.3452 48.9578C34.8297 48.4733 35.4869 48.2011 36.1722 48.2011Z" fill="#E3FF17"/>
<path d="M42.201 48.2011C42.8863 48.2011 43.5435 48.4733 44.028 48.9578C44.5126 49.4424 44.7848 50.0996 44.7848 50.7849C44.7848 51.4701 44.5126 52.1273 44.028 52.6119C43.5435 53.0964 42.8863 53.3687 42.201 53.3687C41.5157 53.3687 40.8585 53.0964 40.374 52.6119C39.8894 52.1273 39.6172 51.4701 39.6172 50.7849C39.6172 50.0996 39.8894 49.4424 40.374 48.9578C40.8585 48.4733 41.5157 48.2011 42.201 48.2011Z" fill="#E3FF17"/>
<path d="M48.23 48.2011C48.9153 48.2011 49.5725 48.4733 50.0571 48.9578C50.5416 49.4424 50.8138 50.0996 50.8138 50.7849C50.8138 51.4701 50.5416 52.1273 50.0571 52.6119C49.5725 53.0964 48.9153 53.3687 48.23 53.3687C47.5448 53.3687 46.8876 53.0964 46.403 52.6119C45.9185 52.1273 45.6462 51.4701 45.6462 50.7849C45.6462 50.0996 45.9185 49.4424 46.403 48.9578C46.8876 48.4733 47.5448 48.2011 48.23 48.2011Z" fill="#E3FF17"/>
<path d="M54.2591 48.2011C54.9444 48.2011 55.6016 48.4733 56.0861 48.9578C56.5707 49.4424 56.8429 50.0996 56.8429 50.7849C56.8429 51.4701 56.5707 52.1273 56.0861 52.6119C55.6016 53.0964 54.9444 53.3687 54.2591 53.3687C53.5738 53.3687 52.9166 53.0964 52.4321 52.6119C51.9475 52.1273 51.6753 51.4701 51.6753 50.7849C51.6753 50.0996 51.9475 49.4424 52.4321 48.9578C52.9166 48.4733 53.5738 48.2011 54.2591 48.2011Z" fill="#E3FF17"/>
<path d="M60.2877 48.2011C60.9729 48.2011 61.6301 48.4733 62.1147 48.9578C62.5992 49.4424 62.8715 50.0996 62.8715 50.7849C62.8715 51.4701 62.5992 52.1273 62.1147 52.6119C61.6301 53.0964 60.9729 53.3687 60.2877 53.3687C59.6024 53.3687 58.9452 53.0964 58.4606 52.6119C57.9761 52.1273 57.7039 51.4701 57.7039 50.7849C57.7039 50.0996 57.9761 49.4424 58.4606 48.9578C58.9452 48.4733 59.6024 48.2011 60.2877 48.2011Z" fill="#E3FF17"/>
<path d="M66.3167 48.2011C67.002 48.2011 67.6592 48.4733 68.1437 48.9578C68.6283 49.4424 68.9005 50.0996 68.9005 50.7849C68.9005 51.4701 68.6283 52.1273 68.1437 52.6119C67.6592 53.0964 67.002 53.3687 66.3167 53.3687C65.6314 53.3687 64.9742 53.0964 64.4897 52.6119C64.0051 52.1273 63.7329 51.4701 63.7329 50.7849C63.7329 50.0996 64.0051 49.4424 64.4897 48.9578C64.9742 48.4733 65.6314 48.2011 66.3167 48.2011Z" fill="#E3FF17"/>
<path d="M72.3455 48.2011C73.0308 48.2011 73.688 48.4733 74.1726 48.9578C74.6571 49.4424 74.9293 50.0996 74.9293 50.7849C74.9293 51.4701 74.6571 52.1273 74.1726 52.6119C73.688 53.0964 73.0308 53.3687 72.3455 53.3687C71.6603 53.3687 71.0031 53.0964 70.5185 52.6119C70.0339 52.1273 69.7617 51.4701 69.7617 50.7849C69.7617 50.0996 70.0339 49.4424 70.5185 48.9578C71.0031 48.4733 71.6603 48.2011 72.3455 48.2011Z" fill="#E3FF17"/>
<path d="M90.4322 48.3311C91.083 48.3311 91.7071 48.5896 92.1673 49.0498C92.6275 49.51 92.8861 50.1341 92.8861 50.785C92.8861 51.4358 92.6275 52.0599 92.1673 52.5201C91.7071 52.9803 91.083 53.2388 90.4322 53.2388C89.7814 53.2388 89.1572 52.9803 88.697 52.5201C88.2368 52.0599 87.9783 51.4358 87.9783 50.785C87.9783 50.1341 88.2368 49.51 88.697 49.0498C89.1572 48.5896 89.7814 48.3311 90.4322 48.3311Z" fill="#E3FF17"/>
<path d="M96.461 48.2011C97.1463 48.2011 97.8035 48.4733 98.288 48.9578C98.7726 49.4424 99.0448 50.0996 99.0448 50.7849C99.0448 51.4701 98.7726 52.1273 98.288 52.6119C97.8035 53.0964 97.1463 53.3687 96.461 53.3687C95.7757 53.3687 95.1185 53.0964 94.634 52.6119C94.1494 52.1273 93.8772 51.4701 93.8772 50.7849C93.8772 50.0996 94.1494 49.4424 94.634 48.9578C95.1185 48.4733 95.7757 48.2011 96.461 48.2011Z" fill="#E3FF17"/>
<path d="M30.1434 54.2299C30.8286 54.2299 31.4858 54.5021 31.9704 54.9866C32.455 55.4712 32.7272 56.1284 32.7272 56.8137C32.7272 57.4989 32.455 58.1561 31.9704 58.6407C31.4858 59.1252 30.8286 59.3975 30.1434 59.3975C29.4581 59.3975 28.8009 59.1252 28.3164 58.6407C27.8318 58.1561 27.5596 57.4989 27.5596 56.8137C27.5596 56.1284 27.8318 55.4712 28.3164 54.9866C28.8009 54.5021 29.4581 54.2299 30.1434 54.2299Z" fill="#E3FF17"/>
<path d="M36.1722 54.2299C36.8575 54.2299 37.5147 54.5021 37.9992 54.9866C38.4838 55.4712 38.756 56.1284 38.756 56.8137C38.756 57.4989 38.4838 58.1561 37.9992 58.6407C37.5147 59.1252 36.8575 59.3975 36.1722 59.3975C35.4869 59.3975 34.8297 59.1252 34.3452 58.6407C33.8606 58.1561 33.5884 57.4989 33.5884 56.8137C33.5884 56.1284 33.8606 55.4712 34.3452 54.9866C34.8297 54.5021 35.4869 54.2299 36.1722 54.2299Z" fill="#E3FF17"/>
<path d="M42.201 54.2299C42.8863 54.2299 43.5435 54.5021 44.028 54.9866C44.5126 55.4712 44.7848 56.1284 44.7848 56.8137C44.7848 57.4989 44.5126 58.1561 44.028 58.6407C43.5435 59.1252 42.8863 59.3975 42.201 59.3975C41.5157 59.3975 40.8585 59.1252 40.374 58.6407C39.8894 58.1561 39.6172 57.4989 39.6172 56.8137C39.6172 56.1284 39.8894 55.4712 40.374 54.9866C40.8585 54.5021 41.5157 54.2299 42.201 54.2299Z" fill="#E3FF17"/>
<path d="M48.23 54.2299C48.9153 54.2299 49.5725 54.5021 50.0571 54.9866C50.5416 55.4712 50.8138 56.1284 50.8138 56.8137C50.8138 57.4989 50.5416 58.1561 50.0571 58.6407C49.5725 59.1252 48.9153 59.3975 48.23 59.3975C47.5448 59.3975 46.8876 59.1252 46.403 58.6407C45.9185 58.1561 45.6462 57.4989 45.6462 56.8137C45.6462 56.1284 45.9185 55.4712 46.403 54.9866C46.8876 54.5021 47.5448 54.2299 48.23 54.2299Z" fill="#E3FF17"/>
<path d="M54.2591 54.2299C54.9444 54.2299 55.6016 54.5021 56.0861 54.9866C56.5707 55.4712 56.8429 56.1284 56.8429 56.8137C56.8429 57.4989 56.5707 58.1561 56.0861 58.6407C55.6016 59.1252 54.9444 59.3975 54.2591 59.3975C53.5738 59.3975 52.9166 59.1252 52.4321 58.6407C51.9475 58.1561 51.6753 57.4989 51.6753 56.8137C51.6753 56.1284 51.9475 55.4712 52.4321 54.9866C52.9166 54.5021 53.5738 54.2299 54.2591 54.2299Z" fill="#E3FF17"/>
<path d="M60.2877 54.2299C60.9729 54.2299 61.6301 54.5021 62.1147 54.9866C62.5992 55.4712 62.8715 56.1284 62.8715 56.8137C62.8715 57.4989 62.5992 58.1561 62.1147 58.6407C61.6301 59.1252 60.9729 59.3975 60.2877 59.3975C59.6024 59.3975 58.9452 59.1252 58.4606 58.6407C57.9761 58.1561 57.7039 57.4989 57.7039 56.8137C57.7039 56.1284 57.9761 55.4712 58.4606 54.9866C58.9452 54.5021 59.6024 54.2299 60.2877 54.2299Z" fill="#E3FF17"/>
<path d="M66.3167 54.2299C67.002 54.2299 67.6592 54.5021 68.1437 54.9866C68.6283 55.4712 68.9005 56.1284 68.9005 56.8137C68.9005 57.4989 68.6283 58.1561 68.1437 58.6407C67.6592 59.1252 67.002 59.3975 66.3167 59.3975C65.6314 59.3975 64.9742 59.1252 64.4897 58.6407C64.0051 58.1561 63.7329 57.4989 63.7329 56.8137C63.7329 56.1284 64.0051 55.4712 64.4897 54.9866C64.9742 54.5021 65.6314 54.2299 66.3167 54.2299Z" fill="#E3FF17"/>
<path d="M72.3455 54.2299C73.0308 54.2299 73.688 54.5021 74.1726 54.9866C74.6571 55.4712 74.9293 56.1284 74.9293 56.8137C74.9293 57.4989 74.6571 58.1561 74.1726 58.6407C73.688 59.1252 73.0308 59.3975 72.3455 59.3975C71.6603 59.3975 71.0031 59.1252 70.5185 58.6407C70.0339 58.1561 69.7617 57.4989 69.7617 56.8137C69.7617 56.1284 70.0339 55.4712 70.5185 54.9866C71.0031 54.5021 71.6603 54.2299 72.3455 54.2299Z" fill="#E3FF17"/>
<path d="M96.461 54.2299C97.1463 54.2299 97.8035 54.5021 98.288 54.9866C98.7726 55.4712 99.0448 56.1284 99.0448 56.8137C99.0448 57.4989 98.7726 58.1561 98.288 58.6407C97.8035 59.1252 97.1463 59.3975 96.461 59.3975C95.7757 59.3975 95.1185 59.1252 94.634 58.6407C94.1494 58.1561 93.8772 57.4989 93.8772 56.8137C93.8772 56.1284 94.1494 55.4712 94.634 54.9866C95.1185 54.5021 95.7757 54.2299 96.461 54.2299Z" fill="#E3FF17"/>
<path d="M30.1434 60.2588C30.8286 60.2588 31.4858 60.531 31.9704 61.0156C32.455 61.5001 32.7272 62.1573 32.7272 62.8426C32.7272 63.5279 32.455 64.1851 31.9704 64.6696C31.4858 65.1542 30.8286 65.4264 30.1434 65.4264C29.4581 65.4264 28.8009 65.1542 28.3164 64.6696C27.8318 64.1851 27.5596 63.5279 27.5596 62.8426C27.5596 62.1573 27.8318 61.5001 28.3164 61.0156C28.8009 60.531 29.4581 60.2588 30.1434 60.2588Z" fill="#E3FF17"/>
<path d="M36.1722 60.2588C36.8575 60.2588 37.5147 60.531 37.9992 61.0156C38.4838 61.5001 38.756 62.1573 38.756 62.8426C38.756 63.5279 38.4838 64.1851 37.9992 64.6696C37.5147 65.1542 36.8575 65.4264 36.1722 65.4264C35.4869 65.4264 34.8297 65.1542 34.3452 64.6696C33.8606 64.1851 33.5884 63.5279 33.5884 62.8426C33.5884 62.1573 33.8606 61.5001 34.3452 61.0156C34.8297 60.531 35.4869 60.2588 36.1722 60.2588Z" fill="#E3FF17"/>
<path d="M42.201 60.2588C42.8863 60.2588 43.5435 60.531 44.028 61.0156C44.5126 61.5001 44.7848 62.1573 44.7848 62.8426C44.7848 63.5279 44.5126 64.1851 44.028 64.6696C43.5435 65.1542 42.8863 65.4264 42.201 65.4264C41.5157 65.4264 40.8585 65.1542 40.374 64.6696C39.8894 64.1851 39.6172 63.5279 39.6172 62.8426C39.6172 62.1573 39.8894 61.5001 40.374 61.0156C40.8585 60.531 41.5157 60.2588 42.201 60.2588Z" fill="#E3FF17"/>
<path d="M48.23 60.2588C48.9153 60.2588 49.5725 60.531 50.0571 61.0156C50.5416 61.5001 50.8138 62.1573 50.8138 62.8426C50.8138 63.5279 50.5416 64.1851 50.0571 64.6696C49.5725 65.1542 48.9153 65.4264 48.23 65.4264C47.5448 65.4264 46.8876 65.1542 46.403 64.6696C45.9185 64.1851 45.6462 63.5279 45.6462 62.8426C45.6462 62.1573 45.9185 61.5001 46.403 61.0156C46.8876 60.531 47.5448 60.2588 48.23 60.2588Z" fill="#E3FF17"/>
<path d="M54.2591 60.2588C54.9444 60.2588 55.6016 60.531 56.0861 61.0156C56.5707 61.5001 56.8429 62.1573 56.8429 62.8426C56.8429 63.5279 56.5707 64.1851 56.0861 64.6696C55.6016 65.1542 54.9444 65.4264 54.2591 65.4264C53.5738 65.4264 52.9166 65.1542 52.4321 64.6696C51.9475 64.1851 51.6753 63.5279 51.6753 62.8426C51.6753 62.1573 51.9475 61.5001 52.4321 61.0156C52.9166 60.531 53.5738 60.2588 54.2591 60.2588Z" fill="#E3FF17"/>
<path d="M60.2877 60.2588C60.9729 60.2588 61.6301 60.531 62.1147 61.0156C62.5992 61.5001 62.8715 62.1573 62.8715 62.8426C62.8715 63.5279 62.5992 64.1851 62.1147 64.6696C61.6301 65.1542 60.9729 65.4264 60.2877 65.4264C59.6024 65.4264 58.9452 65.1542 58.4606 64.6696C57.9761 64.1851 57.7039 63.5279 57.7039 62.8426C57.7039 62.1573 57.9761 61.5001 58.4606 61.0156C58.9452 60.531 59.6024 60.2588 60.2877 60.2588Z" fill="#E3FF17"/>
<path d="M66.3167 60.2588C67.002 60.2588 67.6592 60.531 68.1437 61.0156C68.6283 61.5001 68.9005 62.1573 68.9005 62.8426C68.9005 63.5279 68.6283 64.1851 68.1437 64.6696C67.6592 65.1542 67.002 65.4264 66.3167 65.4264C65.6314 65.4264 64.9742 65.1542 64.4897 64.6696C64.0051 64.1851 63.7329 63.5279 63.7329 62.8426C63.7329 62.1573 64.0051 61.5001 64.4897 61.0156C64.9742 60.531 65.6314 60.2588 66.3167 60.2588Z" fill="#E3FF17"/>
<path d="M72.3455 60.2588C73.0308 60.2588 73.688 60.531 74.1726 61.0156C74.6571 61.5001 74.9293 62.1573 74.9293 62.8426C74.9293 63.5279 74.6571 64.1851 74.1726 64.6696C73.688 65.1542 73.0308 65.4264 72.3455 65.4264C71.6603 65.4264 71.0031 65.1542 70.5185 64.6696C70.0339 64.1851 69.7617 63.5279 69.7617 62.8426C69.7617 62.1573 70.0339 61.5001 70.5185 61.0156C71.0031 60.531 71.6603 60.2588 72.3455 60.2588Z" fill="#E3FF17"/>
<path d="M96.461 60.2588C97.1463 60.2588 97.8035 60.531 98.288 61.0156C98.7726 61.5001 99.0448 62.1573 99.0448 62.8426C99.0448 63.5279 98.7726 64.1851 98.288 64.6696C97.8035 65.1542 97.1463 65.4264 96.461 65.4264C95.7757 65.4264 95.1185 65.1542 94.634 64.6696C94.1494 64.1851 93.8772 63.5279 93.8772 62.8426C93.8772 62.1573 94.1494 61.5001 94.634 61.0156C95.1185 60.531 95.7757 60.2588 96.461 60.2588Z" fill="#E3FF17"/>
<path d="M30.1434 66.2876C30.8286 66.2876 31.4858 66.5598 31.9704 67.0444C32.455 67.5289 32.7272 68.1861 32.7272 68.8714C32.7272 69.5567 32.455 70.2139 31.9704 70.6984C31.4858 71.183 30.8286 71.4552 30.1434 71.4552C29.4581 71.4552 28.8009 71.183 28.3164 70.6984C27.8318 70.2139 27.5596 69.5567 27.5596 68.8714C27.5596 68.1861 27.8318 67.5289 28.3164 67.0444C28.8009 66.5598 29.4581 66.2876 30.1434 66.2876Z" fill="#E3FF17"/>
<path d="M36.1722 66.2876C36.8575 66.2876 37.5147 66.5598 37.9992 67.0444C38.4838 67.5289 38.756 68.1861 38.756 68.8714C38.756 69.5567 38.4838 70.2139 37.9992 70.6984C37.5147 71.183 36.8575 71.4552 36.1722 71.4552C35.4869 71.4552 34.8297 71.183 34.3452 70.6984C33.8606 70.2139 33.5884 69.5567 33.5884 68.8714C33.5884 68.1861 33.8606 67.5289 34.3452 67.0444C34.8297 66.5598 35.4869 66.2876 36.1722 66.2876Z" fill="#E3FF17"/>
<path d="M42.201 66.2876C42.8863 66.2876 43.5435 66.5598 44.028 67.0444C44.5126 67.5289 44.7848 68.1861 44.7848 68.8714C44.7848 69.5567 44.5126 70.2139 44.028 70.6984C43.5435 71.183 42.8863 71.4552 42.201 71.4552C41.5157 71.4552 40.8585 71.183 40.374 70.6984C39.8894 70.2139 39.6172 69.5567 39.6172 68.8714C39.6172 68.1861 39.8894 67.5289 40.374 67.0444C40.8585 66.5598 41.5157 66.2876 42.201 66.2876Z" fill="#E3FF17"/>
<path d="M48.23 66.2876C48.9153 66.2876 49.5725 66.5598 50.0571 67.0444C50.5416 67.5289 50.8138 68.1861 50.8138 68.8714C50.8138 69.5567 50.5416 70.2139 50.0571 70.6984C49.5725 71.183 48.9153 71.4552 48.23 71.4552C47.5448 71.4552 46.8876 71.183 46.403 70.6984C45.9185 70.2139 45.6462 69.5567 45.6462 68.8714C45.6462 68.1861 45.9185 67.5289 46.403 67.0444C46.8876 66.5598 47.5448 66.2876 48.23 66.2876Z" fill="#E3FF17"/>
<path d="M54.2591 66.2876C54.9444 66.2876 55.6016 66.5598 56.0861 67.0444C56.5707 67.5289 56.8429 68.1861 56.8429 68.8714C56.8429 69.5567 56.5707 70.2139 56.0861 70.6984C55.6016 71.183 54.9444 71.4552 54.2591 71.4552C53.5738 71.4552 52.9166 71.183 52.4321 70.6984C51.9475 70.2139 51.6753 69.5567 51.6753 68.8714C51.6753 68.1861 51.9475 67.5289 52.4321 67.0444C52.9166 66.5598 53.5738 66.2876 54.2591 66.2876Z" fill="#E3FF17"/>
<path d="M60.2877 66.2876C60.9729 66.2876 61.6301 66.5598 62.1147 67.0444C62.5992 67.5289 62.8715 68.1861 62.8715 68.8714C62.8715 69.5567 62.5992 70.2139 62.1147 70.6984C61.6301 71.183 60.9729 71.4552 60.2877 71.4552C59.6024 71.4552 58.9452 71.183 58.4606 70.6984C57.9761 70.2139 57.7039 69.5567 57.7039 68.8714C57.7039 68.1861 57.9761 67.5289 58.4606 67.0444C58.9452 66.5598 59.6024 66.2876 60.2877 66.2876Z" fill="#E3FF17"/>
<path d="M66.3167 66.2876C67.002 66.2876 67.6592 66.5598 68.1437 67.0444C68.6283 67.5289 68.9005 68.1861 68.9005 68.8714C68.9005 69.5567 68.6283 70.2139 68.1437 70.6984C67.6592 71.183 67.002 71.4552 66.3167 71.4552C65.6314 71.4552 64.9742 71.183 64.4897 70.6984C64.0051 70.2139 63.7329 69.5567 63.7329 68.8714C63.7329 68.1861 64.0051 67.5289 64.4897 67.0444C64.9742 66.5598 65.6314 66.2876 66.3167 66.2876Z" fill="#E3FF17"/>
<path d="M72.3455 66.2876C73.0308 66.2876 73.688 66.5598 74.1726 67.0444C74.6571 67.5289 74.9293 68.1861 74.9293 68.8714C74.9293 69.5567 74.6571 70.2139 74.1726 70.6984C73.688 71.183 73.0308 71.4552 72.3455 71.4552C71.6603 71.4552 71.0031 71.183 70.5185 70.6984C70.0339 70.2139 69.7617 69.5567 69.7617 68.8714C69.7617 68.1861 70.0339 67.5289 70.5185 67.0444C71.0031 66.5598 71.6603 66.2876 72.3455 66.2876Z" fill="#E3FF17"/>
<path d="M90.4321 66.3309C91.1059 66.3309 91.7521 66.5986 92.2285 67.075C92.7049 67.5515 92.9726 68.1977 92.9726 68.8714C92.9726 69.5452 92.7049 70.1914 92.2285 70.6678C91.7521 71.1443 91.1059 71.4119 90.4321 71.4119C89.7583 71.4119 89.1121 71.1443 88.6357 70.6678C88.1593 70.1914 87.8916 69.5452 87.8916 68.8714C87.8916 68.1977 88.1593 67.5515 88.6357 67.075C89.1121 66.5986 89.7583 66.3309 90.4321 66.3309Z" fill="#E3FF17"/>
<path d="M96.461 66.2876C97.1463 66.2876 97.8035 66.5598 98.288 67.0444C98.7726 67.5289 99.0448 68.1861 99.0448 68.8714C99.0448 69.5567 98.7726 70.2139 98.288 70.6984C97.8035 71.183 97.1463 71.4552 96.461 71.4552C95.7757 71.4552 95.1185 71.183 94.634 70.6984C94.1494 70.2139 93.8772 69.5567 93.8772 68.8714C93.8772 68.1861 94.1494 67.5289 94.634 67.0444C95.1185 66.5598 95.7757 66.2876 96.461 66.2876Z" fill="#E3FF17"/>
<path d="M30.1434 72.3165C30.8286 72.3165 31.4858 72.5888 31.9704 73.0733C32.455 73.5579 32.7272 74.2151 32.7272 74.9003C32.7272 75.5856 32.455 76.2428 31.9704 76.7274C31.4858 77.2119 30.8286 77.4841 30.1434 77.4841C29.4581 77.4841 28.8009 77.2119 28.3164 76.7274C27.8318 76.2428 27.5596 75.5856 27.5596 74.9003C27.5596 74.2151 27.8318 73.5579 28.3164 73.0733C28.8009 72.5888 29.4581 72.3165 30.1434 72.3165Z" fill="#E3FF17"/>
<path d="M36.1722 72.3165C36.8575 72.3165 37.5147 72.5888 37.9992 73.0733C38.4838 73.5579 38.756 74.2151 38.756 74.9003C38.756 75.5856 38.4838 76.2428 37.9992 76.7274C37.5147 77.2119 36.8575 77.4841 36.1722 77.4841C35.4869 77.4841 34.8297 77.2119 34.3452 76.7274C33.8606 76.2428 33.5884 75.5856 33.5884 74.9003C33.5884 74.2151 33.8606 73.5579 34.3452 73.0733C34.8297 72.5888 35.4869 72.3165 36.1722 72.3165Z" fill="#E3FF17"/>
<path d="M42.201 72.3165C42.8863 72.3165 43.5435 72.5888 44.028 73.0733C44.5126 73.5579 44.7848 74.2151 44.7848 74.9003C44.7848 75.5856 44.5126 76.2428 44.028 76.7274C43.5435 77.2119 42.8863 77.4841 42.201 77.4841C41.5157 77.4841 40.8585 77.2119 40.374 76.7274C39.8894 76.2428 39.6172 75.5856 39.6172 74.9003C39.6172 74.2151 39.8894 73.5579 40.374 73.0733C40.8585 72.5888 41.5157 72.3165 42.201 72.3165Z" fill="#E3FF17"/>
<path d="M48.23 72.3165C48.9153 72.3165 49.5725 72.5888 50.0571 73.0733C50.5416 73.5579 50.8138 74.2151 50.8138 74.9003C50.8138 75.5856 50.5416 76.2428 50.0571 76.7274C49.5725 77.2119 48.9153 77.4841 48.23 77.4841C47.5448 77.4841 46.8876 77.2119 46.403 76.7274C45.9185 76.2428 45.6462 75.5856 45.6462 74.9003C45.6462 74.2151 45.9185 73.5579 46.403 73.0733C46.8876 72.5888 47.5448 72.3165 48.23 72.3165Z" fill="#E3FF17"/>
<path d="M54.2591 72.3165C54.9444 72.3165 55.6016 72.5888 56.0861 73.0733C56.5707 73.5579 56.8429 74.2151 56.8429 74.9003C56.8429 75.5856 56.5707 76.2428 56.0861 76.7274C55.6016 77.2119 54.9444 77.4841 54.2591 77.4841C53.5738 77.4841 52.9166 77.2119 52.4321 76.7274C51.9475 76.2428 51.6753 75.5856 51.6753 74.9003C51.6753 74.2151 51.9475 73.5579 52.4321 73.0733C52.9166 72.5888 53.5738 72.3165 54.2591 72.3165Z" fill="#E3FF17"/>
<path d="M60.2877 72.3165C60.9729 72.3165 61.6301 72.5888 62.1147 73.0733C62.5992 73.5579 62.8715 74.2151 62.8715 74.9003C62.8715 75.5856 62.5992 76.2428 62.1147 76.7274C61.6301 77.2119 60.9729 77.4841 60.2877 77.4841C59.6024 77.4841 58.9452 77.2119 58.4606 76.7274C57.9761 76.2428 57.7039 75.5856 57.7039 74.9003C57.7039 74.2151 57.9761 73.5579 58.4606 73.0733C58.9452 72.5888 59.6024 72.3165 60.2877 72.3165Z" fill="#E3FF17"/>
<path d="M66.3167 72.3165C67.002 72.3165 67.6592 72.5888 68.1437 73.0733C68.6283 73.5579 68.9005 74.2151 68.9005 74.9003C68.9005 75.5856 68.6283 76.2428 68.1437 76.7274C67.6592 77.2119 67.002 77.4841 66.3167 77.4841C65.6314 77.4841 64.9742 77.2119 64.4897 76.7274C64.0051 76.2428 63.7329 75.5856 63.7329 74.9003C63.7329 74.2151 64.0051 73.5579 64.4897 73.0733C64.9742 72.5888 65.6314 72.3165 66.3167 72.3165Z" fill="#E3FF17"/>
<path d="M72.3455 72.3165C73.0308 72.3165 73.688 72.5888 74.1726 73.0733C74.6571 73.5579 74.9293 74.2151 74.9293 74.9003C74.9293 75.5856 74.6571 76.2428 74.1726 76.7274C73.688 77.2119 73.0308 77.4841 72.3455 77.4841C71.6603 77.4841 71.0031 77.2119 70.5185 76.7274C70.0339 76.2428 69.7617 75.5856 69.7617 74.9003C69.7617 74.2151 70.0339 73.5579 70.5185 73.0733C71.0031 72.5888 71.6603 72.3165 72.3455 72.3165Z" fill="#E3FF17"/>
<path d="M78.3746 72.3165C79.0598 72.3165 79.717 72.5888 80.2016 73.0733C80.6862 73.5579 80.9584 74.2151 80.9584 74.9003C80.9584 75.5856 80.6862 76.2428 80.2016 76.7274C79.717 77.2119 79.0598 77.4841 78.3746 77.4841C77.6893 77.4841 77.0321 77.2119 76.5476 76.7274C76.063 76.2428 75.7908 75.5856 75.7908 74.9003C75.7908 74.2151 76.063 73.5579 76.5476 73.0733C77.0321 72.5888 77.6893 72.3165 78.3746 72.3165Z" fill="#E3FF17"/>
<path d="M84.4031 72.3165C85.0884 72.3165 85.7456 72.5888 86.2302 73.0733C86.7147 73.5579 86.9869 74.2151 86.9869 74.9003C86.9869 75.5856 86.7147 76.2428 86.2302 76.7274C85.7456 77.2119 85.0884 77.4841 84.4031 77.4841C83.7179 77.4841 83.0607 77.2119 82.5761 76.7274C82.0916 76.2428 81.8193 75.5856 81.8193 74.9003C81.8193 74.2151 82.0916 73.5579 82.5761 73.0733C83.0607 72.5888 83.7179 72.3165 84.4031 72.3165Z" fill="#E3FF17"/>
<path d="M30.1434 78.3453C30.8286 78.3453 31.4858 78.6176 31.9704 79.1021C32.455 79.5867 32.7272 80.2439 32.7272 80.9291C32.7272 81.6144 32.455 82.2716 31.9704 82.7562C31.4858 83.2407 30.8286 83.5129 30.1434 83.5129C29.4581 83.5129 28.8009 83.2407 28.3164 82.7562C27.8318 82.2716 27.5596 81.6144 27.5596 80.9291C27.5596 80.2439 27.8318 79.5867 28.3164 79.1021C28.8009 78.6176 29.4581 78.3453 30.1434 78.3453Z" fill="#E3FF17"/>
<path d="M36.1722 78.3453C36.8575 78.3453 37.5147 78.6176 37.9992 79.1021C38.4838 79.5867 38.756 80.2439 38.756 80.9291C38.756 81.6144 38.4838 82.2716 37.9992 82.7562C37.5147 83.2407 36.8575 83.5129 36.1722 83.5129C35.4869 83.5129 34.8297 83.2407 34.3452 82.7562C33.8606 82.2716 33.5884 81.6144 33.5884 80.9291C33.5884 80.2439 33.8606 79.5867 34.3452 79.1021C34.8297 78.6176 35.4869 78.3453 36.1722 78.3453Z" fill="#E3FF17"/>
<path d="M42.201 78.3453C42.8863 78.3453 43.5435 78.6176 44.028 79.1021C44.5126 79.5867 44.7848 80.2439 44.7848 80.9291C44.7848 81.6144 44.5126 82.2716 44.028 82.7562C43.5435 83.2407 42.8863 83.5129 42.201 83.5129C41.5157 83.5129 40.8585 83.2407 40.374 82.7562C39.8894 82.2716 39.6172 81.6144 39.6172 80.9291C39.6172 80.2439 39.8894 79.5867 40.374 79.1021C40.8585 78.6176 41.5157 78.3453 42.201 78.3453Z" fill="#E3FF17"/>
<path d="M48.23 78.3453C48.9153 78.3453 49.5725 78.6176 50.0571 79.1021C50.5416 79.5867 50.8138 80.2439 50.8138 80.9291C50.8138 81.6144 50.5416 82.2716 50.0571 82.7562C49.5725 83.2407 48.9153 83.5129 48.23 83.5129C47.5448 83.5129 46.8876 83.2407 46.403 82.7562C45.9185 82.2716 45.6462 81.6144 45.6462 80.9291C45.6462 80.2439 45.9185 79.5867 46.403 79.1021C46.8876 78.6176 47.5448 78.3453 48.23 78.3453Z" fill="#E3FF17"/>
<path d="M72.3455 78.3453C73.0308 78.3453 73.688 78.6176 74.1726 79.1021C74.6571 79.5867 74.9293 80.2439 74.9293 80.9291C74.9293 81.6144 74.6571 82.2716 74.1726 82.7562C73.688 83.2407 73.0308 83.5129 72.3455 83.5129C71.6603 83.5129 71.0031 83.2407 70.5185 82.7562C70.0339 82.2716 69.7617 81.6144 69.7617 80.9291C69.7617 80.2439 70.0339 79.5867 70.5185 79.1021C71.0031 78.6176 71.6603 78.3453 72.3455 78.3453Z" fill="#E3FF17"/>
<path d="M84.4031 78.3453C85.0884 78.3453 85.7456 78.6176 86.2302 79.1021C86.7147 79.5867 86.9869 80.2439 86.9869 80.9291C86.9869 81.6144 86.7147 82.2716 86.2302 82.7562C85.7456 83.2407 85.0884 83.5129 84.4031 83.5129C83.7179 83.5129 83.0607 83.2407 82.5761 82.7562C82.0916 82.2716 81.8193 81.6144 81.8193 80.9291C81.8193 80.2439 82.0916 79.5867 82.5761 79.1021C83.0607 78.6176 83.7179 78.3453 84.4031 78.3453Z" fill="#E3FF17"/>
<path d="M30.1434 84.3743C30.8286 84.3743 31.4858 84.6465 31.9704 85.131C32.455 85.6156 32.7272 86.2728 32.7272 86.9581C32.7272 87.6433 32.455 88.3005 31.9704 88.7851C31.4858 89.2697 30.8286 89.5419 30.1434 89.5419C29.4581 89.5419 28.8009 89.2697 28.3164 88.7851C27.8318 88.3005 27.5596 87.6433 27.5596 86.9581C27.5596 86.2728 27.8318 85.6156 28.3164 85.131C28.8009 84.6465 29.4581 84.3743 30.1434 84.3743Z" fill="#E3FF17"/>
<path d="M36.1722 84.3743C36.8575 84.3743 37.5147 84.6465 37.9992 85.131C38.4838 85.6156 38.756 86.2728 38.756 86.9581C38.756 87.6433 38.4838 88.3005 37.9992 88.7851C37.5147 89.2697 36.8575 89.5419 36.1722 89.5419C35.4869 89.5419 34.8297 89.2697 34.3452 88.7851C33.8606 88.3005 33.5884 87.6433 33.5884 86.9581C33.5884 86.2728 33.8606 85.6156 34.3452 85.131C34.8297 84.6465 35.4869 84.3743 36.1722 84.3743Z" fill="#E3FF17"/>
<path d="M72.3455 84.3743C73.0308 84.3743 73.688 84.6465 74.1726 85.131C74.6571 85.6156 74.9293 86.2728 74.9293 86.9581C74.9293 87.6433 74.6571 88.3005 74.1726 88.7851C73.688 89.2697 73.0308 89.5419 72.3455 89.5419C71.6603 89.5419 71.0031 89.2697 70.5185 88.7851C70.0339 88.3005 69.7617 87.6433 69.7617 86.9581C69.7617 86.2728 70.0339 85.6156 70.5185 85.131C71.0031 84.6465 71.6603 84.3743 72.3455 84.3743Z" fill="#E3FF17"/>
<path d="M78.3746 84.3743C79.0598 84.3743 79.717 84.6465 80.2016 85.131C80.6862 85.6156 80.9584 86.2728 80.9584 86.9581C80.9584 87.6433 80.6862 88.3005 80.2016 88.7851C79.717 89.2697 79.0598 89.5419 78.3746 89.5419C77.6893 89.5419 77.0321 89.2697 76.5476 88.7851C76.063 88.3005 75.7908 87.6433 75.7908 86.9581C75.7908 86.2728 76.063 85.6156 76.5476 85.131C77.0321 84.6465 77.6893 84.3743 78.3746 84.3743Z" fill="#E3FF17"/>
<path d="M78.3746 90.4032C79.0598 90.4032 79.717 90.6754 80.2016 91.16C80.6862 91.6445 80.9584 92.3017 80.9584 92.987C80.9584 93.6723 80.6862 94.3295 80.2016 94.814C79.717 95.2986 79.0598 95.5708 78.3746 95.5708C77.6893 95.5708 77.0321 95.2986 76.5476 94.814C76.063 94.3295 75.7908 93.6723 75.7908 92.987C75.7908 92.3017 76.063 91.6445 76.5476 91.16C77.0321 90.6754 77.6893 90.4032 78.3746 90.4032Z" fill="#E3FF17"/>
</svg>
