<svg width="126" height="126" viewBox="0 0 126 126" fill="none" xmlns="http://www.w3.org/2000/svg">
<rect x="2.42257e-06" y="4.32491e-06" width="126" height="126" rx="35.1045" fill="black"/>
<path d="M79.8016 34.4777C80.4382 34.4777 81.0487 34.7305 81.4988 35.1807C81.949 35.6308 82.2018 36.2413 82.2018 36.8779C82.2018 37.5145 81.949 38.125 81.4988 38.5751C81.0487 39.0253 80.4382 39.2781 79.8016 39.2781C79.165 39.2781 78.5545 39.0253 78.1044 38.5751C77.6542 38.125 77.4014 37.5145 77.4014 36.8779C77.4014 36.2413 77.6542 35.6308 78.1044 35.1807C78.5545 34.7305 79.165 34.4777 79.8016 34.4777Z" fill="#E3FF17"/>
<path d="M85.4022 34.4777C86.0388 34.4777 86.6493 34.7305 87.0994 35.1807C87.5495 35.6308 87.8024 36.2413 87.8024 36.8779C87.8024 37.5145 87.5495 38.125 87.0994 38.5751C86.6493 39.0253 86.0388 39.2781 85.4022 39.2781C84.7656 39.2781 84.1551 39.0253 83.705 38.5751C83.2548 38.125 83.002 37.5145 83.002 36.8779C83.002 36.2413 83.2548 35.6308 83.705 35.1807C84.1551 34.7305 84.7656 34.4777 85.4022 34.4777Z" fill="#E3FF17"/>
<path d="M91.0028 34.4777C91.6394 34.4777 92.2499 34.7305 92.7 35.1807C93.1501 35.6308 93.403 36.2413 93.403 36.8779C93.403 37.5145 93.1501 38.125 92.7 38.5751C92.2499 39.0253 91.6394 39.2781 91.0028 39.2781C90.3662 39.2781 89.7557 39.0253 89.3056 38.5751C88.8554 38.125 88.6025 37.5145 88.6025 36.8779C88.6025 36.2413 88.8554 35.6308 89.3056 35.1807C89.7557 34.7305 90.3662 34.4777 91.0028 34.4777Z" fill="#E3FF17"/>
<path d="M68.6009 40.0783C69.2375 40.0783 69.848 40.3311 70.2981 40.7813C70.7483 41.2314 71.0012 41.8419 71.0012 42.4785C71.0012 43.1151 70.7483 43.7256 70.2981 44.1757C69.848 44.6258 69.2375 44.8787 68.6009 44.8787C67.9643 44.8787 67.3538 44.6258 66.9037 44.1757C66.4536 43.7256 66.2007 43.1151 66.2007 42.4785C66.2007 41.8419 66.4536 41.2314 66.9037 40.7813C67.3538 40.3311 67.9643 40.0783 68.6009 40.0783Z" fill="#E3FF17"/>
<path d="M74.201 40.0783C74.8376 40.0783 75.4481 40.3311 75.8982 40.7813C76.3484 41.2314 76.6013 41.8419 76.6013 42.4785C76.6013 43.1151 76.3484 43.7256 75.8982 44.1757C75.4481 44.6258 74.8376 44.8787 74.201 44.8787C73.5644 44.8787 72.9539 44.6258 72.5038 44.1757C72.0537 43.7256 71.8008 43.1151 71.8008 42.4785C71.8008 41.8419 72.0537 41.2314 72.5038 40.7813C72.9539 40.3311 73.5644 40.0783 74.201 40.0783Z" fill="#E3FF17"/>
<path d="M79.8016 40.0783C80.4382 40.0783 81.0487 40.3311 81.4988 40.7813C81.949 41.2314 82.2018 41.8419 82.2018 42.4785C82.2018 43.1151 81.949 43.7256 81.4988 44.1757C81.0487 44.6258 80.4382 44.8787 79.8016 44.8787C79.165 44.8787 78.5545 44.6258 78.1044 44.1757C77.6542 43.7256 77.4014 43.1151 77.4014 42.4785C77.4014 41.8419 77.6542 41.2314 78.1044 40.7813C78.5545 40.3311 79.165 40.0783 79.8016 40.0783Z" fill="#E3FF17"/>
<path d="M85.4022 40.0783C86.0388 40.0783 86.6493 40.3311 87.0994 40.7813C87.5495 41.2314 87.8024 41.8419 87.8024 42.4785C87.8024 43.1151 87.5495 43.7256 87.0994 44.1757C86.6493 44.6258 86.0388 44.8787 85.4022 44.8787C84.7656 44.8787 84.1551 44.6258 83.705 44.1757C83.2548 43.7256 83.002 43.1151 83.002 42.4785C83.002 41.8419 83.2548 41.2314 83.705 40.7813C84.1551 40.3311 84.7656 40.0783 85.4022 40.0783Z" fill="#E3FF17"/>
<path d="M91.0028 40.0783C91.6394 40.0783 92.2499 40.3311 92.7 40.7813C93.1501 41.2314 93.403 41.8419 93.403 42.4785C93.403 43.1151 93.1501 43.7256 92.7 44.1757C92.2499 44.6258 91.6394 44.8787 91.0028 44.8787C90.3662 44.8787 89.7557 44.6258 89.3056 44.1757C88.8554 43.7256 88.6025 43.1151 88.6025 42.4785C88.6025 41.8419 88.8554 41.2314 89.3056 40.7813C89.7557 40.3311 90.3662 40.0783 91.0028 40.0783Z" fill="#E3FF17"/>
<path d="M40.598 45.6787C41.2346 45.6787 41.8451 45.9316 42.2952 46.3817C42.7453 46.8319 42.9982 47.4424 42.9982 48.079C42.9982 48.7155 42.7453 49.326 42.2952 49.7762C41.8451 50.2263 41.2346 50.4792 40.598 50.4792C39.9614 50.4792 39.3509 50.2263 38.9008 49.7762C38.4506 49.326 38.1978 48.7155 38.1978 48.079C38.1978 47.4424 38.4506 46.8319 38.9008 46.3817C39.3509 45.9316 39.9614 45.6787 40.598 45.6787Z" fill="#E3FF17"/>
<path d="M46.1986 45.6787C46.8352 45.6787 47.4457 45.9316 47.8958 46.3817C48.3459 46.8319 48.5988 47.4424 48.5988 48.079C48.5988 48.7155 48.3459 49.326 47.8958 49.7762C47.4457 50.2263 46.8352 50.4792 46.1986 50.4792C45.562 50.4792 44.9515 50.2263 44.5014 49.7762C44.0512 49.326 43.7983 48.7155 43.7983 48.079C43.7983 47.4424 44.0512 46.8319 44.5014 46.3817C44.9515 45.9316 45.562 45.6787 46.1986 45.6787Z" fill="#E3FF17"/>
<path d="M51.7992 45.6787C52.4357 45.6787 53.0463 45.9316 53.4964 46.3817C53.9465 46.8319 54.1994 47.4424 54.1994 48.079C54.1994 48.7155 53.9465 49.326 53.4964 49.7762C53.0463 50.2263 52.4357 50.4792 51.7992 50.4792C51.1626 50.4792 50.5521 50.2263 50.1019 49.7762C49.6518 49.326 49.3989 48.7155 49.3989 48.079C49.3989 47.4424 49.6518 46.8319 50.1019 46.3817C50.5521 45.9316 51.1626 45.6787 51.7992 45.6787Z" fill="#E3FF17"/>
<path d="M63.0003 45.6787C63.6369 45.6787 64.2474 45.9316 64.6976 46.3817C65.1477 46.8319 65.4006 47.4424 65.4006 48.079C65.4006 48.7155 65.1477 49.326 64.6976 49.7762C64.2474 50.2263 63.6369 50.4792 63.0003 50.4792C62.3638 50.4792 61.7532 50.2263 61.3031 49.7762C60.853 49.326 60.6001 48.7155 60.6001 48.079C60.6001 47.4424 60.853 46.8319 61.3031 46.3817C61.7532 45.9316 62.3638 45.6787 63.0003 45.6787Z" fill="#E3FF17"/>
<path d="M68.6009 45.6787C69.2375 45.6787 69.848 45.9316 70.2981 46.3817C70.7483 46.8319 71.0012 47.4424 71.0012 48.079C71.0012 48.7155 70.7483 49.326 70.2981 49.7762C69.848 50.2263 69.2375 50.4792 68.6009 50.4792C67.9643 50.4792 67.3538 50.2263 66.9037 49.7762C66.4536 49.326 66.2007 48.7155 66.2007 48.079C66.2007 47.4424 66.4536 46.8319 66.9037 46.3817C67.3538 45.9316 67.9643 45.6787 68.6009 45.6787Z" fill="#E3FF17"/>
<path d="M74.201 45.6787C74.8376 45.6787 75.4481 45.9316 75.8982 46.3817C76.3484 46.8319 76.6013 47.4424 76.6013 48.079C76.6013 48.7155 76.3484 49.326 75.8982 49.7762C75.4481 50.2263 74.8376 50.4792 74.201 50.4792C73.5644 50.4792 72.9539 50.2263 72.5038 49.7762C72.0537 49.326 71.8008 48.7155 71.8008 48.079C71.8008 47.4424 72.0537 46.8319 72.5038 46.3817C72.9539 45.9316 73.5644 45.6787 74.201 45.6787Z" fill="#E3FF17"/>
<path d="M79.8016 45.6787C80.4382 45.6787 81.0487 45.9316 81.4988 46.3817C81.949 46.8319 82.2018 47.4424 82.2018 48.079C82.2018 48.7155 81.949 49.326 81.4988 49.7762C81.0487 50.2263 80.4382 50.4792 79.8016 50.4792C79.165 50.4792 78.5545 50.2263 78.1044 49.7762C77.6542 49.326 77.4014 48.7155 77.4014 48.079C77.4014 47.4424 77.6542 46.8319 78.1044 46.3817C78.5545 45.9316 79.165 45.6787 79.8016 45.6787Z" fill="#E3FF17"/>
<path d="M85.4022 45.6787C86.0388 45.6787 86.6493 45.9316 87.0994 46.3817C87.5495 46.8319 87.8024 47.4424 87.8024 48.079C87.8024 48.7155 87.5495 49.326 87.0994 49.7762C86.6493 50.2263 86.0388 50.4792 85.4022 50.4792C84.7656 50.4792 84.1551 50.2263 83.705 49.7762C83.2548 49.326 83.002 48.7155 83.002 48.079C83.002 47.4424 83.2548 46.8319 83.705 46.3817C84.1551 45.9316 84.7656 45.6787 85.4022 45.6787Z" fill="#E3FF17"/>
<path d="M91.0028 45.6787C91.6394 45.6787 92.2499 45.9316 92.7 46.3817C93.1501 46.8319 93.403 47.4424 93.403 48.079C93.403 48.7155 93.1501 49.326 92.7 49.7762C92.2499 50.2263 91.6394 50.4792 91.0028 50.4792C90.3662 50.4792 89.7557 50.2263 89.3056 49.7762C88.8554 49.326 88.6025 48.7155 88.6025 48.079C88.6025 47.4424 88.8554 46.8319 89.3056 46.3817C89.7557 45.9316 90.3662 45.6787 91.0028 45.6787Z" fill="#E3FF17"/>
<path d="M34.9975 51.3075C35.6266 51.3075 36.2299 51.5574 36.6747 52.0022C37.1196 52.4471 37.3695 53.0504 37.3695 53.6795C37.3695 54.3086 37.1196 54.9119 36.6747 55.3568C36.2299 55.8016 35.6266 56.0515 34.9975 56.0515C34.3684 56.0515 33.7651 55.8016 33.3202 55.3568C32.8754 54.9119 32.6255 54.3086 32.6255 53.6795C32.6255 53.0504 32.8754 52.4471 33.3202 52.0022C33.7651 51.5574 34.3684 51.3075 34.9975 51.3075Z" fill="#E3FF17"/>
<path d="M40.598 51.2793C41.2346 51.2793 41.8451 51.5322 42.2952 51.9823C42.7453 52.4324 42.9982 53.043 42.9982 53.6795C42.9982 54.3161 42.7453 54.9266 42.2952 55.3768C41.8451 55.8269 41.2346 56.0798 40.598 56.0798C39.9614 56.0798 39.3509 55.8269 38.9008 55.3768C38.4506 54.9266 38.1978 54.3161 38.1978 53.6795C38.1978 53.043 38.4506 52.4324 38.9008 51.9823C39.3509 51.5322 39.9614 51.2793 40.598 51.2793Z" fill="#E3FF17"/>
<path d="M46.1986 51.2793C46.8352 51.2793 47.4457 51.5322 47.8958 51.9823C48.3459 52.4324 48.5988 53.043 48.5988 53.6795C48.5988 54.3161 48.3459 54.9266 47.8958 55.3768C47.4457 55.8269 46.8352 56.0798 46.1986 56.0798C45.562 56.0798 44.9515 55.8269 44.5014 55.3768C44.0512 54.9266 43.7983 54.3161 43.7983 53.6795C43.7983 53.043 44.0512 52.4324 44.5014 51.9823C44.9515 51.5322 45.562 51.2793 46.1986 51.2793Z" fill="#E3FF17"/>
<path d="M57.3997 51.2793C58.0363 51.2793 58.6468 51.5322 59.097 51.9823C59.5471 52.4324 59.8 53.043 59.8 53.6795C59.8 54.3161 59.5471 54.9266 59.097 55.3768C58.6468 55.8269 58.0363 56.0798 57.3997 56.0798C56.7632 56.0798 56.1527 55.8269 55.7025 55.3768C55.2524 54.9266 54.9995 54.3161 54.9995 53.6795C54.9995 53.043 55.2524 52.4324 55.7025 51.9823C56.1527 51.5322 56.7632 51.2793 57.3997 51.2793Z" fill="#E3FF17"/>
<path d="M63.0003 51.2793C63.6369 51.2793 64.2474 51.5322 64.6976 51.9823C65.1477 52.4324 65.4006 53.043 65.4006 53.6795C65.4006 54.3161 65.1477 54.9266 64.6976 55.3768C64.2474 55.8269 63.6369 56.0798 63.0003 56.0798C62.3638 56.0798 61.7532 55.8269 61.3031 55.3768C60.853 54.9266 60.6001 54.3161 60.6001 53.6795C60.6001 53.043 60.853 52.4324 61.3031 51.9823C61.7532 51.5322 62.3638 51.2793 63.0003 51.2793Z" fill="#E3FF17"/>
<path d="M68.6009 51.2793C69.2375 51.2793 69.848 51.5322 70.2981 51.9823C70.7483 52.4324 71.0012 53.043 71.0012 53.6795C71.0012 54.3161 70.7483 54.9266 70.2981 55.3768C69.848 55.8269 69.2375 56.0798 68.6009 56.0798C67.9643 56.0798 67.3538 55.8269 66.9037 55.3768C66.4536 54.9266 66.2007 54.3161 66.2007 53.6795C66.2007 53.043 66.4536 52.4324 66.9037 51.9823C67.3538 51.5322 67.9643 51.2793 68.6009 51.2793Z" fill="#E3FF17"/>
<path d="M74.201 51.2793C74.8376 51.2793 75.4481 51.5322 75.8982 51.9823C76.3484 52.4324 76.6013 53.043 76.6013 53.6795C76.6013 54.3161 76.3484 54.9266 75.8982 55.3768C75.4481 55.8269 74.8376 56.0798 74.201 56.0798C73.5644 56.0798 72.9539 55.8269 72.5038 55.3768C72.0537 54.9266 71.8008 54.3161 71.8008 53.6795C71.8008 53.043 72.0537 52.4324 72.5038 51.9823C72.9539 51.5322 73.5644 51.2793 74.201 51.2793Z" fill="#E3FF17"/>
<path d="M79.8016 51.2793C80.4382 51.2793 81.0487 51.5322 81.4988 51.9823C81.949 52.4324 82.2018 53.043 82.2018 53.6795C82.2018 54.3161 81.949 54.9266 81.4988 55.3768C81.0487 55.8269 80.4382 56.0798 79.8016 56.0798C79.165 56.0798 78.5545 55.8269 78.1044 55.3768C77.6542 54.9266 77.4014 54.3161 77.4014 53.6795C77.4014 53.043 77.6542 52.4324 78.1044 51.9823C78.5545 51.5322 79.165 51.2793 79.8016 51.2793Z" fill="#E3FF17"/>
<path d="M85.4022 51.2793C86.0388 51.2793 86.6493 51.5322 87.0994 51.9823C87.5495 52.4324 87.8024 53.043 87.8024 53.6795C87.8024 54.3161 87.5495 54.9266 87.0994 55.3768C86.6493 55.8269 86.0388 56.0798 85.4022 56.0798C84.7656 56.0798 84.1551 55.8269 83.705 55.3768C83.2548 54.9266 83.002 54.3161 83.002 53.6795C83.002 53.043 83.2548 52.4324 83.705 51.9823C84.1551 51.5322 84.7656 51.2793 85.4022 51.2793Z" fill="#E3FF17"/>
<path d="M34.9974 56.8799C35.634 56.8799 36.2445 57.1328 36.6946 57.5829C37.1448 58.033 37.3976 58.6435 37.3976 59.2801C37.3976 59.9167 37.1448 60.5272 36.6946 60.9773C36.2445 61.4275 35.634 61.6804 34.9974 61.6804C34.3608 61.6804 33.7503 61.4275 33.3002 60.9773C32.8501 60.5272 32.5972 59.9167 32.5972 59.2801C32.5972 58.6435 32.8501 58.033 33.3002 57.5829C33.7503 57.1328 34.3608 56.8799 34.9974 56.8799Z" fill="#E3FF17"/>
<path d="M40.598 56.8799C41.2346 56.8799 41.8451 57.1328 42.2952 57.5829C42.7453 58.033 42.9982 58.6435 42.9982 59.2801C42.9982 59.9167 42.7453 60.5272 42.2952 60.9773C41.8451 61.4275 41.2346 61.6804 40.598 61.6804C39.9614 61.6804 39.3509 61.4275 38.9008 60.9773C38.4506 60.5272 38.1978 59.9167 38.1978 59.2801C38.1978 58.6435 38.4506 58.033 38.9008 57.5829C39.3509 57.1328 39.9614 56.8799 40.598 56.8799Z" fill="#E3FF17"/>
<path d="M46.1986 56.8799C46.8352 56.8799 47.4457 57.1328 47.8958 57.5829C48.3459 58.033 48.5988 58.6435 48.5988 59.2801C48.5988 59.9167 48.3459 60.5272 47.8958 60.9773C47.4457 61.4275 46.8352 61.6804 46.1986 61.6804C45.562 61.6804 44.9515 61.4275 44.5014 60.9773C44.0512 60.5272 43.7983 59.9167 43.7983 59.2801C43.7983 58.6435 44.0512 58.033 44.5014 57.5829C44.9515 57.1328 45.562 56.8799 46.1986 56.8799Z" fill="#E3FF17"/>
<path d="M51.7992 56.8799C52.4357 56.8799 53.0463 57.1328 53.4964 57.5829C53.9465 58.033 54.1994 58.6435 54.1994 59.2801C54.1994 59.9167 53.9465 60.5272 53.4964 60.9773C53.0463 61.4275 52.4357 61.6804 51.7992 61.6804C51.1626 61.6804 50.5521 61.4275 50.1019 60.9773C49.6518 60.5272 49.3989 59.9167 49.3989 59.2801C49.3989 58.6435 49.6518 58.033 50.1019 57.5829C50.5521 57.1328 51.1626 56.8799 51.7992 56.8799Z" fill="#E3FF17"/>
<path d="M57.3997 56.8799C58.0363 56.8799 58.6468 57.1328 59.097 57.5829C59.5471 58.033 59.8 58.6435 59.8 59.2801C59.8 59.9167 59.5471 60.5272 59.097 60.9773C58.6468 61.4275 58.0363 61.6804 57.3997 61.6804C56.7632 61.6804 56.1527 61.4275 55.7025 60.9773C55.2524 60.5272 54.9995 59.9167 54.9995 59.2801C54.9995 58.6435 55.2524 58.033 55.7025 57.5829C56.1527 57.1328 56.7632 56.8799 57.3997 56.8799Z" fill="#E3FF17"/>
<path d="M63.0003 56.8799C63.6369 56.8799 64.2474 57.1328 64.6976 57.5829C65.1477 58.033 65.4006 58.6435 65.4006 59.2801C65.4006 59.9167 65.1477 60.5272 64.6976 60.9773C64.2474 61.4275 63.6369 61.6804 63.0003 61.6804C62.3638 61.6804 61.7532 61.4275 61.3031 60.9773C60.853 60.5272 60.6001 59.9167 60.6001 59.2801C60.6001 58.6435 60.853 58.033 61.3031 57.5829C61.7532 57.1328 62.3638 56.8799 63.0003 56.8799Z" fill="#E3FF17"/>
<path d="M68.6009 56.8799C69.2375 56.8799 69.848 57.1328 70.2981 57.5829C70.7483 58.033 71.0012 58.6435 71.0012 59.2801C71.0012 59.9167 70.7483 60.5272 70.2981 60.9773C69.848 61.4275 69.2375 61.6804 68.6009 61.6804C67.9643 61.6804 67.3538 61.4275 66.9037 60.9773C66.4536 60.5272 66.2007 59.9167 66.2007 59.2801C66.2007 58.6435 66.4536 58.033 66.9037 57.5829C67.3538 57.1328 67.9643 56.8799 68.6009 56.8799Z" fill="#E3FF17"/>
<path d="M74.201 56.8799C74.8376 56.8799 75.4481 57.1328 75.8982 57.5829C76.3484 58.033 76.6013 58.6435 76.6013 59.2801C76.6013 59.9167 76.3484 60.5272 75.8982 60.9773C75.4481 61.4275 74.8376 61.6804 74.201 61.6804C73.5644 61.6804 72.9539 61.4275 72.5038 60.9773C72.0537 60.5272 71.8008 59.9167 71.8008 59.2801C71.8008 58.6435 72.0537 58.033 72.5038 57.5829C72.9539 57.1328 73.5644 56.8799 74.201 56.8799Z" fill="#E3FF17"/>
<path d="M79.8016 56.8799C80.4382 56.8799 81.0487 57.1328 81.4988 57.5829C81.949 58.033 82.2018 58.6435 82.2018 59.2801C82.2018 59.9167 81.949 60.5272 81.4988 60.9773C81.0487 61.4275 80.4382 61.6804 79.8016 61.6804C79.165 61.6804 78.5545 61.4275 78.1044 60.9773C77.6542 60.5272 77.4014 59.9167 77.4014 59.2801C77.4014 58.6435 77.6542 58.033 78.1044 57.5829C78.5545 57.1328 79.165 56.8799 79.8016 56.8799Z" fill="#E3FF17"/>
<path d="M85.4022 56.8799C86.0388 56.8799 86.6493 57.1328 87.0994 57.5829C87.5495 58.033 87.8024 58.6435 87.8024 59.2801C87.8024 59.9167 87.5495 60.5272 87.0994 60.9773C86.6493 61.4275 86.0388 61.6804 85.4022 61.6804C84.7656 61.6804 84.1551 61.4275 83.705 60.9773C83.2548 60.5272 83.002 59.9167 83.002 59.2801C83.002 58.6435 83.2548 58.033 83.705 57.5829C84.1551 57.1328 84.7656 56.8799 85.4022 56.8799Z" fill="#E3FF17"/>
<path d="M34.9974 62.4805C35.634 62.4805 36.2445 62.7334 36.6946 63.1835C37.1448 63.6336 37.3976 64.2441 37.3976 64.8807C37.3976 65.5173 37.1448 66.1278 36.6946 66.5779C36.2445 67.0281 35.634 67.2809 34.9974 67.2809C34.3608 67.2809 33.7503 67.0281 33.3002 66.5779C32.8501 66.1278 32.5972 65.5173 32.5972 64.8807C32.5972 64.2441 32.8501 63.6336 33.3002 63.1835C33.7503 62.7334 34.3608 62.4805 34.9974 62.4805Z" fill="#E3FF17"/>
<path d="M40.598 62.4804C41.2346 62.4804 41.8451 62.7332 42.2952 63.1834C42.7453 63.6335 42.9982 64.244 42.9982 64.8806C42.9982 65.5172 42.7453 66.1277 42.2952 66.5778C41.8451 67.0279 41.2346 67.2808 40.598 67.2808C39.9614 67.2808 39.3509 67.0279 38.9008 66.5778C38.4506 66.1277 38.1978 65.5172 38.1978 64.8806C38.1978 64.244 38.4506 63.6335 38.9008 63.1834C39.3509 62.7332 39.9614 62.4804 40.598 62.4804Z" fill="#E3FF17"/>
<path d="M46.1986 62.4804C46.8352 62.4804 47.4457 62.7332 47.8958 63.1834C48.3459 63.6335 48.5988 64.244 48.5988 64.8806C48.5988 65.5172 48.3459 66.1277 47.8958 66.5778C47.4457 67.0279 46.8352 67.2808 46.1986 67.2808C45.562 67.2808 44.9515 67.0279 44.5014 66.5778C44.0512 66.1277 43.7983 65.5172 43.7983 64.8806C43.7983 64.244 44.0512 63.6335 44.5014 63.1834C44.9515 62.7332 45.562 62.4804 46.1986 62.4804Z" fill="#E3FF17"/>
<path d="M51.7992 62.4804C52.4357 62.4804 53.0463 62.7332 53.4964 63.1834C53.9465 63.6335 54.1994 64.244 54.1994 64.8806C54.1994 65.5172 53.9465 66.1277 53.4964 66.5778C53.0463 67.0279 52.4357 67.2808 51.7992 67.2808C51.1626 67.2808 50.5521 67.0279 50.1019 66.5778C49.6518 66.1277 49.3989 65.5172 49.3989 64.8806C49.3989 64.244 49.6518 63.6335 50.1019 63.1834C50.5521 62.7332 51.1626 62.4804 51.7992 62.4804Z" fill="#E3FF17"/>
<path d="M57.3997 62.4804C58.0363 62.4804 58.6468 62.7332 59.097 63.1834C59.5471 63.6335 59.8 64.244 59.8 64.8806C59.8 65.5172 59.5471 66.1277 59.097 66.5778C58.6468 67.0279 58.0363 67.2808 57.3997 67.2808C56.7632 67.2808 56.1527 67.0279 55.7025 66.5778C55.2524 66.1277 54.9995 65.5172 54.9995 64.8806C54.9995 64.244 55.2524 63.6335 55.7025 63.1834C56.1527 62.7332 56.7632 62.4804 57.3997 62.4804Z" fill="#E3FF17"/>
<path d="M63.0003 62.4804C63.6369 62.4804 64.2474 62.7332 64.6976 63.1834C65.1477 63.6335 65.4006 64.244 65.4006 64.8806C65.4006 65.5172 65.1477 66.1277 64.6976 66.5778C64.2474 67.0279 63.6369 67.2808 63.0003 67.2808C62.3638 67.2808 61.7532 67.0279 61.3031 66.5778C60.853 66.1277 60.6001 65.5172 60.6001 64.8806C60.6001 64.244 60.853 63.6335 61.3031 63.1834C61.7532 62.7332 62.3638 62.4804 63.0003 62.4804Z" fill="#E3FF17"/>
<path d="M68.6009 62.4804C69.2375 62.4804 69.848 62.7332 70.2981 63.1834C70.7483 63.6335 71.0012 64.244 71.0012 64.8806C71.0012 65.5172 70.7483 66.1277 70.2981 66.5778C69.848 67.0279 69.2375 67.2808 68.6009 67.2808C67.9643 67.2808 67.3538 67.0279 66.9037 66.5778C66.4536 66.1277 66.2007 65.5172 66.2007 64.8806C66.2007 64.244 66.4536 63.6335 66.9037 63.1834C67.3538 62.7332 67.9643 62.4804 68.6009 62.4804Z" fill="#E3FF17"/>
<path d="M74.201 62.4804C74.8376 62.4804 75.4481 62.7332 75.8982 63.1834C76.3484 63.6335 76.6013 64.244 76.6013 64.8806C76.6013 65.5172 76.3484 66.1277 75.8982 66.5778C75.4481 67.0279 74.8376 67.2808 74.201 67.2808C73.5644 67.2808 72.9539 67.0279 72.5038 66.5778C72.0537 66.1277 71.8008 65.5172 71.8008 64.8806C71.8008 64.244 72.0537 63.6335 72.5038 63.1834C72.9539 62.7332 73.5644 62.4804 74.201 62.4804Z" fill="#E3FF17"/>
<path d="M79.8016 62.4804C80.4382 62.4804 81.0487 62.7332 81.4988 63.1834C81.949 63.6335 82.2018 64.244 82.2018 64.8806C82.2018 65.5172 81.949 66.1277 81.4988 66.5778C81.0487 67.0279 80.4382 67.2808 79.8016 67.2808C79.165 67.2808 78.5545 67.0279 78.1044 66.5778C77.6542 66.1277 77.4014 65.5172 77.4014 64.8806C77.4014 64.244 77.6542 63.6335 78.1044 63.1834C78.5545 62.7332 79.165 62.4804 79.8016 62.4804Z" fill="#E3FF17"/>
<path d="M51.7992 68.0809C52.4357 68.0809 53.0463 68.3338 53.4964 68.784C53.9465 69.2341 54.1994 69.8446 54.1994 70.4812C54.1994 71.1178 53.9465 71.7283 53.4964 72.1784C53.0463 72.6285 52.4357 72.8814 51.7992 72.8814C51.1626 72.8814 50.5521 72.6285 50.1019 72.1784C49.6518 71.7283 49.3989 71.1178 49.3989 70.4812C49.3989 69.8446 49.6518 69.2341 50.1019 68.784C50.5521 68.3338 51.1626 68.0809 51.7992 68.0809Z" fill="#E3FF17"/>
<path d="M57.3997 68.0809C58.0363 68.0809 58.6468 68.3338 59.097 68.784C59.5471 69.2341 59.8 69.8446 59.8 70.4812C59.8 71.1178 59.5471 71.7283 59.097 72.1784C58.6468 72.6285 58.0363 72.8814 57.3997 72.8814C56.7632 72.8814 56.1527 72.6285 55.7025 72.1784C55.2524 71.7283 54.9995 71.1178 54.9995 70.4812C54.9995 69.8446 55.2524 69.2341 55.7025 68.784C56.1527 68.3338 56.7632 68.0809 57.3997 68.0809Z" fill="#E3FF17"/>
<path d="M63.0003 68.0809C63.6369 68.0809 64.2474 68.3338 64.6976 68.784C65.1477 69.2341 65.4006 69.8446 65.4006 70.4812C65.4006 71.1178 65.1477 71.7283 64.6976 72.1784C64.2474 72.6285 63.6369 72.8814 63.0003 72.8814C62.3638 72.8814 61.7532 72.6285 61.3031 72.1784C60.853 71.7283 60.6001 71.1178 60.6001 70.4812C60.6001 69.8446 60.853 69.2341 61.3031 68.784C61.7532 68.3338 62.3638 68.0809 63.0003 68.0809Z" fill="#E3FF17"/>
<path d="M68.6009 68.0809C69.2375 68.0809 69.848 68.3338 70.2981 68.784C70.7483 69.2341 71.0012 69.8446 71.0012 70.4812C71.0012 71.1178 70.7483 71.7283 70.2981 72.1784C69.848 72.6285 69.2375 72.8814 68.6009 72.8814C67.9643 72.8814 67.3538 72.6285 66.9037 72.1784C66.4536 71.7283 66.2007 71.1178 66.2007 70.4812C66.2007 69.8446 66.4536 69.2341 66.9037 68.784C67.3538 68.3338 67.9643 68.0809 68.6009 68.0809Z" fill="#E3FF17"/>
<path d="M74.201 68.0809C74.8376 68.0809 75.4481 68.3338 75.8982 68.784C76.3484 69.2341 76.6013 69.8446 76.6013 70.4812C76.6013 71.1178 76.3484 71.7283 75.8982 72.1784C75.4481 72.6285 74.8376 72.8814 74.201 72.8814C73.5644 72.8814 72.9539 72.6285 72.5038 72.1784C72.0537 71.7283 71.8008 71.1178 71.8008 70.4812C71.8008 69.8446 72.0537 69.2341 72.5038 68.784C72.9539 68.3338 73.5644 68.0809 74.201 68.0809Z" fill="#E3FF17"/>
<path d="M38.7586 73.3434C39.3952 73.3434 40.0057 73.5963 40.4559 74.0464C40.906 74.4965 41.1589 75.107 41.1589 75.7436C41.1589 76.3802 40.906 76.9907 40.4559 77.4408C40.0057 77.891 39.3952 78.1439 38.7586 78.1439C38.1221 78.1439 37.5115 77.891 37.0614 77.4408C36.6113 76.9907 36.3584 76.3802 36.3584 75.7436C36.3584 75.107 36.6113 74.4965 37.0614 74.0464C37.5115 73.5963 38.1221 73.3434 38.7586 73.3434Z" fill="#E3FF17"/>
<path d="M57.3997 73.6815C58.0363 73.6815 58.6468 73.9344 59.097 74.3845C59.5471 74.8347 59.8 75.4452 59.8 76.0818C59.8 76.7183 59.5471 77.3289 59.097 77.779C58.6468 78.2291 58.0363 78.482 57.3997 78.482C56.7632 78.482 56.1527 78.2291 55.7025 77.779C55.2524 77.3289 54.9995 76.7183 54.9995 76.0818C54.9995 75.4452 55.2524 74.8347 55.7025 74.3845C56.1527 73.9344 56.7632 73.6815 57.3997 73.6815Z" fill="#E3FF17"/>
<path d="M63.0003 73.6815C63.6369 73.6815 64.2474 73.9344 64.6976 74.3845C65.1477 74.8347 65.4006 75.4452 65.4006 76.0818C65.4006 76.7183 65.1477 77.3289 64.6976 77.779C64.2474 78.2291 63.6369 78.482 63.0003 78.482C62.3638 78.482 61.7532 78.2291 61.3031 77.779C60.853 77.3289 60.6001 76.7183 60.6001 76.0818C60.6001 75.4452 60.853 74.8347 61.3031 74.3845C61.7532 73.9344 62.3638 73.6815 63.0003 73.6815Z" fill="#E3FF17"/>
<path d="M68.6009 73.6815C69.2375 73.6815 69.848 73.9344 70.2981 74.3845C70.7483 74.8347 71.0012 75.4452 71.0012 76.0818C71.0012 76.7183 70.7483 77.3289 70.2981 77.779C69.848 78.2291 69.2375 78.482 68.6009 78.482C67.9643 78.482 67.3538 78.2291 66.9037 77.779C66.4536 77.3289 66.2007 76.7183 66.2007 76.0818C66.2007 75.4452 66.4536 74.8347 66.9037 74.3845C67.3538 73.9344 67.9643 73.6815 68.6009 73.6815Z" fill="#E3FF17"/>
<path d="M79.8016 73.6815C80.4382 73.6815 81.0487 73.9344 81.4988 74.3845C81.949 74.8347 82.2018 75.4452 82.2018 76.0818C82.2018 76.7183 81.949 77.3289 81.4988 77.779C81.0487 78.2291 80.4382 78.482 79.8016 78.482C79.165 78.482 78.5545 78.2291 78.1044 77.779C77.6542 77.3289 77.4014 76.7183 77.4014 76.0818C77.4014 75.4452 77.6542 74.8347 78.1044 74.3845C78.5545 73.9344 79.165 73.6815 79.8016 73.6815Z" fill="#E3FF17"/>
<path d="M34.9974 79.2821C35.634 79.2821 36.2445 79.535 36.6946 79.9851C37.1448 80.4353 37.3976 81.0458 37.3976 81.6823C37.3976 82.3189 37.1448 82.9294 36.6946 83.3796C36.2445 83.8297 35.634 84.0826 34.9974 84.0826C34.3608 84.0826 33.7503 83.8297 33.3002 83.3796C32.8501 82.9294 32.5972 82.3189 32.5972 81.6823C32.5972 81.0458 32.8501 80.4353 33.3002 79.9851C33.7503 79.535 34.3608 79.2821 34.9974 79.2821Z" fill="#E3FF17"/>
<path d="M44.4002 70.209C45.0368 70.209 45.6473 70.4619 46.0975 70.912C46.5476 71.3621 46.8005 71.9726 46.8005 72.6092C46.8005 73.2458 46.5476 73.8563 46.0975 74.3064C45.6473 74.7566 45.0368 75.0095 44.4002 75.0095C43.7637 75.0095 43.1531 74.7566 42.703 74.3064C42.2529 73.8563 42 73.2458 42 72.6092C42 71.9726 42.2529 71.3621 42.703 70.912C43.1531 70.4619 43.7637 70.209 44.4002 70.209Z" fill="#E3FF17"/>
<path d="M53.8036 78.9851C54.4401 78.9851 55.0506 79.238 55.5008 79.6881C55.9509 80.1383 56.2038 80.7488 56.2038 81.3853C56.2038 82.0219 55.9509 82.6324 55.5008 83.0826C55.0506 83.5327 54.4401 83.7856 53.8036 83.7856C53.167 83.7856 52.5565 83.5327 52.1063 83.0826C51.6562 82.6324 51.4033 82.0219 51.4033 81.3853C51.4033 80.7488 51.6562 80.1383 52.1063 79.6881C52.5565 79.238 53.167 78.9851 53.8036 78.9851Z" fill="#E3FF17"/>
<path d="M63.0003 79.2821C63.6369 79.2821 64.2474 79.535 64.6976 79.9851C65.1477 80.4353 65.4006 81.0458 65.4006 81.6823C65.4006 82.3189 65.1477 82.9294 64.6976 83.3796C64.2474 83.8297 63.6369 84.0826 63.0003 84.0826C62.3638 84.0826 61.7532 83.8297 61.3031 83.3796C60.853 82.9294 60.6001 82.3189 60.6001 81.6823C60.6001 81.0458 60.853 80.4353 61.3031 79.9851C61.7532 79.535 62.3638 79.2821 63.0003 79.2821Z" fill="#E3FF17"/>
<path d="M68.6009 79.2821C69.2375 79.2821 69.848 79.535 70.2981 79.9851C70.7483 80.4353 71.0012 81.0458 71.0012 81.6823C71.0012 82.3189 70.7483 82.9294 70.2981 83.3796C69.848 83.8297 69.2375 84.0826 68.6009 84.0826C67.9643 84.0826 67.3538 83.8297 66.9037 83.3796C66.4536 82.9294 66.2007 82.3189 66.2007 81.6823C66.2007 81.0458 66.4536 80.4353 66.9037 79.9851C67.3538 79.535 67.9643 79.2821 68.6009 79.2821Z" fill="#E3FF17"/>
<path d="M74.201 79.2821C74.8376 79.2821 75.4481 79.535 75.8982 79.9851C76.3484 80.4353 76.6013 81.0458 76.6013 81.6823C76.6013 82.3189 76.3484 82.9294 75.8982 83.3796C75.4481 83.8297 74.8376 84.0826 74.201 84.0826C73.5644 84.0826 72.9539 83.8297 72.5038 83.3796C72.0537 82.9294 71.8008 82.3189 71.8008 81.6823C71.8008 81.0458 72.0537 80.4353 72.5038 79.9851C72.9539 79.535 73.5644 79.2821 74.201 79.2821Z" fill="#E3FF17"/>
<path d="M79.8016 79.2821C80.4382 79.2821 81.0487 79.535 81.4988 79.9851C81.949 80.4353 82.2018 81.0458 82.2018 81.6823C82.2018 82.3189 81.949 82.9294 81.4988 83.3796C81.0487 83.8297 80.4382 84.0826 79.8016 84.0826C79.165 84.0826 78.5545 83.8297 78.1044 83.3796C77.6542 82.9294 77.4014 82.3189 77.4014 81.6823C77.4014 81.0458 77.6542 80.4353 78.1044 79.9851C78.5545 79.535 79.165 79.2821 79.8016 79.2821Z" fill="#E3FF17"/>
<path d="M34.9974 84.8826C35.634 84.8826 36.2445 85.1355 36.6946 85.5856C37.1448 86.0357 37.3976 86.6462 37.3976 87.2828C37.3976 87.9194 37.1448 88.5299 36.6946 88.98C36.2445 89.4302 35.634 89.683 34.9974 89.683C34.3608 89.683 33.7503 89.4302 33.3002 88.98C32.8501 88.5299 32.5972 87.9194 32.5972 87.2828C32.5972 86.6462 32.8501 86.0357 33.3002 85.5856C33.7503 85.1355 34.3608 84.8826 34.9974 84.8826Z" fill="#E3FF17"/>
<path d="M46.9081 89.015C47.5446 89.015 48.1551 89.2679 48.6053 89.718C49.0554 90.1682 49.3083 90.7787 49.3083 91.4153C49.3083 92.0518 49.0554 92.6623 48.6053 93.1125C48.1551 93.5626 47.5446 93.8155 46.9081 93.8155C46.2715 93.8155 45.661 93.5626 45.2108 93.1125C44.7607 92.6623 44.5078 92.0518 44.5078 91.4153C44.5078 90.7787 44.7607 90.1682 45.2108 89.718C45.661 89.2679 46.2715 89.015 46.9081 89.015Z" fill="#E3FF17"/>
<path d="M51.7992 84.8826C52.4357 84.8826 53.0463 85.1355 53.4964 85.5856C53.9465 86.0357 54.1994 86.6462 54.1994 87.2828C54.1994 87.9194 53.9465 88.5299 53.4964 88.98C53.0463 89.4302 52.4357 89.683 51.7992 89.683C51.1626 89.683 50.5521 89.4302 50.1019 88.98C49.6518 88.5299 49.3989 87.9194 49.3989 87.2828C49.3989 86.6462 49.6518 86.0357 50.1019 85.5856C50.5521 85.1355 51.1626 84.8826 51.7992 84.8826Z" fill="#E3FF17"/>
<path d="M63.0003 84.8826C63.6369 84.8826 64.2474 85.1355 64.6976 85.5856C65.1477 86.0357 65.4006 86.6462 65.4006 87.2828C65.4006 87.9194 65.1477 88.5299 64.6976 88.98C64.2474 89.4302 63.6369 89.683 63.0003 89.683C62.3638 89.683 61.7532 89.4302 61.3031 88.98C60.853 88.5299 60.6001 87.9194 60.6001 87.2828C60.6001 86.6462 60.853 86.0357 61.3031 85.5856C61.7532 85.1355 62.3638 84.8826 63.0003 84.8826Z" fill="#E3FF17"/>
<path d="M68.6009 84.8826C69.2375 84.8826 69.848 85.1355 70.2981 85.5856C70.7483 86.0357 71.0012 86.6462 71.0012 87.2828C71.0012 87.9194 70.7483 88.5299 70.2981 88.98C69.848 89.4302 69.2375 89.683 68.6009 89.683C67.9643 89.683 67.3538 89.4302 66.9037 88.98C66.4536 88.5299 66.2007 87.9194 66.2007 87.2828C66.2007 86.6462 66.4536 86.0357 66.9037 85.5856C67.3538 85.1355 67.9643 84.8826 68.6009 84.8826Z" fill="#E3FF17"/>
<path d="M74.201 84.8826C74.8376 84.8826 75.4481 85.1355 75.8982 85.5856C76.3484 86.0357 76.6013 86.6462 76.6013 87.2828C76.6013 87.9194 76.3484 88.5299 75.8982 88.98C75.4481 89.4302 74.8376 89.683 74.201 89.683C73.5644 89.683 72.9539 89.4302 72.5038 88.98C72.0537 88.5299 71.8008 87.9194 71.8008 87.2828C71.8008 86.6462 72.0537 86.0357 72.5038 85.5856C72.9539 85.1355 73.5644 84.8826 74.201 84.8826Z" fill="#E3FF17"/>
<path d="M34.9974 90.4832C35.634 90.4832 36.2445 90.736 36.6946 91.1862C37.1448 91.6363 37.3976 92.2468 37.3976 92.8834C37.3976 93.52 37.1448 94.1305 36.6946 94.5806C36.2445 95.0308 35.634 95.2836 34.9974 95.2836C34.3608 95.2836 33.7503 95.0308 33.3002 94.5806C32.8501 94.1305 32.5972 93.52 32.5972 92.8834C32.5972 92.2468 32.8501 91.6363 33.3002 91.1862C33.7503 90.736 34.3608 90.4832 34.9974 90.4832Z" fill="#E3FF17"/>
<path d="M40.598 90.4832C41.2346 90.4832 41.8451 90.736 42.2952 91.1862C42.7453 91.6363 42.9982 92.2468 42.9982 92.8834C42.9982 93.52 42.7453 94.1305 42.2952 94.5806C41.8451 95.0308 41.2346 95.2836 40.598 95.2836C39.9614 95.2836 39.3509 95.0308 38.9008 94.5806C38.4506 94.1305 38.1978 93.52 38.1978 92.8834C38.1978 92.2468 38.4506 91.6363 38.9008 91.1862C39.3509 90.736 39.9614 90.4832 40.598 90.4832Z" fill="#E3FF17"/>
<path d="M63.0003 90.4832C63.6369 90.4832 64.2474 90.736 64.6976 91.1862C65.1477 91.6363 65.4006 92.2468 65.4006 92.8834C65.4006 93.52 65.1477 94.1305 64.6976 94.5806C64.2474 95.0308 63.6369 95.2836 63.0003 95.2836C62.3638 95.2836 61.7532 95.0308 61.3031 94.5806C60.853 94.1305 60.6001 93.52 60.6001 92.8834C60.6001 92.2468 60.853 91.6363 61.3031 91.1862C61.7532 90.736 62.3638 90.4832 63.0003 90.4832Z" fill="#E3FF17"/>
<path d="M68.6009 90.4832C69.2375 90.4832 69.848 90.736 70.2981 91.1862C70.7483 91.6363 71.0012 92.2468 71.0012 92.8834C71.0012 93.52 70.7483 94.1305 70.2981 94.5806C69.848 95.0308 69.2375 95.2836 68.6009 95.2836C67.9643 95.2836 67.3538 95.0308 66.9037 94.5806C66.4536 94.1305 66.2007 93.52 66.2007 92.8834C66.2007 92.2468 66.4536 91.6363 66.9037 91.1862C67.3538 90.736 67.9643 90.4832 68.6009 90.4832Z" fill="#E3FF17"/>
</svg>
