<?xml version="1.0" encoding="UTF-8"?>
<svg id="Layer_1" data-name="Layer 1" xmlns="http://www.w3.org/2000/svg" viewBox="0 0 1021.8677 215.185">
  <defs>
    <style>
      .cls-1 {
        stroke-width: 0px;
      }
    </style>
  </defs>
  <path class="cls-1" d="m750.3544,180.0701c-36.9258,0-54.7861-9.8955-62.2676-23.8936-5.5508-10.1367-6.2754-17.6182-6.2754-29.4443v-3.9114l4.2063-1.6289,120.2001-46.3591v-28.4365l-191.4105,74.0791V49.0251h-30.3474v155.3254h30.3474v-55.6769l36.462-14.0267c2.094,49.0171,35.3694,73.4192,100.0509,73.4192,29.7897,0,54.2914-3.4642,73.3456-10.5522v-31.7791c-19.4973,9.0867-46.7231,14.3352-74.3114,14.3352Z"/>
  <path class="cls-1" d="m283.5356,204.8939h-29.6326l-17.2046-120.6766-74.3175,120.6766h-28.9147L60.8214,91.3861l-18.8788,113.5079H14.7006L40.5098,49.5684h28.9147l79.3354,125.6945,78.1409-125.6945h34.649l21.9858,155.3255Z"/>
  <path class="cls-1" d="m530.4801,204.8939l-30.5873-42.0591h-133.5812l-30.1092,42.0591h-34.4107l111.3571-155.3255h40.863l113.5063,155.3255h-37.038Zm-144.5733-69.0613h94.3908l-47.5536-65.4745-46.8372,65.4745ZM474.3234,6.0765v21.9842h-81.2495V6.0765h81.2495Z"/>
  <path class="cls-1" d="m1007.341,49.5684v75.9885c0,25.5694-8.1234,45.881-24.6131,60.9379-16.4866,15.0538-37.5177,22.7006-63.0839,22.7006-25.8092,0-46.6005-6.9304-62.6106-21.028-16.01-13.8609-23.8967-33.4561-23.8967-58.7856V49.5684h30.3506v77.901c0,35.6052,22.9405,54.0075,56.6332,54.0075,34.4091,0,57.3496-19.1187,57.3496-55.6801V49.5684h29.8709Z"/>
</svg>